<?xml version="1.0" standalone="no"?>
<!DOCTYPE svg PUBLIC "-//W3C//DTD SVG 1.1//EN" "http://www.w3.org/Graphics/SVG/1.1/DTD/svg11.dtd" >
<svg xmlns="http://www.w3.org/2000/svg" xmlns:xlink="http://www.w3.org/1999/xlink" version="1.1">
<metadata>
Created by FontForge 20170924 at Thu Mar 14 11:59:42 2024
 By www-data
Copyright \(c\) 2024 by Casa Arvora. All rights reserved.
</metadata>
<defs>
<font id="Arvora" horiz-adv-x="532" >
  <font-face 
    font-family="Arvora"
    font-weight="400"
    font-stretch="normal"
    units-per-em="1000"
    panose-1="0 0 0 0 0 0 0 0 0 0"
    ascent="750"
    descent="-250"
    x-height="500"
    cap-height="700"
    bbox="-1170 -901 1788 1590"
    underline-thickness="50"
    underline-position="-125"
    stemh="21"
    stemv="50"
    unicode-range="U+000D-FB06"
  />
<missing-glyph horiz-adv-x="500" 
 />
    <glyph glyph-name="uniE017" unicode="gj" horiz-adv-x="781" 
d="M645 665c0 20 15 35 35 35s35 -15 35 -35s-15 -35 -35 -35s-35 15 -35 35zM44 315c0 117 90 195 208 195c108 0 193 -66 206 -167c116 46 218 96 248 162h4v-566c0 -159 -76 -189 -141 -189c-44 0 -91 22 -93 70c-55 -64 -170 -99 -274 -99c-112 0 -212 41 -212 130
c0 51 32 102 103 123l2 -5c-46 -27 -61 -59 -61 -94c0 -87 97 -126 203 -126c125 0 260 55 260 148c0 185 -453 7 -453 216c0 26 17 50 47 72c-30 33 -47 78 -47 130zM97 315c0 -43 9 -81 25 -110c71 42 180 79 285 119c-3 109 -64 176 -155 176c-93 0 -155 -71 -155 -185z
M544 -176c0 -18 -14 -33 -32 -34c10 -17 28 -30 57 -30c36 0 91 17 91 117v560c-48 -42 -121 -77 -200 -108v-14c0 -118 -90 -196 -208 -196c-61 0 -115 21 -152 57c-26 -20 -41 -41 -41 -64c0 -137 450 40 450 -208c0 -17 -4 -33 -10 -48c3 1 7 2 11 2c19 0 34 -15 34 -34z
M128 195c27 -42 70 -66 124 -66c91 0 153 69 155 180c-105 -39 -212 -74 -279 -114z" />
    <glyph glyph-name="uniE05E" unicode="gi" horiz-adv-x="710" 
d="M569 665c0 20 15 35 35 35s35 -15 35 -35s-15 -35 -35 -35s-35 15 -35 35zM44 315c0 117 90 195 208 195c101 0 181 -57 202 -146c82 41 151 86 176 141h4v-427c0 -45 14 -69 51 -73v-5h-152v5c37 4 51 28 51 73v355c-33 -31 -78 -58 -127 -83c2 -11 3 -23 3 -35
c0 -118 -90 -196 -208 -196c-61 0 -115 21 -153 58c-25 -20 -40 -42 -40 -65c0 -137 450 40 450 -208c0 -116 -164 -183 -307 -183c-112 0 -212 41 -212 130c0 51 32 102 103 123l2 -5c-46 -27 -61 -59 -61 -94c0 -87 97 -126 203 -126c125 0 260 55 260 148
c0 185 -453 9 -453 210c0 28 18 54 48 78c-30 33 -48 78 -48 130zM97 315c0 -43 8 -80 24 -109c72 47 184 89 285 135c-9 99 -68 159 -154 159c-93 0 -155 -71 -155 -185zM127 197c27 -43 71 -68 125 -68c93 0 155 72 155 186v11c-101 -46 -211 -86 -280 -129z" />
    <glyph glyph-name="uniE227" unicode="fb" horiz-adv-x="845" 
d="M359 769l78 28v-380c39 48 96 93 173 93c140 0 210 -122 210 -247c0 -150 -80 -273 -235 -273c-82 0 -136 49 -162 108h-4l-22 -98h-10v661c0 68 -55 126 -119 126c-66 0 -108 -54 -108 -139v-148h140v-12h-140v-410c0 -45 14 -69 51 -73v-5h-152v5c37 4 51 28 51 73v410
h-100v12h100v94c0 130 58 203 161 203c34 0 62 -9 88 -28zM604 494c-73 0 -128 -41 -167 -94v-219c0 -86 53 -181 147 -181c131 0 182 137 182 263c0 91 -37 231 -162 231z" />
    <glyph glyph-name="uniE228" unicode="ffb" horiz-adv-x="1156" 
d="M698 0v661c0 68 -55 126 -119 126c-66 0 -108 -54 -108 -139v-148h140v-12h-140v-410c0 -45 14 -69 51 -73v-5h-152v5c37 4 51 28 51 73v410h-261v-410c0 -45 14 -69 51 -73v-5h-152v5c37 4 51 28 51 73v410h-100v12h100v94c0 130 58 203 161 203c88 0 123 -62 124 -97
c0 -20 -13 -36 -34 -36c-19 0 -34 15 -34 34s15 34 34 34c-16 35 -50 55 -93 55c-74 0 -108 -56 -108 -176v-111h261v94c0 130 58 203 161 203c34 0 62 -9 88 -28l78 28v-380c39 48 96 93 173 93c140 0 210 -122 210 -247c0 -150 -80 -273 -235 -273c-82 0 -136 49 -162 108
h-4l-22 -98h-10zM748 400v-219c0 -86 53 -181 147 -181c131 0 182 137 182 263c0 91 -37 231 -162 231c-73 0 -128 -41 -167 -94z" />
    <glyph glyph-name="uniE229" unicode="ffh" horiz-adv-x="1154" 
d="M1078 373v-321c0 -35 13 -41 28 -41c11 0 21 4 27 9l3 -3c-11 -14 -29 -27 -51 -27c-25 0 -57 8 -57 68v310c0 97 -46 129 -107 129c-100 0 -173 -99 -173 -184v-235c0 -45 14 -69 51 -73v-5h-152v5c37 4 51 28 51 73v583c0 68 -55 126 -119 126
c-66 0 -108 -54 -108 -139v-148h140v-12h-140v-410c0 -45 14 -69 51 -73v-5h-152v5c37 4 51 28 51 73v410h-261v-410c0 -45 14 -69 51 -73v-5h-152v5c37 4 51 28 51 73v410h-100v12h100v94c0 130 58 203 161 203c88 0 123 -62 124 -97c0 -20 -13 -36 -34 -36
c-19 0 -34 15 -34 34s15 34 34 34c-16 35 -50 55 -93 55c-74 0 -108 -56 -108 -176v-111h261v94c0 130 58 203 161 203c34 0 62 -9 88 -28l78 28v-424c24 68 86 137 177 137c120 0 153 -77 153 -137z" />
    <glyph glyph-name="uniE22B" unicode="ffk" horiz-adv-x="1109" 
d="M1045 410c-19 0 -34 15 -34 34c0 15 10 28 24 32c-10 10 -25 14 -39 14c-54 0 -97 -28 -163 -104l-37 -42c204 -9 142 -315 303 -339v-5c-248 0 -148 333 -311 334l-40 -46v-210c0 -45 14 -69 51 -73v-5h-152v5c37 4 51 28 51 73v583c0 68 -55 126 -119 126
c-66 0 -108 -54 -108 -139v-148h140v-12h-140v-410c0 -45 14 -69 51 -73v-5h-152v5c37 4 51 28 51 73v410h-261v-410c0 -45 14 -69 51 -73v-5h-152v5c37 4 51 28 51 73v410h-100v12h100v94c0 130 58 203 161 203c88 0 123 -62 124 -97c0 -20 -13 -36 -34 -36
c-19 0 -34 15 -34 34s15 34 34 34c-16 35 -50 55 -93 55c-74 0 -108 -56 -108 -176v-111h261v94c0 130 58 203 161 203c34 0 62 -9 88 -28l78 28v-493l69 81c69 80 116 125 181 125c45 0 80 -24 81 -64c0 -20 -13 -36 -34 -36z" />
    <glyph glyph-name="uniE22C" unicode="fh" horiz-adv-x="843" 
d="M767 373v-321c0 -35 13 -41 28 -41c11 0 21 4 27 9l3 -3c-11 -14 -29 -27 -51 -27c-25 0 -57 8 -57 68v310c0 97 -46 129 -107 129c-100 0 -173 -99 -173 -184v-235c0 -45 14 -69 51 -73v-5h-152v5c37 4 51 28 51 73v583c0 71 -52 126 -119 126c-66 0 -108 -54 -108 -139
v-148h140v-12h-140v-410c0 -45 14 -69 51 -73v-5h-152v5c37 4 51 28 51 73v410h-100v12h100v94c0 130 58 203 161 203c34 0 62 -9 88 -28l78 28v-424c24 68 86 137 177 137c120 0 153 -77 153 -137z" />
    <glyph glyph-name="uniE22E" unicode="fk" horiz-adv-x="798" 
d="M734 410c-19 0 -34 15 -34 34c0 15 10 28 24 32c-10 10 -25 14 -39 14c-54 0 -97 -28 -163 -104l-37 -42c204 -9 142 -315 303 -339v-5c-248 0 -148 333 -311 334l-40 -46v-210c0 -45 14 -69 51 -73v-5h-152v5c37 4 51 28 51 73v583c0 71 -52 126 -119 126
c-66 0 -108 -54 -108 -139v-148h140v-12h-140v-410c0 -45 14 -69 51 -73v-5h-152v5c37 4 51 28 51 73v410h-100v12h100v94c0 130 58 203 161 203c34 0 62 -9 88 -28l78 28v-493l69 81c69 80 116 125 181 125c45 0 80 -24 81 -64c0 -20 -13 -36 -34 -36z" />
    <glyph glyph-name="fi" unicode="fi" horiz-adv-x="513" 
d="M160 611v-111h140v-12h-140v-410c0 -45 14 -69 51 -73v-5h-152v5c37 4 51 28 51 73v410h-100v12h100v94c0 125 72 203 186 203c82 0 146 -58 146 -132c0 -20 -15 -35 -35 -35s-35 15 -35 35c0 25 19 35 41 35c-15 52 -61 87 -121 87c-88 0 -132 -59 -132 -176zM341 470
l96 35v-427c0 -45 14 -69 51 -73v-5h-152v5c37 4 51 28 51 73v340c0 35 -11 47 -46 47v5z" />
    <glyph glyph-name="fl" unicode="fl" horiz-adv-x="513" 
d="M160 648v-148h140v-12h-140v-410c0 -45 14 -69 51 -73v-5h-152v5c37 4 51 28 51 73v410h-100v12h100v94c0 130 58 203 161 203c34 0 62 -9 88 -28l78 28v-719c0 -45 14 -69 51 -73v-5h-152v5c37 4 51 28 51 73v583c0 71 -52 126 -119 126c-66 0 -108 -54 -108 -139z" />
    <glyph glyph-name="f_f_i" unicode="ffi" horiz-adv-x="824" 
d="M471 611v-111h140v-12h-140v-410c0 -45 14 -69 51 -73v-5h-152v5c37 4 51 28 51 73v410h-261v-410c0 -45 14 -69 51 -73v-5h-152v5c37 4 51 28 51 73v410h-100v12h100v94c0 130 58 203 161 203c66 0 124 -44 124 -97c0 -20 -13 -36 -34 -36c-19 0 -34 15 -34 34
s15 34 34 34c-16 35 -50 55 -93 55c-74 0 -108 -56 -108 -176v-111h261v94c0 125 72 203 186 203c82 0 146 -58 146 -132c0 -20 -15 -35 -35 -35s-35 15 -35 35c0 25 19 35 41 35c-15 52 -61 87 -121 87c-88 0 -132 -59 -132 -176zM652 470l96 35v-427c0 -45 14 -69 51 -73
v-5h-152v5c37 4 51 28 51 73v340c0 35 -11 47 -46 47v5z" />
    <glyph glyph-name="f_f_l" unicode="ffl" horiz-adv-x="824" 
d="M361 664c-19 0 -34 15 -34 34s15 34 34 34c-16 35 -50 55 -93 55c-74 0 -108 -56 -108 -176v-111h261v94c0 130 58 203 161 203c34 0 62 -9 88 -28l78 28v-719c0 -45 14 -69 51 -73v-5h-152v5c37 4 51 28 51 73v583c0 68 -55 126 -119 126c-66 0 -108 -54 -108 -139v-148
h140v-12h-140v-410c0 -45 14 -69 51 -73v-5h-152v5c37 4 51 28 51 73v410h-261v-410c0 -45 14 -69 51 -73v-5h-152v5c37 4 51 28 51 73v410h-100v12h100v94c0 130 58 203 161 203c88 0 123 -62 124 -97c0 -20 -13 -36 -34 -36z" />
    <glyph glyph-name=".notdef" horiz-adv-x="500" 
 />
    <glyph glyph-name="uni0000" horiz-adv-x="0" 
 />
    <glyph glyph-name="uni0000" horiz-adv-x="0" 
 />
    <glyph glyph-name="uni000D" unicode="&#xd;" horiz-adv-x="250" 
 />
    <glyph glyph-name="space" unicode=" " horiz-adv-x="260" 
 />
    <glyph glyph-name="exclam" unicode="!" horiz-adv-x="190" 
d="M100 119h-10c0 75 -30 402 -30 517c0 46 13 74 35 74s35 -28 35 -74c0 -115 -30 -442 -30 -517zM60 25c0 20 15 35 35 35s35 -15 35 -35s-15 -35 -35 -35s-35 15 -35 35z" />
    <glyph glyph-name="quotedbl" unicode="&#x22;" horiz-adv-x="242" 
d="M75 714c16 0 25 -13 25 -35c0 -32 -14 -133 -22 -188h-6c-8 55 -22 156 -22 188c0 22 10 35 25 35zM167 714c16 0 25 -13 25 -35c0 -32 -14 -133 -22 -188h-6c-8 55 -22 156 -22 188c0 22 10 35 25 35z" />
    <glyph glyph-name="numbersign" unicode="#" horiz-adv-x="699" 
d="M163 0h-14l48 225h-167v12h169l49 226h-170v12h172l48 225h14l-48 -225h222l48 225h14l-48 -225h169v-12h-171l-49 -226h172v-12h-174l-48 -225h-14l48 225h-222zM262 463l-49 -226h222l49 226h-222z" />
    <glyph glyph-name="dollar" unicode="$" horiz-adv-x="524" 
d="M252 -94h-14v81c-67 5 -115 27 -160 69l-44 -56h-4v205h8c29 -145 117 -196 200 -205v343c-100 45 -198 93 -198 211c0 106 90 159 198 160v80h14v-80c73 -2 128 -26 166 -62l34 43h4v-165h-8c-26 127 -110 169 -196 172v-302c114 -50 242 -96 242 -239
c0 -120 -109 -175 -225 -175h-17v-80zM81 576c0 -89 73 -132 157 -170v296c-93 -1 -157 -55 -157 -126zM252 337v-339h14c105 0 187 54 187 139c0 111 -100 155 -201 200z" />
    <glyph glyph-name="percent" unicode="%" horiz-adv-x="803" 
d="M192 -14l403 728h16l-403 -728h-16zM190 346c-85 0 -150 80 -150 184s65 184 150 184s150 -80 150 -184s-65 -184 -150 -184zM190 704c-65 0 -110 -71 -110 -174s45 -174 110 -174s110 71 110 174c0 102 -45 174 -110 174zM613 -14c-85 0 -150 80 -150 184
s65 184 150 184s150 -80 150 -184s-65 -184 -150 -184zM613 344c-65 0 -110 -71 -110 -174s45 -174 110 -174s110 71 110 174c0 102 -45 174 -110 174z" />
    <glyph glyph-name="ampersand" unicode="&#x26;" horiz-adv-x="769" 
d="M682 447c0 9 8 16 17 16c13 0 20 -11 20 -28c0 -78 -55 -93 -116 -93c-13 0 -27 1 -40 2c-1 -87 -25 -163 -65 -223l10 -13c63 -77 111 -110 161 -110c32 0 54 13 64 35c-2 -1 -5 -1 -8 -1c-19 0 -34 15 -34 34s15 34 34 34c21 0 34 -16 34 -36c-1 -47 -39 -78 -94 -78
c-77 0 -133 27 -198 96c-55 -60 -132 -96 -219 -96c-120 0 -198 72 -198 178c0 79 60 157 167 220l-22 26c-48 59 -72 115 -72 169c0 87 74 135 161 135c85 0 149 -46 149 -122c0 -65 -58 -133 -165 -192l217 -264c40 56 65 129 66 209c-23 2 -45 4 -62 4
c-34 0 -51 -12 -55 -31c2 2 7 4 11 4c9 0 17 -7 17 -16s-8 -16 -17 -16c-12 0 -20 9 -20 22c0 122 271 20 287 125c-3 -4 -8 -6 -13 -6c-9 0 -17 7 -17 16zM242 431l17 -21c79 46 129 115 129 182c0 72 -47 110 -112 110c-64 0 -112 -40 -112 -98c0 -59 21 -103 78 -173z
M436 117l-212 257c-82 -50 -127 -119 -127 -197c0 -95 67 -163 159 -163c76 0 145 31 197 83c-5 6 -11 13 -17 20z" />
    <glyph glyph-name="quotesingle" unicode="'" horiz-adv-x="150" 
d="M75 714c16 0 25 -13 25 -35c0 -32 -14 -133 -22 -188h-6c-8 55 -22 156 -22 188c0 22 10 35 25 35z" />
    <glyph glyph-name="parenleft" unicode="(" horiz-adv-x="237" 
d="M224 729l3 -5c-99 -80 -157 -217 -157 -374s58 -296 157 -374l-3 -5c-115 74 -184 216 -184 379c0 165 68 306 184 379z" />
    <glyph glyph-name="parenright" unicode=")" horiz-adv-x="237" 
d="M10 724l3 5c116 -73 184 -214 184 -379c0 -163 -69 -305 -184 -379l-3 5c99 78 157 217 157 374s-58 294 -157 374z" />
    <glyph glyph-name="asterisk" unicode="*" horiz-adv-x="452" 
d="M225 511c-39 -38 -87 -77 -116 -93c-26 -15 -49 -17 -56 -4c-8 13 5 32 31 47c29 17 88 39 140 53c-53 14 -111 36 -140 53c-26 15 -39 34 -31 47c7 13 30 11 56 -4c29 -16 78 -57 116 -95c-14 52 -24 115 -24 148c0 30 10 51 25 51s25 -21 25 -51
c0 -33 -11 -96 -25 -148c38 38 88 79 117 95c26 15 49 17 56 4c8 -13 -5 -32 -31 -47c-29 -17 -89 -38 -140 -52c52 -14 111 -37 140 -54c26 -15 39 -34 31 -47c-7 -13 -30 -11 -56 4c-29 16 -78 57 -116 95c14 -52 24 -115 24 -148c0 -30 -10 -51 -25 -51s-25 21 -25 51
c0 32 10 94 24 146z" />
    <glyph glyph-name="plus" unicode="+" horiz-adv-x="530" 
d="M50 348v12h208v210h14v-210h208v-12h-208v-210h-14v210h-208z" />
    <glyph glyph-name="comma" unicode="," horiz-adv-x="171" 
d="M84 -10c-19 0 -34 15 -34 35s15 35 35 35c22 0 36 -16 36 -40c0 -32 -25 -74 -60 -100l-4 4c21 20 37 45 37 58c0 6 -3 8 -10 8z" />
    <glyph glyph-name="hyphen" unicode="-" horiz-adv-x="350" 
d="M50 240v40h250v-40h-250z" />
    <glyph glyph-name="period" unicode="." horiz-adv-x="170" 
d="M50 25c0 20 15 35 35 35s35 -15 35 -35s-15 -35 -35 -35s-35 15 -35 35z" />
    <glyph glyph-name="slash" unicode="/" horiz-adv-x="327" 
d="M20 -14l272 728h15l-272 -728h-15z" />
    <glyph glyph-name="zero" unicode="0" horiz-adv-x="626" 
d="M313 -14c-160 0 -278 139 -278 364s118 364 278 364s278 -139 278 -364s-118 -364 -278 -364zM313 702c-129 0 -220 -132 -220 -352s91 -352 220 -352s220 132 220 352s-91 352 -220 352z" />
    <glyph glyph-name="one" unicode="1" horiz-adv-x="249" 
d="M35 661v6l118 45v-634c0 -45 19 -69 56 -73v-5h-164v5c37 4 56 28 56 73v527c0 39 -20 56 -66 56z" />
    <glyph glyph-name="two" unicode="2" horiz-adv-x="503" 
d="M235 714c142 0 230 -68 230 -178c0 -250 -383 -334 -415 -491h306c47 0 79 33 100 104h12l-29 -149h-404v17c0 192 372 269 372 519c0 97 -72 166 -172 166c-90 0 -150 -42 -163 -115c2 2 9 3 13 3c19 0 34 -15 34 -34s-15 -34 -34 -34c-26 0 -40 20 -40 48
c0 81 83 144 190 144z" />
    <glyph glyph-name="three" unicode="3" horiz-adv-x="524" 
d="M247 702c-90 0 -150 -42 -163 -115c2 2 9 3 13 3c19 0 34 -15 34 -34s-15 -34 -34 -34c-26 0 -40 20 -40 48c0 81 83 144 190 144c131 0 211 -71 211 -173c0 -85 -61 -150 -164 -166v-4c114 -11 190 -85 190 -186c0 -115 -99 -199 -236 -199c-119 0 -201 64 -201 158
c0 33 15 58 42 58c19 0 34 -15 34 -34s-15 -34 -34 -34c-7 0 -14 3 -16 5c0 -84 66 -140 164 -140c109 0 189 76 189 180c0 108 -77 185 -183 185c-5 0 -8 3 -8 8s3 8 8 8c96 0 161 63 161 157c0 96 -59 165 -157 165z" />
    <glyph glyph-name="four" unicode="4" horiz-adv-x="503" 
d="M395 177h-19v-99c0 -45 19 -69 56 -73v-5h-164v5c37 4 56 28 56 73v99h-304v8c183 201 260 360 260 515h52c0 -138 -96 -312 -288 -509h280v107c0 29 -8 45 -26 52v4l78 39v-202h19c45 0 69 19 73 56h5v-126h-5c-4 37 -28 56 -73 56z" />
    <glyph glyph-name="five" unicode="5" horiz-adv-x="533" 
d="M425 648h-295l-44 -246c46 31 100 47 156 47c144 0 241 -92 241 -229s-103 -234 -248 -234c-117 0 -200 70 -200 168c0 28 14 48 40 48c19 0 34 -15 34 -34s-15 -34 -34 -34c-4 0 -11 1 -13 3c0 -79 74 -139 170 -139c114 0 194 87 194 210c0 136 -77 218 -205 218
c-50 0 -101 -15 -145 -46h-8l57 320h238c51 0 67 5 88 26h6l-15 -64c-2 -8 -9 -14 -17 -14z" />
    <glyph glyph-name="six" unicode="6" horiz-adv-x="509" 
d="M474 223c0 -131 -97 -237 -217 -237c-136 0 -222 121 -222 313c0 225 149 415 345 415v-10c-168 0 -282 -182 -287 -396c28 88 97 141 184 141c116 0 197 -92 197 -226zM95 234c13 -146 73 -236 162 -236c92 0 159 93 159 219c0 132 -58 220 -147 220
c-93 0 -168 -89 -174 -203z" />
    <glyph glyph-name="seven" unicode="7" horiz-adv-x="508" 
d="M35 600l24 100h419v-8c-165 -274 -232 -472 -232 -692h-58c0 181 90 415 248 648h-311c-41 0 -63 -12 -84 -48h-6z" />
    <glyph glyph-name="eight" unicode="8" horiz-adv-x="499" 
d="M210 386c-100 64 -140 115 -140 182c0 83 75 146 180 146c107 0 176 -55 176 -141c0 -59 -48 -117 -144 -168c139 -83 187 -144 187 -237c0 -103 -95 -182 -221 -182c-130 0 -218 69 -218 172c0 93 60 169 180 228zM238 431l30 -18c76 44 116 98 116 157
c0 74 -59 132 -136 132c-79 0 -133 -48 -133 -118c0 -58 34 -100 123 -153zM262 353l-38 24c-97 -51 -151 -129 -151 -219c0 -96 69 -160 175 -160c97 0 167 64 167 151c0 77 -42 134 -153 204z" />
    <glyph glyph-name="nine" unicode="9" horiz-adv-x="509" 
d="M35 477c0 131 97 237 217 237c136 0 222 -121 222 -313c0 -225 -149 -415 -345 -415v10c168 0 282 182 287 396c-28 -88 -97 -141 -184 -141c-116 0 -197 92 -197 226zM414 466c-13 146 -73 236 -162 236c-92 0 -159 -93 -159 -219c0 -132 58 -220 147 -220
c93 0 168 89 174 203z" />
    <glyph glyph-name="colon" unicode=":" horiz-adv-x="170" 
d="M50 475c0 20 15 35 35 35s35 -15 35 -35s-15 -35 -35 -35s-35 15 -35 35zM50 25c0 20 15 35 35 35s35 -15 35 -35s-15 -35 -35 -35s-35 15 -35 35z" />
    <glyph glyph-name="semicolon" unicode=";" horiz-adv-x="171" 
d="M50 475c0 20 15 35 35 35s35 -15 35 -35s-15 -35 -35 -35s-35 15 -35 35zM84 -10c-19 0 -34 15 -34 35s15 35 35 35c22 0 36 -16 36 -40c0 -32 -25 -74 -60 -100l-4 4c21 20 37 45 37 58c0 6 -3 8 -10 8z" />
    <glyph glyph-name="less" unicode="&#x3c;" horiz-adv-x="500" 
d="M460 552l-397 -202l397 -202v-16l-420 214v8l420 214v-16z" />
    <glyph glyph-name="equal" unicode="=" horiz-adv-x="540" 
d="M490 444h-440v12h440v-12zM50 244v12h440v-12h-440z" />
    <glyph glyph-name="greater" unicode="&#x3e;" horiz-adv-x="500" 
d="M40 148l397 202l-397 202v16l420 -214v-8l-420 -214v16z" />
    <glyph glyph-name="question" unicode="?" horiz-adv-x="515" 
d="M85 586c2 2 9 4 15 4c19 0 34 -15 34 -34s-15 -34 -34 -34c-26 0 -40 20 -40 48c0 82 80 144 188 144c122 0 207 -71 207 -172c0 -188 -225 -242 -225 -423h-10c0 192 177 254 177 423c0 99 -58 160 -152 160c-80 0 -148 -49 -160 -116zM190 25c0 20 15 35 35 35
s35 -15 35 -35s-15 -35 -35 -35s-35 15 -35 35z" />
    <glyph glyph-name="at" unicode="@" horiz-adv-x="800" 
d="M338 457c0 -19 -15 -34 -34 -34s-34 15 -34 34c0 51 61 93 134 93c90 0 154 -55 154 -132v-217c0 -33 14 -51 40 -51c80 0 137 88 137 211c0 212 -133 341 -335 341s-335 -140 -335 -352c0 -215 130 -351 335 -351c74 0 140 16 198 46l4 -7c-60 -35 -127 -52 -202 -52
c-218 0 -365 147 -365 364c0 225 155 364 365 364s365 -130 365 -355c0 -127 -76 -222 -178 -222c-48 0 -79 29 -79 74v95c-42 -121 -112 -167 -177 -167c-53 0 -94 34 -94 84c0 142 271 124 271 218c0 57 -40 97 -106 97c-47 0 -86 -21 -104 -49h2l3 1c20 0 35 -14 35 -33z
M508 334v73c-62 -76 -219 -58 -219 -180c0 -45 24 -71 60 -71c61 0 125 72 159 178z" />
    <glyph glyph-name="A" unicode="A" horiz-adv-x="657" 
d="M152 223l-56 -145c-14 -37 -13 -67 28 -73v-5h-114v5c36 8 56 34 71 73l221 575l-18 47h53l239 -622c15 -39 35 -65 71 -73v-5h-152v5c41 6 42 36 28 73l-74 192c-21 -30 -52 -46 -84 -46c-58 0 -87 34 -132 34c-24 0 -55 -5 -81 -35zM369 246c23 0 53 5 78 31l-138 357
l-150 -391c21 24 50 37 78 37c58 0 87 -34 132 -34z" />
    <glyph glyph-name="B" unicode="B" horiz-adv-x="587" 
d="M478 551c0 -73 -49 -123 -130 -140c132 -15 204 -88 204 -204c0 -130 -91 -207 -256 -207h-256v5c37 4 51 28 51 73v544c0 45 -14 69 -51 73v5h243c120 0 195 -58 195 -149zM143 688v-274h125c110 0 158 56 158 137s-48 137 -158 137h-125zM143 402v-390h137
c145 0 214 75 214 195s-69 195 -214 195h-137z" />
    <glyph glyph-name="C" unicode="C" horiz-adv-x="694" 
d="M375 702c-130 0 -282 -110 -282 -352c0 -226 137 -352 307 -352c110 0 216 59 260 167h4l-32 -104c-58 -44 -142 -75 -242 -75c-210 0 -355 139 -355 364c0 217 140 364 354 364c69 0 142 -17 197 -64l35 45h4v-175h-8c-34 136 -133 182 -242 182z" />
    <glyph glyph-name="D" unicode="D" horiz-adv-x="673" 
d="M91 78v544c0 45 -14 69 -51 73v5h243c210 0 355 -140 355 -350s-145 -350 -355 -350h-243v5c37 4 51 28 51 73zM143 688v-676h125c180 0 312 133 312 338s-132 338 -312 338h-125z" />
    <glyph glyph-name="E" unicode="E" horiz-adv-x="535" 
d="M91 379v243c0 45 -13 69 -50 73v5h421l25 -113h-8c-29 78 -66 101 -146 101h-190v-302c67 -4 142 -43 203 -43c29 0 54 11 74 35l5 -3c-22 -41 -54 -54 -92 -54c-62 0 -130 33 -190 41v-350h165c120 0 152 22 194 123h8l-30 -135h-440v5c37 4 51 28 51 73v282
c-17 -5 -32 -15 -45 -31l-5 3c13 25 30 39 50 47z" />
    <glyph glyph-name="F" unicode="F" horiz-adv-x="495" 
d="M215 381c50 0 96 -37 144 -37c22 0 43 9 61 32l5 -3c-18 -33 -41 -52 -77 -52c-50 0 -96 37 -144 37c-22 0 -43 -9 -61 -32v-248c0 -45 14 -69 51 -73v-5h-154v5c37 4 51 28 51 73v544c0 45 -14 69 -51 73v5h405l25 -113h-8c-29 78 -66 101 -146 101h-173v-350
c17 28 39 43 72 43z" />
    <glyph glyph-name="G" unicode="G" horiz-adv-x="716" 
d="M396 714c69 0 145 -17 200 -64l35 45h4v-175h-8c-32 131 -136 182 -231 182c-138 0 -303 -110 -303 -352c0 -220 137 -352 307 -352c83 0 183 44 183 119v85c0 45 -14 69 -51 73v5h154v-5c-37 -4 -51 -28 -51 -73v-130c-29 -24 -114 -86 -235 -86
c-210 0 -365 139 -365 364c0 253 194 364 361 364z" />
    <glyph glyph-name="H" unicode="H" horiz-adv-x="636" 
d="M402 321c-65 0 -120 43 -170 43c-36 0 -66 -16 -89 -45v-241c0 -45 14 -69 51 -73v-5h-154v5c37 4 51 28 51 73v544c0 45 -13 69 -50 73v5h152v-5c-37 -4 -50 -28 -50 -73v-290c24 35 56 54 91 54c65 0 120 -43 170 -43c36 0 66 16 89 45v234c0 45 -14 69 -51 73v5h154
v-5c-37 -4 -51 -28 -51 -73v-544c0 -45 14 -69 51 -73v-5h-154v5c37 4 51 28 51 73v297c-24 -35 -56 -54 -91 -54z" />
    <glyph glyph-name="I" unicode="I" horiz-adv-x="232" 
d="M91 77v546c0 45 -14 64 -51 73v4h152v-4c-37 -9 -51 -28 -51 -73v-546c0 -45 14 -64 51 -73v-4h-152v4c37 9 51 28 51 73z" />
    <glyph glyph-name="J" unicode="J" horiz-adv-x="436" 
d="M101 123c0 -23 -17 -35 -42 -34c3 -49 54 -91 112 -91c73 0 123 49 123 159v465c0 45 -13 69 -50 73v5h152v-5c-37 -4 -50 -28 -50 -73v-436c0 -145 -86 -200 -175 -200c-74 0 -141 43 -141 128c0 23 13 43 37 43c20 0 34 -14 34 -34z" />
    <glyph glyph-name="K" unicode="K" horiz-adv-x="605" 
d="M457 630l-230 -215c202 -16 229 -387 388 -410v-5c-247 0 -238 401 -400 404l-72 -67v-259c0 -45 14 -69 51 -73v-5h-154v5c37 4 51 28 51 73v544c0 45 -13 69 -50 73v5h152v-5c-37 -4 -50 -28 -50 -73v-268l296 279c33 32 28 57 3 62v5h125v-5c-44 -5 -75 -32 -110 -65z
" />
    <glyph glyph-name="L" unicode="L" horiz-adv-x="505" 
d="M40 695v5h154v-5c-37 -4 -51 -28 -51 -73v-610h140c120 0 152 22 194 123h8l-30 -135h-415v5c37 4 51 28 51 73v544c0 45 -14 69 -51 73z" />
    <glyph glyph-name="M" unicode="M" horiz-adv-x="871" 
d="M97 700h99l240 -623l241 623h97v-4c-37 -9 -55 -28 -51 -73l53 -546c4 -45 23 -64 60 -73v-4h-152v4c37 9 46 28 42 73l-55 567l-249 -644h-10l-248 643l-54 -566c-4 -45 5 -64 42 -73v-4h-117v4c37 9 56 28 60 73l53 546c4 45 -14 64 -51 73v4z" />
    <glyph glyph-name="N" unicode="N" horiz-adv-x="636" 
d="M545 0h-14l-426 644v-567c0 -45 14 -64 51 -73v-4h-116v4c37 9 51 28 51 73v546c0 45 -14 64 -51 73v4h88l403 -609v532c0 45 -14 64 -51 73v4h116v-4c-37 -9 -51 -28 -51 -73v-623z" />
    <glyph glyph-name="O" unicode="O" horiz-adv-x="800" 
d="M35 350c0 225 155 364 365 364s365 -139 365 -364s-155 -364 -365 -364s-365 139 -365 364zM93 350c0 -220 137 -352 307 -352s307 132 307 352s-137 352 -307 352s-307 -132 -307 -352z" />
    <glyph glyph-name="P" unicode="P" horiz-adv-x="601" 
d="M40 700h275c160 0 256 -81 256 -218s-95 -218 -256 -218h-172v-186c0 -45 14 -69 51 -73v-5h-154v5c37 4 51 28 51 73v544c0 45 -14 69 -51 73v5zM143 688v-412h156c136 0 214 75 214 206c0 130 -79 206 -214 206h-156z" />
    <glyph glyph-name="Q" unicode="Q" horiz-adv-x="800" 
d="M35 350c0 225 155 364 365 364s365 -139 365 -364c0 -222 -150 -360 -355 -364c203 -45 369 -294 563 -294c42 0 96 17 112 70c-2 -1 -4 -1 -7 -1c-19 0 -34 15 -34 34s15 34 34 34s34 -15 34 -34c0 -70 -59 -115 -139 -115c-287 0 -460 303 -625 303
c-57 0 -99 -32 -116 -68c21 0 38 -11 38 -34c0 -19 -15 -34 -34 -34c-21 0 -34 16 -34 36c1 48 45 101 125 109c-172 29 -292 160 -292 358zM93 350c0 -220 137 -352 307 -352s307 132 307 352s-137 352 -307 352s-307 -132 -307 -352z" />
    <glyph glyph-name="R" unicode="R" horiz-adv-x="546" 
d="M250 376h-107v-298c0 -45 14 -69 51 -73v-5h-154v5c37 4 51 28 51 73v544c0 45 -14 69 -51 73v5h230c120 0 203 -63 203 -164c0 -93 -76 -152 -183 -159v-2c123 -48 147 -342 276 -367v-8c-225 0 -205 376 -316 376zM143 688v-300h120c110 0 158 61 158 149
c0 90 -48 151 -158 151h-120z" />
    <glyph glyph-name="S" unicode="S" horiz-adv-x="524" 
d="M81 576c0 -213 413 -159 413 -415c0 -120 -109 -175 -225 -175c-83 0 -139 21 -191 70l-44 -56h-4v205h8c32 -161 138 -207 228 -207c105 0 187 54 187 139c0 226 -413 174 -413 417c0 107 92 160 202 160c78 0 136 -24 176 -62l34 43h4v-165h-8
c-27 132 -117 172 -207 172c-95 0 -160 -54 -160 -126z" />
    <glyph glyph-name="T" unicode="T" horiz-adv-x="580" 
d="M406 688h-90v-610c0 -45 14 -69 51 -73v-5h-154v5c37 4 51 28 51 73v610h-90c-80 0 -117 -23 -146 -101h-8l25 113h490l25 -113h-8c-29 78 -66 101 -146 101z" />
    <glyph glyph-name="U" unicode="U" horiz-adv-x="635" 
d="M544 622v-405c0 -150 -92 -231 -223 -231s-231 66 -231 231v405c0 45 -13 69 -50 73v5h152v-5c-37 -4 -50 -28 -50 -73v-410c0 -135 81 -208 189 -208c110 0 199 78 199 208v410c0 45 -14 69 -51 73v5h116v-5c-37 -4 -51 -28 -51 -73z" />
    <glyph glyph-name="V" unicode="V" horiz-adv-x="627" 
d="M546 622l-225 -636h-15l-225 636c-17 49 -34 67 -71 73v5h162v-5c-37 -4 -51 -30 -36 -73l199 -565l196 565c15 42 2 69 -35 73v5h121v-5c-37 -6 -54 -25 -71 -73z" />
    <glyph glyph-name="W" unicode="W" horiz-adv-x="1028" 
d="M288 -14l-207 636c-16 49 -34 67 -71 73v5h161v-5c-37 -4 -49 -30 -35 -73l180 -563l211 641h15l203 -635l187 557c14 42 2 69 -35 73v5h121v-5c-37 -6 -55 -25 -71 -73l-217 -636h-12l-204 630l-211 -630h-15z" />
    <glyph glyph-name="X" unicode="X" horiz-adv-x="615" 
d="M448 78l-160 255l-159 -255c-24 -38 -27 -64 8 -73v-5h-123v5c51 10 72 31 98 73l168 269l-172 275c-26 42 -47 63 -98 73v5h165v-5c-35 -9 -32 -35 -8 -73l146 -234l147 234c24 38 27 64 -8 73v5h123v-5c-51 -10 -72 -31 -98 -73l-155 -248l185 -296
c26 -42 47 -63 98 -73v-5h-165v5c35 9 32 35 8 73z" />
    <glyph glyph-name="Y" unicode="Y" horiz-adv-x="610" 
d="M384 0h-154v5c37 4 51 28 51 73v244l-173 300c-24 42 -47 63 -98 73v5h166v-5c-35 -9 -30 -35 -8 -73l158 -277l159 277c22 38 27 64 -8 73v5h123v-5c-51 -10 -74 -31 -98 -73l-169 -293v-251c0 -45 14 -69 51 -73v-5z" />
    <glyph glyph-name="Z" unicode="Z" horiz-adv-x="557" 
d="M85 700h442l-430 -688h228c120 0 152 22 194 123h8l-30 -135h-467l430 688h-246c-80 0 -117 -23 -146 -101h-8z" />
    <glyph glyph-name="bracketleft" unicode="[" horiz-adv-x="215" 
d="M205 -29h-135v758h135v-12h-90v-734h90v-12z" />
    <glyph glyph-name="backslash" unicode="\" horiz-adv-x="327" 
d="M20 714h15l272 -728h-15z" />
    <glyph glyph-name="bracketright" unicode="]" horiz-adv-x="215" 
d="M145 729v-758h-135v12h90v734h-90v12h135z" />
    <glyph glyph-name="asciicircum" unicode="^" horiz-adv-x="476" 
d="M234 700h8l184 -386h-15l-173 363l-173 -363h-15z" />
    <glyph glyph-name="underscore" unicode="_" horiz-adv-x="425" 
d="M425 -135h-425v20h425v-20z" />
    <glyph glyph-name="grave" unicode="`" horiz-adv-x="211" 
d="M100 689l51 -75l-3 -3l-75 50c-9 6 -13 13 -13 20c0 12 8 20 19 20c8 0 15 -4 21 -12z" />
    <glyph glyph-name="a" unicode="a" horiz-adv-x="497" 
d="M138 392c0 -19 -15 -34 -34 -34s-34 15 -34 34c0 65 75 118 167 118c135 0 184 -80 184 -153v-305c0 -35 13 -41 28 -41c11 0 21 4 27 9l3 -3c-11 -14 -29 -27 -51 -27c-25 0 -57 8 -57 68v151c-36 -112 -104 -219 -216 -219c-70 0 -125 37 -125 107
c0 179 341 159 341 277c0 99 -84 126 -134 126c-62 0 -118 -31 -137 -74c21 0 38 -11 38 -34zM371 242v96c-73 -96 -287 -82 -287 -237c0 -60 32 -98 82 -98c96 0 170 122 205 239z" />
    <glyph glyph-name="b" unicode="b" horiz-adv-x="534" 
d="M86 0h-10v710c0 35 -11 47 -46 47v5l96 35v-380c39 48 96 93 173 93c140 0 210 -122 210 -247c0 -150 -80 -273 -235 -273c-82 0 -136 49 -162 108h-4zM293 494c-73 0 -128 -41 -167 -94v-219c0 -86 53 -181 147 -181c131 0 182 137 182 263c0 91 -37 231 -162 231z" />
    <glyph glyph-name="c" unicode="c" horiz-adv-x="483" 
d="M439 382c0 -19 -15 -34 -34 -34s-34 15 -34 34c0 23 18 34 39 34c-23 53 -85 84 -152 84c-105 0 -179 -99 -179 -250c0 -169 91 -241 184 -241c70 0 136 34 181 111l9 -5c-39 -78 -110 -125 -195 -125c-141 0 -233 103 -233 260s97 260 237 260c115 0 177 -68 177 -128z
" />
    <glyph glyph-name="d" unicode="d" horiz-adv-x="533" 
d="M407 58v151c-40 -123 -105 -219 -202 -219c-134 0 -180 117 -180 247c0 150 79 273 234 273c56 0 107 -22 148 -71v271c0 35 -11 47 -46 47v5l96 35v-745c0 -35 13 -41 28 -41c11 0 21 4 27 9l3 -3c-11 -14 -29 -27 -51 -27c-25 0 -57 8 -57 68zM407 244v179
c-32 41 -78 75 -147 75c-131 0 -181 -130 -181 -256c0 -140 52 -240 129 -240c91 0 159 105 199 242z" />
    <glyph glyph-name="e" unicode="e" horiz-adv-x="505" 
d="M466 120l9 -5c-42 -78 -122 -125 -217 -125c-141 0 -233 103 -233 260s92 260 233 260c103 0 179 -54 213 -145l-252 -91c-89 -32 -132 -82 -114 -160c34 -72 96 -105 158 -105c77 0 155 34 203 111zM228 290l181 66c8 3 12 10 9 18c-29 79 -86 126 -160 126
c-107 0 -179 -99 -179 -250c0 -38 5 -71 13 -100c0 71 50 109 136 140z" />
    <glyph glyph-name="f" unicode="f" horiz-adv-x="311" 
d="M361 664c-19 0 -34 15 -34 34s15 34 34 34c-16 35 -50 55 -93 55c-74 0 -108 -56 -108 -176v-111h140v-12h-140v-410c0 -45 14 -69 51 -73v-5h-152v5c37 4 51 28 51 73v410h-100v12h100v94c0 130 58 203 161 203c88 0 123 -62 124 -97c0 -20 -13 -36 -34 -36z" />
    <glyph glyph-name="g" unicode="g" horiz-adv-x="508" 
d="M57 114c0 -139 452 38 452 -210c0 -116 -164 -183 -307 -183c-112 0 -212 41 -212 130c0 51 32 102 103 123l2 -5c-46 -27 -61 -59 -61 -94c0 -87 97 -126 203 -126c125 0 260 55 260 148c0 185 -453 9 -453 210c0 29 16 57 43 84c-27 33 -43 75 -43 124
c0 117 90 195 208 195c76 0 140 -32 176 -86c41 33 73 66 83 101c-6 -7 -15 -11 -25 -11c-19 0 -34 15 -34 34s15 34 34 34c23 0 37 -16 37 -40c0 -45 -36 -87 -88 -129c16 -28 25 -61 25 -98c0 -118 -90 -196 -208 -196c-64 0 -120 23 -158 63c-23 -23 -37 -46 -37 -68z
M97 315c0 -38 7 -71 19 -98c74 61 190 120 278 181c-23 64 -74 102 -142 102c-93 0 -155 -71 -155 -185zM122 206c26 -49 72 -77 130 -77c93 0 155 72 155 186c0 26 -3 49 -9 70c-89 -63 -205 -122 -276 -179z" />
    <glyph glyph-name="h" unicode="h" 
d="M30 762l96 35v-424c24 68 86 137 177 137c120 0 153 -77 153 -137v-321c0 -35 13 -41 28 -41c11 0 21 4 27 9l3 -3c-11 -14 -29 -27 -51 -27c-25 0 -57 8 -57 68v310c0 97 -46 129 -107 129c-100 0 -173 -99 -173 -184v-235c0 -45 14 -69 51 -73v-5h-152v5
c37 4 51 28 51 73v632c0 35 -11 47 -46 47v5z" />
    <glyph glyph-name="i" unicode="i" horiz-adv-x="202" 
d="M61 665c0 20 15 35 35 35s35 -15 35 -35s-15 -35 -35 -35s-35 15 -35 35zM30 470l96 35v-427c0 -45 14 -69 51 -73v-5h-152v5c37 4 51 28 51 73v340c0 35 -11 47 -46 47v5z" />
    <glyph glyph-name="j" unicode="j" horiz-adv-x="197" 
d="M61 665c0 20 15 35 35 35s35 -15 35 -35s-15 -35 -35 -35s-35 15 -35 35zM-40 -176c0 -18 -14 -33 -32 -34c10 -17 28 -30 57 -30c36 0 91 17 91 117v541c0 35 -11 47 -46 47v5l96 35v-566c0 -159 -76 -189 -141 -189c-45 0 -93 23 -93 74c0 19 15 34 34 34
s34 -15 34 -34z" />
    <glyph glyph-name="k" unicode="k" horiz-adv-x="487" 
d="M30 762l96 35v-493l69 81c69 80 116 125 181 125c40 0 81 -21 81 -66c0 -19 -15 -34 -34 -34s-34 15 -34 34c0 15 10 28 24 32c-10 10 -25 14 -39 14c-54 0 -97 -28 -163 -104l-37 -42c204 -9 142 -315 303 -339v-5c-248 0 -148 333 -311 334l-40 -46v-210
c0 -45 14 -69 51 -73v-5h-152v5c37 4 51 28 51 73v632c0 35 -11 47 -46 47v5z" />
    <glyph glyph-name="l" unicode="l" horiz-adv-x="202" 
d="M30 762l96 35v-719c0 -45 14 -69 51 -73v-5h-152v5c37 4 51 28 51 73v632c0 35 -11 47 -46 47v5z" />
    <glyph glyph-name="m" unicode="m" horiz-adv-x="835" 
d="M76 78v340c0 35 -11 47 -46 47v5l96 35v-128c24 67 83 133 170 133c114 0 146 -76 146 -136c23 68 83 136 171 136c115 0 146 -77 146 -137v-321c0 -35 13 -41 28 -41c11 0 21 4 27 9l3 -3c-11 -14 -29 -27 -51 -27c-25 0 -57 8 -57 68v310c0 97 -44 129 -102 129
c-95 0 -165 -99 -165 -184v-235c0 -45 14 -69 51 -73v-5h-152v5c37 4 51 28 51 73v290c0 97 -44 129 -102 129c-88 0 -155 -86 -164 -166v-253c0 -45 14 -69 51 -73v-5h-152v5c37 4 51 28 51 73z" />
    <glyph glyph-name="n" unicode="n" 
d="M76 78v340c0 35 -11 47 -46 47v5l96 35v-132c24 68 86 137 177 137c120 0 153 -77 153 -137v-321c0 -35 13 -41 28 -41c11 0 21 4 27 9l3 -3c-11 -14 -29 -27 -51 -27c-25 0 -57 8 -57 68v310c0 97 -46 129 -107 129c-100 0 -173 -99 -173 -184v-235c0 -45 14 -69 51 -73
v-5h-152v5c37 4 51 28 51 73z" />
    <glyph glyph-name="o" unicode="o" horiz-adv-x="570" 
d="M25 250c0 157 103 260 260 260s260 -103 260 -260s-103 -260 -260 -260s-260 103 -260 260zM79 250c0 -151 82 -250 206 -250s206 99 206 250s-82 250 -206 250s-206 -99 -206 -250z" />
    <glyph glyph-name="p" unicode="p" horiz-adv-x="534" 
d="M30 470l96 35v-88c39 48 96 93 173 93c140 0 210 -122 210 -247c0 -150 -80 -273 -235 -273c-69 0 -119 35 -148 81v-233c0 -45 14 -69 51 -73v-5h-152v5c37 4 51 28 51 73v580c0 35 -11 47 -46 47v5zM293 494c-73 0 -128 -41 -167 -94v-219c0 -86 53 -181 147 -181
c131 0 182 137 182 263c0 91 -37 231 -162 231z" />
    <glyph glyph-name="q" unicode="q" horiz-adv-x="533" 
d="M447 505h10v-667c0 -45 14 -69 51 -73v-5h-152v5c37 4 51 28 51 73v371c-40 -123 -105 -219 -202 -219c-134 0 -180 117 -180 247c0 150 79 273 234 273c56 0 107 -22 148 -71zM407 244v179c-32 41 -78 75 -147 75c-131 0 -181 -130 -181 -256c0 -140 52 -240 129 -240
c91 0 159 105 199 242z" />
    <glyph glyph-name="r" unicode="r" horiz-adv-x="368" 
d="M76 78v340c0 35 -11 47 -46 47v5l96 35v-185c26 121 81 190 157 190c46 0 75 -24 75 -64c0 -19 -15 -34 -34 -34s-34 15 -34 34c0 18 14 33 32 34c-10 10 -26 15 -43 15c-84 0 -153 -122 -153 -270v-147c0 -45 14 -69 51 -73v-5h-152v5c37 4 51 28 51 73z" />
    <glyph glyph-name="s" unicode="s" horiz-adv-x="391" 
d="M68 406c0 -141 298 -102 298 -285c0 -91 -79 -131 -169 -131c-59 0 -103 19 -137 51l-32 -41h-3v148h6c26 -104 97 -148 171 -148c69 0 128 39 128 102c0 149 -298 113 -298 288c0 70 67 120 152 120c56 0 97 -18 126 -46l26 32h3v-124h-6c-26 93 -83 128 -146 128
c-75 0 -119 -42 -119 -94z" />
    <glyph glyph-name="t" unicode="t" horiz-adv-x="255" 
d="M120 606v-106h140v-12h-140v-412c0 -58 37 -65 55 -65s58 9 75 59l5 -1c-13 -53 -51 -79 -96 -79c-50 0 -89 30 -89 98v400h-60v12c63 0 100 39 100 106h10z" />
    <glyph glyph-name="u" unicode="u" 
d="M71 134v284c0 35 -11 47 -46 47v5l96 35v-373c0 -97 47 -129 109 -129c102 0 176 99 176 184v231c0 35 -11 47 -46 47v5l96 35v-453c0 -35 13 -41 28 -41c11 0 21 4 27 9l3 -3c-11 -14 -29 -27 -51 -27c-25 0 -57 8 -57 68v70c-24 -68 -88 -138 -180 -138
c-125 0 -155 74 -155 144z" />
    <glyph glyph-name="v" unicode="v" horiz-adv-x="480" 
d="M118 422l141 -367l141 367c16 42 11 69 -26 73v5h116v-5c-38 -5 -58 -31 -74 -73l-166 -432h-20l-166 432c-16 42 -36 68 -74 73v5h154v-5c-37 -4 -42 -31 -26 -73z" />
    <glyph glyph-name="w" unicode="w" horiz-adv-x="778" 
d="M118 422l128 -363l152 441h20l156 -441l125 363c14 42 11 69 -26 73v5h115v-5c-38 -5 -60 -31 -74 -73l-149 -432h-20l-156 441l-152 -441h-20l-153 432c-15 42 -36 68 -74 73v5h154v-5c-37 -4 -41 -31 -26 -73z" />
    <glyph glyph-name="x" unicode="x" horiz-adv-x="483" 
d="M322 500h136v-5c-38 -7 -63 -23 -97 -73l-102 -152l122 -192c33 -51 59 -66 97 -73v-5h-179v5c37 4 49 31 22 73l-98 154l-104 -154c-28 -42 -15 -69 22 -73v-5h-136v5c38 7 64 22 97 73l113 167l-113 177c-33 51 -59 66 -97 73v5h179v-5c-37 -4 -49 -31 -22 -73l88 -139
l94 139c28 42 15 69 -22 73v5z" />
    <glyph glyph-name="y" unicode="y" horiz-adv-x="481" 
d="M119 422l141 -367l121 315c16 42 31 121 -6 125v5h116v-5c-38 -5 -58 -31 -74 -73l-202 -526c-38 -98 -86 -122 -136 -122c-45 0 -89 24 -89 74c0 19 15 34 34 34s34 -15 34 -34s-15 -33 -33 -34c9 -17 28 -30 58 -30s79 14 115 109l35 92l-168 437c-16 42 -36 68 -74 73
v5h154v-5c-37 -4 -42 -31 -26 -73z" />
    <glyph glyph-name="z" unicode="z" horiz-adv-x="418" 
d="M363 0h-343l310 488h-139c-85 0 -117 -23 -146 -101h-5l25 113h333l-310 -488h106c125 0 152 22 194 123h5z" />
    <glyph glyph-name="braceleft" unicode="{" horiz-adv-x="275" 
d="M66 351v-2c71 -12 109 -82 109 -200v-50c0 -95 21 -123 90 -123v-5c-94 0 -135 44 -135 143v70c0 108 -30 162 -90 162v8c60 0 90 54 90 162v70c0 99 41 143 135 143v-5c-69 0 -90 -28 -90 -123v-50c0 -118 -38 -188 -109 -200z" />
    <glyph glyph-name="bar" unicode="|" horiz-adv-x="194" 
d="M90 -50v800h14v-800h-14z" />
    <glyph glyph-name="braceright" unicode="}" horiz-adv-x="275" 
d="M209 349v2c-71 12 -109 82 -109 200v50c0 95 -21 123 -90 123v5c94 0 135 -44 135 -143v-70c0 -108 30 -162 90 -162v-8c-60 0 -90 -54 -90 -162v-70c0 -99 -41 -143 -135 -143v5c69 0 90 28 90 123v50c0 118 38 188 109 200z" />
    <glyph glyph-name="asciitilde" unicode="~" horiz-adv-x="517" 
d="M472 333l5 -2c-24 -61 -62 -83 -106 -83c-75 0 -166 57 -238 57c-36 0 -67 -13 -88 -57l-5 2c24 61 62 83 106 83c75 0 166 -56 238 -56c37 0 68 13 88 56z" />
    <glyph glyph-name="exclamdown" unicode="&#xa1;" horiz-adv-x="190" 
d="M60 475c0 20 15 35 35 35s35 -15 35 -35s-15 -35 -35 -35s-35 15 -35 35zM90 381h10c0 -75 30 -402 30 -517c0 -46 -13 -74 -35 -74s-35 28 -35 74c0 115 30 442 30 517z" />
    <glyph glyph-name="cent" unicode="&#xa2;" horiz-adv-x="483" 
d="M251 510v190h14v-190c113 -1 174 -69 174 -128c0 -19 -15 -34 -34 -34s-34 15 -34 34c0 23 18 34 39 34c-22 51 -81 82 -145 84v-491c69 1 134 35 179 111l9 -5c-38 -76 -106 -122 -188 -125v-165h-14v165c-137 3 -226 106 -226 260c0 153 92 255 226 260zM251 9v491
c-101 -4 -172 -102 -172 -250c0 -162 83 -235 172 -241z" />
    <glyph glyph-name="sterling" unicode="&#xa3;" horiz-adv-x="520" 
d="M106 414v95c0 125 73 205 189 205c96 0 159 -57 159 -131c0 -19 -15 -34 -34 -34s-34 15 -34 34c0 21 16 34 36 34c-17 52 -64 85 -127 85c-85 0 -137 -66 -137 -174v-114h207v-12h-207v-104h207v-12h-207v-101c0 -80 -15 -123 -53 -149l1 -2c18 7 39 11 65 11
c62 0 125 -20 180 -20c75 0 118 27 143 88l6 -1c-19 -88 -61 -126 -139 -126c-65 0 -128 42 -198 42c-41 0 -79 -10 -110 -28l-3 7c41 28 56 67 56 143v136h-76v12h76v104h-76v12h76z" />
    <glyph glyph-name="currency" unicode="&#xa4;" horiz-adv-x="478" 
d="M433 350c0 -55 -18 -101 -50 -134l55 -56l-9 -9l-57 56c-34 -29 -79 -46 -133 -46s-99 17 -133 46l-57 -56l-9 9l55 56c-32 33 -50 79 -50 134s18 101 50 134l-55 56l9 9l57 -56c34 29 79 46 133 46s99 -17 133 -46l57 56l9 -9l-55 -56c32 -33 50 -79 50 -134zM419 350
c0 106 -72 177 -180 177s-180 -71 -180 -177s72 -177 180 -177s180 71 180 177z" />
    <glyph glyph-name="yen" unicode="&#xa5;" horiz-adv-x="610" 
d="M384 0h-154v5c37 4 51 28 51 73v118h-150v12h150v109h-150v12h146l-169 293c-24 42 -47 63 -98 73v5h166v-5c-35 -9 -30 -35 -8 -73l158 -277l159 277c22 38 27 64 -8 73v5h123v-5c-51 -10 -74 -31 -98 -73l-169 -293h150v-12h-150v-109h150v-12h-150v-118
c0 -45 14 -69 51 -73v-5z" />
    <glyph glyph-name="brokenbar" unicode="&#xa6;" horiz-adv-x="194" 
d="M104 750v-350h-14v350h14zM90 -50v350h14v-350h-14z" />
    <glyph glyph-name="section" unicode="&#xa7;" horiz-adv-x="391" 
d="M28 -4h-3v148h6c26 -104 97 -148 171 -148c69 0 128 39 128 102c0 149 -298 113 -298 288c0 41 23 76 62 98c-36 25 -62 58 -62 110c0 70 67 120 152 120c56 0 97 -18 126 -46l26 32h3v-124h-6c-26 93 -83 128 -146 128c-75 0 -119 -42 -119 -94
c0 -141 298 -102 298 -285c0 -43 -19 -78 -53 -101c31 -25 53 -58 53 -107c0 -91 -79 -131 -169 -131c-59 0 -103 19 -137 51zM297 236c21 18 33 42 33 70c0 100 -133 116 -221 169c-26 -17 -41 -43 -41 -73c0 -97 141 -108 229 -166z" />
    <glyph glyph-name="dieresis" unicode="&#xa8;" horiz-adv-x="285" 
d="M50 665c0 20 15 35 35 35s35 -15 35 -35s-15 -35 -35 -35s-35 15 -35 35zM165 665c0 20 15 35 35 35s35 -15 35 -35s-15 -35 -35 -35s-35 15 -35 35z" />
    <glyph glyph-name="copyright" unicode="&#xa9;" horiz-adv-x="900" 
d="M860 350c0 -238 -166 -400 -410 -400s-410 162 -410 400s166 400 410 400s410 -162 410 -400zM846 350c0 232 -159 388 -396 388s-396 -156 -396 -388s159 -388 396 -388s396 156 396 388zM634 482c0 -19 -15 -34 -34 -34s-34 15 -34 34c0 23 18 34 39 34
c-23 53 -85 84 -152 84c-105 0 -179 -99 -179 -250c0 -169 91 -241 184 -241c70 0 136 34 181 111l9 -5c-39 -78 -110 -125 -195 -125c-141 0 -233 103 -233 260s97 260 237 260c115 0 177 -68 177 -128z" />
    <glyph glyph-name="ordfeminine" unicode="&#xaa;" horiz-adv-x="311" 
d="M98 651c0 -11 -8 -19 -18 -19s-18 8 -18 19c0 35 40 63 89 63c60 0 99 -32 99 -82v-164c0 -15 5 -22 15 -22c6 0 11 2 14 5l2 -2c-7 -9 -18 -14 -27 -14c-21 0 -32 12 -32 36v82c-25 -75 -66 -118 -115 -118c-37 0 -67 20 -67 57c0 96 182 86 182 149c0 39 -30 67 -71 67
c-34 0 -63 -17 -73 -39c11 0 20 -6 20 -18zM222 570v52c-39 -52 -152 -50 -152 -127c0 -32 15 -50 40 -50c44 0 89 51 112 125z" />
    <glyph glyph-name="guillemotleft" unicode="&#xab;" horiz-adv-x="462" 
d="M50 250l194 188l6 -5l-143 -183l143 -183l-6 -5zM212 250l194 188l6 -5l-143 -183l143 -183l-6 -5z" />
    <glyph glyph-name="logicalnot" unicode="&#xac;" horiz-adv-x="525" 
d="M461 299h-411v12h425v-156h-14v144z" />
    <glyph glyph-name="registered" unicode="&#xae;" horiz-adv-x="502" 
d="M460 545c0 -122 -85 -205 -210 -205s-210 83 -210 205s85 205 210 205s210 -83 210 -205zM448 545c0 116 -81 195 -198 195s-198 -79 -198 -195s81 -195 198 -195s198 79 198 195zM248 556h-44v-109c0 -18 8 -30 21 -32v-4h-68v4c13 2 21 14 21 32v201c0 18 -8 30 -21 32
v4h93c46 0 79 -24 79 -64c0 -36 -29 -61 -70 -64c52 -19 53 -132 104 -141v-4c-87 0 -81 130 -115 145zM204 678v-116h37c43 0 62 24 62 58c0 35 -19 58 -62 58h-37z" />
    <glyph glyph-name="macron" unicode="&#xaf;" horiz-adv-x="525" 
d="M475 702h-425v12h425v-12z" />
    <glyph glyph-name="degree" unicode="&#xb0;" horiz-adv-x="340" 
d="M50 629c0 73 48 121 121 121c71 0 119 -48 119 -121c0 -71 -48 -119 -119 -119c-73 0 -121 48 -121 119zM62 629c0 -64 43 -107 109 -107c64 0 107 43 107 107c0 66 -43 109 -107 109c-66 0 -109 -43 -109 -109z" />
    <glyph glyph-name="plusminus" unicode="&#xb1;" horiz-adv-x="530" 
d="M50 348v12h208v210h14v-210h208v-12h-208v-210h-14v210h-208zM480 30h-430v12h430v-12z" />
    <glyph glyph-name="twosuperior" unicode="&#xb2;" horiz-adv-x="246" 
d="M113 714c54 0 92 -30 92 -72c0 -97 -151 -128 -163 -189h120c19 0 31 12 40 40h4l-11 -58h-160v7c0 75 142 103 142 200c0 40 -26 66 -64 66c-33 0 -58 -17 -64 -45c1 1 4 2 6 2c8 0 13 -5 13 -13c0 -7 -6 -13 -13 -13c-10 0 -16 7 -16 18c0 31 34 57 74 57z" />
    <glyph glyph-name="threesuperior" unicode="&#xb3;" horiz-adv-x="245" 
d="M110 708c-33 0 -56 -17 -62 -45c1 1 4 2 6 2c8 0 13 -5 13 -13c0 -7 -6 -13 -13 -13c-10 0 -16 7 -16 18c0 31 32 57 72 57c50 0 84 -27 84 -66c0 -33 -25 -58 -64 -64v-1c45 -5 75 -35 75 -73c0 -45 -41 -79 -93 -79c-46 0 -77 25 -77 61c0 12 6 22 16 22
c7 0 13 -6 13 -13c0 -8 -6 -13 -13 -13c-3 0 -5 1 -6 2c0 -32 24 -52 63 -52c41 0 69 29 69 71s-27 71 -67 71c-2 0 -3 1 -3 3s1 3 3 3c37 0 60 24 60 60c0 38 -23 62 -60 62z" />
    <glyph glyph-name="acute" unicode="&#xb4;" horiz-adv-x="211" 
d="M60 614l51 75c6 8 13 12 21 12c11 0 19 -8 19 -20c0 -7 -4 -14 -13 -20l-75 -50z" />
    <glyph glyph-name="uni00B5" unicode="&#xb5;" horiz-adv-x="623" 
 />
    <glyph glyph-name="paragraph" unicode="&#xb6;" horiz-adv-x="573" 
d="M271 700h262v-5c-37 -4 -51 -28 -51 -73v-747h-14v813h-133v-813h-14v415h-50c-129 0 -211 81 -211 206c0 124 83 204 211 204z" />
    <glyph glyph-name="periodcentered" unicode="&#xb7;" horiz-adv-x="190" 
d="M60 350c0 20 15 35 35 35s35 -15 35 -35s-15 -35 -35 -35s-35 15 -35 35z" />
    <glyph glyph-name="cedilla" unicode="&#xb8;" horiz-adv-x="233" 
d="M142 -2h5l-10 -17c-4 -7 -6 -13 -6 -19c0 -31 52 -39 52 -82c0 -38 -31 -55 -64 -55c-25 0 -53 13 -69 42l4 4c13 -11 29 -18 43 -18c27 0 41 10 41 34c0 27 -20 39 -20 61c0 12 2 19 9 29z" />
    <glyph glyph-name="onesuperior" unicode="&#xb9;" horiz-adv-x="160" 
d="M40 690v3l54 21v-245c0 -18 7 -29 21 -31v-3h-71v3c15 2 22 12 22 31v199c0 15 -8 22 -26 22z" />
    <glyph glyph-name="ordmasculine" unicode="&#xba;" horiz-adv-x="359" 
d="M40 574c0 85 55 140 139 140c85 0 140 -55 140 -140c0 -84 -55 -139 -140 -139c-84 0 -139 55 -139 139zM70 574c0 -81 43 -133 109 -133c67 0 110 52 110 133c0 82 -43 134 -110 134c-66 0 -109 -52 -109 -134z" />
    <glyph glyph-name="guillemotright" unicode="&#xbb;" horiz-adv-x="462" 
d="M212 433l6 5l194 -188l-194 -188l-6 5l143 183zM50 433l6 5l194 -188l-194 -188l-6 5l143 183z" />
    <glyph glyph-name="onequarter" unicode="&#xbc;" 
d="M54 -14l403 728h16l-403 -728h-16zM40 690v3l54 21v-245c0 -18 7 -29 21 -31v-3h-71v3c15 2 22 12 22 31v199c0 15 -8 22 -26 22zM460 68h-7v-36c0 -18 7 -27 21 -29v-3h-70v3c14 2 21 11 21 29v36h-124v4c67 73 97 136 97 201h25c0 -55 -39 -123 -113 -199h115v43
c0 11 -4 17 -14 18v2l42 16v-79h7c18 0 27 8 29 22h3v-50h-3c-2 14 -11 22 -29 22z" />
    <glyph glyph-name="onehalf" unicode="&#xbd;" horiz-adv-x="562" 
d="M54 -14l403 728h16l-403 -728h-16zM40 690v3l54 21v-245c0 -18 7 -29 21 -31v-3h-71v3c15 2 22 12 22 31v199c0 15 -8 22 -26 22zM429 279c54 0 92 -30 92 -72c0 -97 -151 -128 -163 -189h120c19 0 31 12 40 40h4l-11 -58h-160v7c0 75 142 103 142 200
c0 40 -26 66 -64 66c-33 0 -58 -17 -64 -45c1 1 4 2 6 2c8 0 13 -5 13 -13c0 -7 -6 -13 -13 -13c-10 0 -16 7 -16 18c0 31 34 57 74 57z" />
    <glyph glyph-name="threequarters" unicode="&#xbe;" 
d="M110 708c-33 0 -56 -17 -62 -45c1 1 4 2 6 2c8 0 13 -5 13 -13c0 -7 -6 -13 -13 -13c-10 0 -16 7 -16 18c0 31 32 57 72 57c50 0 84 -27 84 -66c0 -33 -25 -58 -64 -64v-1c45 -5 75 -35 75 -73c0 -45 -41 -79 -93 -79c-46 0 -77 25 -77 61c0 12 6 22 16 22
c7 0 13 -6 13 -13c0 -8 -6 -13 -13 -13c-3 0 -5 1 -6 2c0 -32 24 -52 63 -52c41 0 69 29 69 71s-27 71 -67 71c-2 0 -3 1 -3 3s1 3 3 3c37 0 60 24 60 60c0 38 -23 62 -60 62zM54 -14l403 728h16l-403 -728h-16zM460 68h-7v-36c0 -18 7 -27 21 -29v-3h-70v3
c14 2 21 11 21 29v36h-124v4c67 73 97 136 97 201h25c0 -55 -39 -123 -113 -199h115v43c0 11 -4 17 -14 18v2l42 16v-79h7c18 0 27 8 29 22h3v-50h-3c-2 14 -11 22 -29 22z" />
    <glyph glyph-name="questiondown" unicode="&#xbf;" horiz-adv-x="515" 
d="M325 475c0 -20 -15 -35 -35 -35s-35 15 -35 35s15 35 35 35s35 -15 35 -35zM430 -86c-2 -2 -9 -4 -15 -4c-19 0 -34 15 -34 34s15 34 34 34c26 0 40 -20 40 -48c0 -82 -80 -144 -188 -144c-122 0 -207 71 -207 172c0 188 225 242 225 423h10c0 -192 -177 -254 -177 -423
c0 -99 58 -160 152 -160c80 0 148 49 160 116z" />
    <glyph glyph-name="Agrave" unicode="&#xc0;" horiz-adv-x="657" 
d="M273 889l51 -75l-3 -3l-75 50c-9 6 -13 13 -13 20c0 12 8 20 19 20c8 0 15 -4 21 -12zM152 223l-56 -145c-14 -37 -13 -67 28 -73v-5h-114v5c36 8 56 34 71 73l221 575l-18 47h53l239 -622c15 -39 35 -65 71 -73v-5h-152v5c41 6 42 36 28 73l-74 192
c-21 -30 -52 -46 -84 -46c-58 0 -87 34 -132 34c-24 0 -55 -5 -81 -35zM369 246c23 0 53 5 78 31l-138 357l-150 -391c21 24 50 37 78 37c58 0 87 -34 132 -34z" />
    <glyph glyph-name="Aacute" unicode="&#xc1;" horiz-adv-x="657" 
d="M301 814l51 75c6 8 13 12 21 12c11 0 19 -8 19 -20c0 -7 -4 -14 -13 -20l-75 -50zM152 223l-56 -145c-14 -37 -13 -67 28 -73v-5h-114v5c36 8 56 34 71 73l221 575l-18 47h53l239 -622c15 -39 35 -65 71 -73v-5h-152v5c41 6 42 36 28 73l-74 192c-21 -30 -52 -46 -84 -46
c-58 0 -87 34 -132 34c-24 0 -55 -5 -81 -35zM369 246c23 0 53 5 78 31l-138 357l-150 -391c21 24 50 37 78 37c58 0 87 -34 132 -34z" />
    <glyph glyph-name="Acircumflex" unicode="&#xc2;" horiz-adv-x="657" 
d="M457 796l-128 88l-128 -88l-4 4l132 136l132 -136zM152 223l-56 -145c-14 -37 -13 -67 28 -73v-5h-114v5c36 8 56 34 71 73l221 575l-18 47h53l239 -622c15 -39 35 -65 71 -73v-5h-152v5c41 6 42 36 28 73l-74 192c-21 -30 -52 -46 -84 -46c-58 0 -87 34 -132 34
c-24 0 -55 -5 -81 -35zM369 246c23 0 53 5 78 31l-138 357l-150 -391c21 24 50 37 78 37c58 0 87 -34 132 -34z" />
    <glyph glyph-name="Atilde" unicode="&#xc3;" horiz-adv-x="657" 
d="M172 828l-5 2c19 51 46 75 82 75c57 0 118 -52 166 -52c26 0 50 12 70 50l5 -2c-22 -58 -51 -75 -82 -75c-57 0 -118 52 -166 52c-30 0 -52 -16 -70 -50zM152 223l-56 -145c-14 -37 -13 -67 28 -73v-5h-114v5c36 8 56 34 71 73l221 575l-18 47h53l239 -622
c15 -39 35 -65 71 -73v-5h-152v5c41 6 42 36 28 73l-74 192c-21 -30 -52 -46 -84 -46c-58 0 -87 34 -132 34c-24 0 -55 -5 -81 -35zM369 246c23 0 53 5 78 31l-138 357l-150 -391c21 24 50 37 78 37c58 0 87 -34 132 -34z" />
    <glyph glyph-name="Adieresis" unicode="&#xc4;" horiz-adv-x="657" 
d="M236 865c0 20 15 35 35 35s35 -15 35 -35s-15 -35 -35 -35s-35 15 -35 35zM351 865c0 20 15 35 35 35s35 -15 35 -35s-15 -35 -35 -35s-35 15 -35 35zM152 223l-56 -145c-14 -37 -13 -67 28 -73v-5h-114v5c36 8 56 34 71 73l221 575l-18 47h53l239 -622
c15 -39 35 -65 71 -73v-5h-152v5c41 6 42 36 28 73l-74 192c-21 -30 -52 -46 -84 -46c-58 0 -87 34 -132 34c-24 0 -55 -5 -81 -35zM369 246c23 0 53 5 78 31l-138 357l-150 -391c21 24 50 37 78 37c58 0 87 -34 132 -34z" />
    <glyph glyph-name="Aring" unicode="&#xc5;" horiz-adv-x="657" 
d="M257 865c0 41 31 72 72 72s72 -31 72 -72s-31 -72 -72 -72s-72 31 -72 72zM267 865c0 -35 27 -62 62 -62s62 27 62 62s-27 62 -62 62s-62 -27 -62 -62zM152 223l-56 -145c-14 -37 -13 -67 28 -73v-5h-114v5c36 8 56 34 71 73l221 575l-18 47h53l239 -622
c15 -39 35 -65 71 -73v-5h-152v5c41 6 42 36 28 73l-74 192c-21 -30 -52 -46 -84 -46c-58 0 -87 34 -132 34c-24 0 -55 -5 -81 -35zM369 246c23 0 53 5 78 31l-138 357l-150 -391c21 24 50 37 78 37c58 0 87 -34 132 -34z" />
    <glyph glyph-name="AE" unicode="&#xc6;" horiz-adv-x="908" 
d="M264 332l-155 -254c-9 -15 -14 -29 -14 -41c0 -17 10 -29 31 -32v-5h-116v5c29 6 54 28 82 73l362 593c-8 14 -20 22 -40 24v5h421l25 -113h-8c-29 78 -66 101 -146 101h-190v-320c62 -13 124 -27 177 -27c48 0 80 12 100 37l5 -3c-20 -38 -58 -56 -118 -56
c-49 0 -107 12 -164 24v-331h165c120 0 152 22 194 123h8l-30 -135h-440v5c37 4 51 28 51 73v276c-39 8 -76 13 -108 13c-44 0 -75 -12 -92 -35zM464 378v244c0 12 -1 23 -3 32l-177 -290c22 16 51 24 90 24c28 0 58 -4 90 -10z" />
    <glyph glyph-name="Ccedilla" unicode="&#xc7;" horiz-adv-x="694" 
d="M375 702c-130 0 -282 -110 -282 -352c0 -226 137 -352 307 -352c110 0 216 59 260 167h4l-32 -104c-57 -43 -138 -74 -235 -75l-3 -5c-4 -7 -6 -13 -6 -19c0 -31 52 -39 52 -82c0 -38 -31 -55 -64 -55c-25 0 -53 13 -69 42l4 4c13 -11 29 -18 43 -18c27 0 41 10 41 34
c0 27 -20 39 -20 61c0 9 2 18 10 31l4 7c-210 0 -354 139 -354 364c0 217 140 364 354 364c69 0 142 -17 197 -64l35 45h4v-175h-8c-34 136 -133 182 -242 182z" />
    <glyph glyph-name="Egrave" unicode="&#xc8;" horiz-adv-x="535" 
d="M252 889l51 -75l-3 -3l-75 50c-9 6 -13 13 -13 20c0 12 8 20 19 20c8 0 15 -4 21 -12zM91 379v243c0 45 -13 69 -50 73v5h421l25 -113h-8c-29 78 -66 101 -146 101h-190v-302c67 -4 142 -43 203 -43c29 0 54 11 74 35l5 -3c-22 -41 -54 -54 -92 -54
c-62 0 -130 33 -190 41v-350h165c120 0 152 22 194 123h8l-30 -135h-440v5c37 4 51 28 51 73v282c-17 -5 -32 -15 -45 -31l-5 3c13 25 30 39 50 47z" />
    <glyph glyph-name="Eacute" unicode="&#xc9;" horiz-adv-x="535" 
d="M232 814l51 75c6 8 13 12 21 12c11 0 19 -8 19 -20c0 -7 -4 -14 -13 -20l-75 -50zM91 379v243c0 45 -13 69 -50 73v5h421l25 -113h-8c-29 78 -66 101 -146 101h-190v-302c67 -4 142 -43 203 -43c29 0 54 11 74 35l5 -3c-22 -41 -54 -54 -92 -54c-62 0 -130 33 -190 41
v-350h165c120 0 152 22 194 123h8l-30 -135h-440v5c37 4 51 28 51 73v282c-17 -5 -32 -15 -45 -31l-5 3c13 25 30 39 50 47z" />
    <glyph glyph-name="Ecircumflex" unicode="&#xca;" horiz-adv-x="535" 
d="M396 796l-128 88l-128 -88l-4 4l132 136l132 -136zM91 379v243c0 45 -13 69 -50 73v5h421l25 -113h-8c-29 78 -66 101 -146 101h-190v-302c67 -4 142 -43 203 -43c29 0 54 11 74 35l5 -3c-22 -41 -54 -54 -92 -54c-62 0 -130 33 -190 41v-350h165c120 0 152 22 194 123h8
l-30 -135h-440v5c37 4 51 28 51 73v282c-17 -5 -32 -15 -45 -31l-5 3c13 25 30 39 50 47z" />
    <glyph glyph-name="Edieresis" unicode="&#xcb;" horiz-adv-x="535" 
d="M175 865c0 20 15 35 35 35s35 -15 35 -35s-15 -35 -35 -35s-35 15 -35 35zM290 865c0 20 15 35 35 35s35 -15 35 -35s-15 -35 -35 -35s-35 15 -35 35zM91 379v243c0 45 -13 69 -50 73v5h421l25 -113h-8c-29 78 -66 101 -146 101h-190v-302c67 -4 142 -43 203 -43
c29 0 54 11 74 35l5 -3c-22 -41 -54 -54 -92 -54c-62 0 -130 33 -190 41v-350h165c120 0 152 22 194 123h8l-30 -135h-440v5c37 4 51 28 51 73v282c-17 -5 -32 -15 -45 -31l-5 3c13 25 30 39 50 47z" />
    <glyph glyph-name="Igrave" unicode="&#xcc;" horiz-adv-x="232" 
d="M96 889l51 -75l-3 -3l-75 50c-9 6 -13 13 -13 20c0 12 8 20 19 20c8 0 15 -4 21 -12zM91 77v546c0 45 -14 64 -51 73v4h152v-4c-37 -9 -51 -28 -51 -73v-546c0 -45 14 -64 51 -73v-4h-152v4c37 9 51 28 51 73z" />
    <glyph glyph-name="Iacute" unicode="&#xcd;" horiz-adv-x="232" 
d="M86 814l51 75c6 8 13 12 21 12c11 0 19 -8 19 -20c0 -7 -4 -14 -13 -20l-75 -50zM91 77v546c0 45 -14 64 -51 73v4h152v-4c-37 -9 -51 -28 -51 -73v-546c0 -45 14 -64 51 -73v-4h-152v4c37 9 51 28 51 73z" />
    <glyph glyph-name="Icircumflex" unicode="&#xce;" horiz-adv-x="232" 
d="M244 796l-128 88l-128 -88l-4 4l132 136l132 -136zM91 77v546c0 45 -14 64 -51 73v4h152v-4c-37 -9 -51 -28 -51 -73v-546c0 -45 14 -64 51 -73v-4h-152v4c37 9 51 28 51 73z" />
    <glyph glyph-name="Idieresis" unicode="&#xcf;" horiz-adv-x="232" 
d="M23 865c0 20 15 35 35 35s35 -15 35 -35s-15 -35 -35 -35s-35 15 -35 35zM138 865c0 20 15 35 35 35s35 -15 35 -35s-15 -35 -35 -35s-35 15 -35 35zM91 77v546c0 45 -14 64 -51 73v4h152v-4c-37 -9 -51 -28 -51 -73v-546c0 -45 14 -64 51 -73v-4h-152v4
c37 9 51 28 51 73z" />
    <glyph glyph-name="Eth" unicode="&#xd0;" horiz-adv-x="673" 
d="M91 78v266h-91v12h91v266c0 45 -14 69 -51 73v5h243c210 0 355 -140 355 -350s-145 -350 -355 -350h-243v5c37 4 51 28 51 73zM143 344v-332h125c180 0 312 133 312 338s-132 338 -312 338h-125v-332h97v-12h-97z" />
    <glyph glyph-name="Ntilde" unicode="&#xd1;" horiz-adv-x="636" 
d="M162 828l-5 2c19 51 46 75 82 75c57 0 118 -52 166 -52c26 0 50 12 70 50l5 -2c-22 -58 -51 -75 -82 -75c-57 0 -118 52 -166 52c-30 0 -52 -16 -70 -50zM545 0h-14l-426 644v-567c0 -45 14 -64 51 -73v-4h-116v4c37 9 51 28 51 73v546c0 45 -14 64 -51 73v4h88l403 -609
v532c0 45 -14 64 -51 73v4h116v-4c-37 -9 -51 -28 -51 -73v-623z" />
    <glyph glyph-name="Ograve" unicode="&#xd2;" horiz-adv-x="800" 
d="M374 889l51 -75l-3 -3l-75 50c-9 6 -13 13 -13 20c0 12 8 20 19 20c8 0 15 -4 21 -12zM35 350c0 225 155 364 365 364s365 -139 365 -364s-155 -364 -365 -364s-365 139 -365 364zM93 350c0 -220 137 -352 307 -352s307 132 307 352s-137 352 -307 352
s-307 -132 -307 -352z" />
    <glyph glyph-name="Oacute" unicode="&#xd3;" horiz-adv-x="800" 
d="M375 814l51 75c6 8 13 12 21 12c11 0 19 -8 19 -20c0 -7 -4 -14 -13 -20l-75 -50zM35 350c0 225 155 364 365 364s365 -139 365 -364s-155 -364 -365 -364s-365 139 -365 364zM93 350c0 -220 137 -352 307 -352s307 132 307 352s-137 352 -307 352s-307 -132 -307 -352z
" />
    <glyph glyph-name="Ocircumflex" unicode="&#xd4;" horiz-adv-x="800" 
d="M528 796l-128 88l-128 -88l-4 4l132 136l132 -136zM35 350c0 225 155 364 365 364s365 -139 365 -364s-155 -364 -365 -364s-365 139 -365 364zM93 350c0 -220 137 -352 307 -352s307 132 307 352s-137 352 -307 352s-307 -132 -307 -352z" />
    <glyph glyph-name="Otilde" unicode="&#xd5;" horiz-adv-x="800" 
d="M244 828l-5 2c19 51 46 75 82 75c57 0 118 -52 166 -52c26 0 50 12 70 50l5 -2c-22 -58 -51 -75 -82 -75c-57 0 -118 52 -166 52c-30 0 -52 -16 -70 -50zM35 350c0 225 155 364 365 364s365 -139 365 -364s-155 -364 -365 -364s-365 139 -365 364zM93 350
c0 -220 137 -352 307 -352s307 132 307 352s-137 352 -307 352s-307 -132 -307 -352z" />
    <glyph glyph-name="Odieresis" unicode="&#xd6;" horiz-adv-x="800" 
d="M308 865c0 20 15 35 35 35s35 -15 35 -35s-15 -35 -35 -35s-35 15 -35 35zM423 865c0 20 15 35 35 35s35 -15 35 -35s-15 -35 -35 -35s-35 15 -35 35zM35 350c0 225 155 364 365 364s365 -139 365 -364s-155 -364 -365 -364s-365 139 -365 364zM93 350
c0 -220 137 -352 307 -352s307 132 307 352s-137 352 -307 352s-307 -132 -307 -352z" />
    <glyph glyph-name="multiply" unicode="&#xd7;" horiz-adv-x="436" 
d="M69 196l-9 9l149 148l-149 149l10 10l149 -149l148 149l9 -9l-149 -148l149 -149l-10 -10l-149 149z" />
    <glyph glyph-name="Oslash" unicode="&#xd8;" horiz-adv-x="800" 
d="M35 350c0 225 155 364 365 364c43 0 84 -6 122 -17l18 47h15l-19 -52c138 -47 229 -169 229 -342c0 -225 -155 -364 -365 -364c-43 0 -83 6 -121 17l-18 -47h-15l19 51c-138 47 -230 170 -230 343zM93 350c0 -161 73 -274 179 -324l244 653c-36 15 -75 23 -116 23
c-170 0 -307 -132 -307 -352zM529 674l-244 -654c36 -15 74 -22 115 -22c170 0 307 132 307 352c0 160 -73 274 -178 324z" />
    <glyph glyph-name="Ugrave" unicode="&#xd9;" horiz-adv-x="635" 
d="M302 889l51 -75l-3 -3l-75 50c-9 6 -13 13 -13 20c0 12 8 20 19 20c8 0 15 -4 21 -12zM544 622v-405c0 -150 -92 -231 -223 -231s-231 66 -231 231v405c0 45 -13 69 -50 73v5h152v-5c-37 -4 -50 -28 -50 -73v-410c0 -135 81 -208 189 -208c110 0 199 78 199 208v410
c0 45 -14 69 -51 73v5h116v-5c-37 -4 -51 -28 -51 -73z" />
    <glyph glyph-name="Uacute" unicode="&#xda;" horiz-adv-x="635" 
d="M281 814l51 75c6 8 13 12 21 12c11 0 19 -8 19 -20c0 -7 -4 -14 -13 -20l-75 -50zM544 622v-405c0 -150 -92 -231 -223 -231s-231 66 -231 231v405c0 45 -13 69 -50 73v5h152v-5c-37 -4 -50 -28 -50 -73v-410c0 -135 81 -208 189 -208c110 0 199 78 199 208v410
c0 45 -14 69 -51 73v5h116v-5c-37 -4 -51 -28 -51 -73z" />
    <glyph glyph-name="Ucircumflex" unicode="&#xdb;" horiz-adv-x="635" 
d="M446 796l-128 88l-128 -88l-4 4l132 136l132 -136zM544 622v-405c0 -150 -92 -231 -223 -231s-231 66 -231 231v405c0 45 -13 69 -50 73v5h152v-5c-37 -4 -50 -28 -50 -73v-410c0 -135 81 -208 189 -208c110 0 199 78 199 208v410c0 45 -14 69 -51 73v5h116v-5
c-37 -4 -51 -28 -51 -73z" />
    <glyph glyph-name="Udieresis" unicode="&#xdc;" horiz-adv-x="635" 
d="M225 865c0 20 15 35 35 35s35 -15 35 -35s-15 -35 -35 -35s-35 15 -35 35zM340 865c0 20 15 35 35 35s35 -15 35 -35s-15 -35 -35 -35s-35 15 -35 35zM544 622v-405c0 -150 -92 -231 -223 -231s-231 66 -231 231v405c0 45 -13 69 -50 73v5h152v-5c-37 -4 -50 -28 -50 -73
v-410c0 -135 81 -208 189 -208c110 0 199 78 199 208v410c0 45 -14 69 -51 73v5h116v-5c-37 -4 -51 -28 -51 -73z" />
    <glyph glyph-name="Yacute" unicode="&#xdd;" horiz-adv-x="610" 
d="M280 814l51 75c6 8 13 12 21 12c11 0 19 -8 19 -20c0 -7 -4 -14 -13 -20l-75 -50zM384 0h-154v5c37 4 51 28 51 73v244l-173 300c-24 42 -47 63 -98 73v5h166v-5c-35 -9 -30 -35 -8 -73l158 -277l159 277c22 38 27 64 -8 73v5h123v-5c-51 -10 -74 -31 -98 -73l-169 -293
v-251c0 -45 14 -69 51 -73v-5z" />
    <glyph glyph-name="Thorn" unicode="&#xde;" horiz-adv-x="606" 
d="M40 700h154v-5c-37 -4 -51 -28 -51 -73v-54h172c160 0 256 -81 256 -218s-95 -218 -256 -218h-172v-54c0 -45 14 -69 51 -73v-5h-154v5c37 4 51 28 51 73v544c0 45 -14 69 -51 73v5zM299 556h-156v-412h156c136 0 214 75 214 206c0 130 -79 206 -214 206z" />
    <glyph glyph-name="germandbls" unicode="&#xdf;" horiz-adv-x="587" 
d="M217 99c0 19 15 34 34 34s34 -15 34 -34s-15 -33 -33 -34c17 -32 51 -53 92 -53c82 0 150 68 150 151c0 181 -224 155 -224 247c0 59 145 59 145 169c0 71 -57 123 -135 123c-83 0 -137 -59 -137 -150v-474c0 -45 14 -69 51 -73v-5h-154v5c37 4 51 28 51 73v457
c0 106 80 179 196 179c104 0 178 -57 178 -137c0 -115 -183 -126 -183 -166c0 -68 270 -56 270 -248c0 -97 -85 -163 -211 -163c-67 0 -124 46 -124 99z" />
    <glyph glyph-name="agrave" unicode="&#xe0;" horiz-adv-x="497" 
d="M233 689l51 -75l-3 -3l-75 50c-9 6 -13 13 -13 20c0 12 8 20 19 20c8 0 15 -4 21 -12zM138 392c0 -19 -15 -34 -34 -34s-34 15 -34 34c0 65 75 118 167 118c135 0 184 -80 184 -153v-305c0 -35 13 -41 28 -41c11 0 21 4 27 9l3 -3c-11 -14 -29 -27 -51 -27
c-25 0 -57 8 -57 68v151c-36 -112 -104 -219 -216 -219c-70 0 -125 37 -125 107c0 179 341 159 341 277c0 99 -84 126 -134 126c-62 0 -118 -31 -137 -74c21 0 38 -11 38 -34zM371 242v96c-73 -96 -287 -82 -287 -237c0 -60 32 -98 82 -98c96 0 170 122 205 239z" />
    <glyph glyph-name="aacute" unicode="&#xe1;" horiz-adv-x="497" 
d="M213 614l51 75c6 8 13 12 21 12c11 0 19 -8 19 -20c0 -7 -4 -14 -13 -20l-75 -50zM138 392c0 -19 -15 -34 -34 -34s-34 15 -34 34c0 65 75 118 167 118c135 0 184 -80 184 -153v-305c0 -35 13 -41 28 -41c11 0 21 4 27 9l3 -3c-11 -14 -29 -27 -51 -27
c-25 0 -57 8 -57 68v151c-36 -112 -104 -219 -216 -219c-70 0 -125 37 -125 107c0 179 341 159 341 277c0 99 -84 126 -134 126c-62 0 -118 -31 -137 -74c21 0 38 -11 38 -34zM371 242v96c-73 -96 -287 -82 -287 -237c0 -60 32 -98 82 -98c96 0 170 122 205 239z" />
    <glyph glyph-name="acircumflex" unicode="&#xe2;" horiz-adv-x="497" 
d="M377 596l-128 88l-128 -88l-4 4l132 136l132 -136zM138 392c0 -19 -15 -34 -34 -34s-34 15 -34 34c0 65 75 118 167 118c135 0 184 -80 184 -153v-305c0 -35 13 -41 28 -41c11 0 21 4 27 9l3 -3c-11 -14 -29 -27 -51 -27c-25 0 -57 8 -57 68v151
c-36 -112 -104 -219 -216 -219c-70 0 -125 37 -125 107c0 179 341 159 341 277c0 99 -84 126 -134 126c-62 0 -118 -31 -137 -74c21 0 38 -11 38 -34zM371 242v96c-73 -96 -287 -82 -287 -237c0 -60 32 -98 82 -98c96 0 170 122 205 239z" />
    <glyph glyph-name="atilde" unicode="&#xe3;" horiz-adv-x="497" 
d="M92 628l-5 2c19 51 46 75 82 75c57 0 118 -52 166 -52c26 0 50 12 70 50l5 -2c-22 -58 -51 -75 -82 -75c-57 0 -118 52 -166 52c-30 0 -52 -16 -70 -50zM138 392c0 -19 -15 -34 -34 -34s-34 15 -34 34c0 65 75 118 167 118c135 0 184 -80 184 -153v-305
c0 -35 13 -41 28 -41c11 0 21 4 27 9l3 -3c-11 -14 -29 -27 -51 -27c-25 0 -57 8 -57 68v151c-36 -112 -104 -219 -216 -219c-70 0 -125 37 -125 107c0 179 341 159 341 277c0 99 -84 126 -134 126c-62 0 -118 -31 -137 -74c21 0 38 -11 38 -34zM371 242v96
c-73 -96 -287 -82 -287 -237c0 -60 32 -98 82 -98c96 0 170 122 205 239z" />
    <glyph glyph-name="adieresis" unicode="&#xe4;" horiz-adv-x="497" 
d="M156 665c0 20 15 35 35 35s35 -15 35 -35s-15 -35 -35 -35s-35 15 -35 35zM271 665c0 20 15 35 35 35s35 -15 35 -35s-15 -35 -35 -35s-35 15 -35 35zM138 392c0 -19 -15 -34 -34 -34s-34 15 -34 34c0 65 75 118 167 118c135 0 184 -80 184 -153v-305
c0 -35 13 -41 28 -41c11 0 21 4 27 9l3 -3c-11 -14 -29 -27 -51 -27c-25 0 -57 8 -57 68v151c-36 -112 -104 -219 -216 -219c-70 0 -125 37 -125 107c0 179 341 159 341 277c0 99 -84 126 -134 126c-62 0 -118 -31 -137 -74c21 0 38 -11 38 -34zM371 242v96
c-73 -96 -287 -82 -287 -237c0 -60 32 -98 82 -98c96 0 170 122 205 239z" />
    <glyph glyph-name="aring" unicode="&#xe5;" horiz-adv-x="497" 
d="M177 665c0 41 31 72 72 72s72 -31 72 -72s-31 -72 -72 -72s-72 31 -72 72zM187 665c0 -35 27 -62 62 -62s62 27 62 62s-27 62 -62 62s-62 -27 -62 -62zM138 392c0 -19 -15 -34 -34 -34s-34 15 -34 34c0 65 75 118 167 118c135 0 184 -80 184 -153v-305
c0 -35 13 -41 28 -41c11 0 21 4 27 9l3 -3c-11 -14 -29 -27 -51 -27c-25 0 -57 8 -57 68v151c-36 -112 -104 -219 -216 -219c-70 0 -125 37 -125 107c0 179 341 159 341 277c0 99 -84 126 -134 126c-62 0 -118 -31 -137 -74c21 0 38 -11 38 -34zM371 242v96
c-73 -96 -287 -82 -287 -237c0 -60 32 -98 82 -98c96 0 170 122 205 239z" />
    <glyph glyph-name="ae" unicode="&#xe6;" horiz-adv-x="851" 
d="M138 392c0 -19 -15 -34 -34 -34s-34 15 -34 34c0 65 75 118 167 118c103 0 156 -47 175 -101c40 64 107 101 192 101c103 0 179 -54 213 -145l-252 -91c-89 -32 -132 -82 -114 -160c34 -72 96 -105 158 -105c77 0 155 34 203 111l9 -5c-42 -78 -122 -125 -217 -125
c-130 0 -218 87 -231 224c-36 -114 -105 -224 -218 -224c-70 0 -125 37 -125 107c0 179 341 159 341 277c0 99 -84 126 -134 126c-62 0 -118 -31 -137 -74c21 0 38 -11 38 -34zM574 290l181 66c8 3 12 10 9 18c-29 79 -86 126 -160 126c-107 0 -179 -99 -179 -250
c0 -38 5 -71 13 -100c0 71 50 109 136 140zM371 242v96c-73 -96 -287 -82 -287 -237c0 -60 32 -98 82 -98c96 0 170 122 205 239z" />
    <glyph glyph-name="ccedilla" unicode="&#xe7;" horiz-adv-x="483" 
d="M439 382c0 -19 -15 -34 -34 -34s-34 15 -34 34c0 23 18 34 39 34c-23 53 -85 84 -152 84c-105 0 -179 -99 -179 -250c0 -169 91 -241 184 -241c70 0 136 34 181 111l9 -5c-38 -75 -105 -121 -186 -125l-5 -9c-4 -7 -6 -13 -6 -19c0 -31 52 -39 52 -82
c0 -38 -31 -55 -64 -55c-25 0 -53 13 -69 42l4 4c13 -11 29 -18 43 -18c27 0 41 10 41 34c0 27 -20 39 -20 61c0 12 2 19 9 29l9 13c-154 -2 -236 115 -236 260c0 157 97 260 237 260c115 0 177 -68 177 -128z" />
    <glyph glyph-name="egrave" unicode="&#xe8;" horiz-adv-x="505" 
d="M247 689l51 -75l-3 -3l-75 50c-9 6 -13 13 -13 20c0 12 8 20 19 20c8 0 15 -4 21 -12zM466 120l9 -5c-42 -78 -122 -125 -217 -125c-141 0 -233 103 -233 260s92 260 233 260c103 0 179 -54 213 -145l-252 -91c-89 -32 -132 -82 -114 -160c34 -72 96 -105 158 -105
c77 0 155 34 203 111zM228 290l181 66c8 3 12 10 9 18c-29 79 -86 126 -160 126c-107 0 -179 -99 -179 -250c0 -38 5 -71 13 -100c0 71 50 109 136 140z" />
    <glyph glyph-name="eacute" unicode="&#xe9;" horiz-adv-x="505" 
d="M207 614l51 75c6 8 13 12 21 12c11 0 19 -8 19 -20c0 -7 -4 -14 -13 -20l-75 -50zM466 120l9 -5c-42 -78 -122 -125 -217 -125c-141 0 -233 103 -233 260s92 260 233 260c103 0 179 -54 213 -145l-252 -91c-89 -32 -132 -82 -114 -160c34 -72 96 -105 158 -105
c77 0 155 34 203 111zM228 290l181 66c8 3 12 10 9 18c-29 79 -86 126 -160 126c-107 0 -179 -99 -179 -250c0 -38 5 -71 13 -100c0 71 50 109 136 140z" />
    <glyph glyph-name="ecircumflex" unicode="&#xea;" horiz-adv-x="505" 
d="M381 596l-128 88l-128 -88l-4 4l132 136l132 -136zM466 120l9 -5c-42 -78 -122 -125 -217 -125c-141 0 -233 103 -233 260s92 260 233 260c103 0 179 -54 213 -145l-252 -91c-89 -32 -132 -82 -114 -160c34 -72 96 -105 158 -105c77 0 155 34 203 111zM228 290l181 66
c8 3 12 10 9 18c-29 79 -86 126 -160 126c-107 0 -179 -99 -179 -250c0 -38 5 -71 13 -100c0 71 50 109 136 140z" />
    <glyph glyph-name="edieresis" unicode="&#xeb;" horiz-adv-x="505" 
d="M160 665c0 20 15 35 35 35s35 -15 35 -35s-15 -35 -35 -35s-35 15 -35 35zM275 665c0 20 15 35 35 35s35 -15 35 -35s-15 -35 -35 -35s-35 15 -35 35zM466 120l9 -5c-42 -78 -122 -125 -217 -125c-141 0 -233 103 -233 260s92 260 233 260c103 0 179 -54 213 -145
l-252 -91c-89 -32 -132 -82 -114 -160c34 -72 96 -105 158 -105c77 0 155 34 203 111zM228 290l181 66c8 3 12 10 9 18c-29 79 -86 126 -160 126c-107 0 -179 -99 -179 -250c0 -38 5 -71 13 -100c0 71 50 109 136 140z" />
    <glyph glyph-name="igrave" unicode="&#xec;" horiz-adv-x="202" 
d="M85 689l51 -75l-3 -3l-75 50c-9 6 -13 13 -13 20c0 12 8 20 19 20c8 0 15 -4 21 -12zM30 470l96 35v-427c0 -45 14 -69 51 -73v-5h-152v5c37 4 51 28 51 73v340c0 35 -11 47 -46 47v5z" />
    <glyph glyph-name="iacute" unicode="&#xed;" horiz-adv-x="202" 
d="M65 614l51 75c6 8 13 12 21 12c11 0 19 -8 19 -20c0 -7 -4 -14 -13 -20l-75 -50zM30 470l96 35v-427c0 -45 14 -69 51 -73v-5h-152v5c37 4 51 28 51 73v340c0 35 -11 47 -46 47v5z" />
    <glyph glyph-name="icircumflex" unicode="&#xee;" horiz-adv-x="202" 
d="M229 596l-128 88l-128 -88l-4 4l132 136l132 -136zM30 470l96 35v-427c0 -45 14 -69 51 -73v-5h-152v5c37 4 51 28 51 73v340c0 35 -11 47 -46 47v5z" />
    <glyph glyph-name="idieresis" unicode="&#xef;" horiz-adv-x="202" 
d="M8 665c0 20 15 35 35 35s35 -15 35 -35s-15 -35 -35 -35s-35 15 -35 35zM123 665c0 20 15 35 35 35s35 -15 35 -35s-15 -35 -35 -35s-35 15 -35 35zM30 470l96 35v-427c0 -45 14 -69 51 -73v-5h-152v5c37 4 51 28 51 73v340c0 35 -11 47 -46 47v5z" />
    <glyph glyph-name="eth" unicode="&#xf0;" horiz-adv-x="509" 
d="M35 223c0 134 81 226 197 226c87 0 156 -53 184 -141c-3 121 -41 231 -104 305l-106 -61v14l98 57c-47 51 -106 81 -175 81v10c76 0 145 -29 201 -77l108 63v-14l-99 -57c83 -77 135 -197 135 -330c0 -192 -86 -313 -222 -313c-120 0 -217 106 -217 237zM414 234
c-6 114 -81 203 -174 203c-89 0 -147 -88 -147 -220c0 -126 67 -219 159 -219c89 0 149 90 162 236z" />
    <glyph glyph-name="ntilde" unicode="&#xf1;" 
d="M110 628l-5 2c19 51 46 75 82 75c57 0 118 -52 166 -52c26 0 50 12 70 50l5 -2c-22 -58 -51 -75 -82 -75c-57 0 -118 52 -166 52c-30 0 -52 -16 -70 -50zM76 78v340c0 35 -11 47 -46 47v5l96 35v-132c24 68 86 137 177 137c120 0 153 -77 153 -137v-321
c0 -35 13 -41 28 -41c11 0 21 4 27 9l3 -3c-11 -14 -29 -27 -51 -27c-25 0 -57 8 -57 68v310c0 97 -46 129 -107 129c-100 0 -173 -99 -173 -184v-235c0 -45 14 -69 51 -73v-5h-152v5c37 4 51 28 51 73z" />
    <glyph glyph-name="ograve" unicode="&#xf2;" horiz-adv-x="570" 
d="M260 689l51 -75l-3 -3l-75 50c-9 6 -13 13 -13 20c0 12 8 20 19 20c8 0 15 -4 21 -12zM25 250c0 157 103 260 260 260s260 -103 260 -260s-103 -260 -260 -260s-260 103 -260 260zM79 250c0 -151 82 -250 206 -250s206 99 206 250s-82 250 -206 250s-206 -99 -206 -250z
" />
    <glyph glyph-name="oacute" unicode="&#xf3;" horiz-adv-x="570" 
d="M260 614l51 75c6 8 13 12 21 12c11 0 19 -8 19 -20c0 -7 -4 -14 -13 -20l-75 -50zM25 250c0 157 103 260 260 260s260 -103 260 -260s-103 -260 -260 -260s-260 103 -260 260zM79 250c0 -151 82 -250 206 -250s206 99 206 250s-82 250 -206 250s-206 -99 -206 -250z" />
    <glyph glyph-name="ocircumflex" unicode="&#xf4;" horiz-adv-x="570" 
d="M413 596l-128 88l-128 -88l-4 4l132 136l132 -136zM25 250c0 157 103 260 260 260s260 -103 260 -260s-103 -260 -260 -260s-260 103 -260 260zM79 250c0 -151 82 -250 206 -250s206 99 206 250s-82 250 -206 250s-206 -99 -206 -250z" />
    <glyph glyph-name="otilde" unicode="&#xf5;" horiz-adv-x="570" 
d="M129 628l-5 2c19 51 46 75 82 75c57 0 118 -52 166 -52c26 0 50 12 70 50l5 -2c-22 -58 -51 -75 -82 -75c-57 0 -118 52 -166 52c-30 0 -52 -16 -70 -50zM25 250c0 157 103 260 260 260s260 -103 260 -260s-103 -260 -260 -260s-260 103 -260 260zM79 250
c0 -151 82 -250 206 -250s206 99 206 250s-82 250 -206 250s-206 -99 -206 -250z" />
    <glyph glyph-name="odieresis" unicode="&#xf6;" horiz-adv-x="570" 
d="M193 665c0 20 15 35 35 35s35 -15 35 -35s-15 -35 -35 -35s-35 15 -35 35zM308 665c0 20 15 35 35 35s35 -15 35 -35s-15 -35 -35 -35s-35 15 -35 35zM25 250c0 157 103 260 260 260s260 -103 260 -260s-103 -260 -260 -260s-260 103 -260 260zM79 250
c0 -151 82 -250 206 -250s206 99 206 250s-82 250 -206 250s-206 -99 -206 -250z" />
    <glyph glyph-name="divide" unicode="&#xf7;" horiz-adv-x="530" 
d="M230 480c0 20 15 35 35 35s35 -15 35 -35s-15 -35 -35 -35s-35 15 -35 35zM480 348h-430v12h430v-12zM230 228c0 20 15 35 35 35s35 -15 35 -35s-15 -35 -35 -35s-35 15 -35 35z" />
    <glyph glyph-name="oslash" unicode="&#xf8;" horiz-adv-x="570" 
d="M25 250c0 157 103 260 260 260c28 0 55 -4 79 -10l22 60h15l-24 -63c104 -33 168 -123 168 -247c0 -157 -103 -260 -260 -260c-33 0 -64 4 -92 13l-24 -63h-15l25 68c-96 36 -154 124 -154 242zM79 250c0 -106 40 -186 107 -225l173 462c-22 9 -47 13 -74 13
c-124 0 -206 -99 -206 -250zM372 481l-174 -462c26 -12 55 -19 87 -19c124 0 206 99 206 250c0 112 -45 196 -119 231z" />
    <glyph glyph-name="ugrave" unicode="&#xf9;" 
d="M241 689l51 -75l-3 -3l-75 50c-9 6 -13 13 -13 20c0 12 8 20 19 20c8 0 15 -4 21 -12zM71 134v284c0 35 -11 47 -46 47v5l96 35v-373c0 -97 47 -129 109 -129c102 0 176 99 176 184v231c0 35 -11 47 -46 47v5l96 35v-453c0 -35 13 -41 28 -41c11 0 21 4 27 9l3 -3
c-11 -14 -29 -27 -51 -27c-25 0 -57 8 -57 68v70c-24 -68 -88 -138 -180 -138c-125 0 -155 74 -155 144z" />
    <glyph glyph-name="uacute" unicode="&#xfa;" 
d="M241 614l51 75c6 8 13 12 21 12c11 0 19 -8 19 -20c0 -7 -4 -14 -13 -20l-75 -50zM71 134v284c0 35 -11 47 -46 47v5l96 35v-373c0 -97 47 -129 109 -129c102 0 176 99 176 184v231c0 35 -11 47 -46 47v5l96 35v-453c0 -35 13 -41 28 -41c11 0 21 4 27 9l3 -3
c-11 -14 -29 -27 -51 -27c-25 0 -57 8 -57 68v70c-24 -68 -88 -138 -180 -138c-125 0 -155 74 -155 144z" />
    <glyph glyph-name="ucircumflex" unicode="&#xfb;" 
d="M394 596l-128 88l-128 -88l-4 4l132 136l132 -136zM71 134v284c0 35 -11 47 -46 47v5l96 35v-373c0 -97 47 -129 109 -129c102 0 176 99 176 184v231c0 35 -11 47 -46 47v5l96 35v-453c0 -35 13 -41 28 -41c11 0 21 4 27 9l3 -3c-11 -14 -29 -27 -51 -27
c-25 0 -57 8 -57 68v70c-24 -68 -88 -138 -180 -138c-125 0 -155 74 -155 144z" />
    <glyph glyph-name="udieresis" unicode="&#xfc;" 
d="M174 665c0 20 15 35 35 35s35 -15 35 -35s-15 -35 -35 -35s-35 15 -35 35zM289 665c0 20 15 35 35 35s35 -15 35 -35s-15 -35 -35 -35s-35 15 -35 35zM71 134v284c0 35 -11 47 -46 47v5l96 35v-373c0 -97 47 -129 109 -129c102 0 176 99 176 184v231c0 35 -11 47 -46 47
v5l96 35v-453c0 -35 13 -41 28 -41c11 0 21 4 27 9l3 -3c-11 -14 -29 -27 -51 -27c-25 0 -57 8 -57 68v70c-24 -68 -88 -138 -180 -138c-125 0 -155 74 -155 144z" />
    <glyph glyph-name="yacute" unicode="&#xfd;" horiz-adv-x="481" 
d="M215 614l51 75c6 8 13 12 21 12c11 0 19 -8 19 -20c0 -7 -4 -14 -13 -20l-75 -50zM119 422l141 -367l121 315c16 42 31 121 -6 125v5h116v-5c-38 -5 -58 -31 -74 -73l-202 -526c-38 -98 -86 -122 -136 -122c-45 0 -89 24 -89 74c0 19 15 34 34 34s34 -15 34 -34
s-15 -33 -33 -34c9 -17 28 -30 58 -30s79 14 115 109l35 92l-168 437c-16 42 -36 68 -74 73v5h154v-5c-37 -4 -42 -31 -26 -73z" />
    <glyph glyph-name="thorn" unicode="&#xfe;" horiz-adv-x="534" 
d="M76 -162v872c0 35 -11 47 -46 47v5l96 35v-380c39 48 96 93 173 93c140 0 210 -122 210 -247c0 -150 -80 -273 -235 -273c-69 0 -119 35 -148 81v-233c0 -45 14 -69 51 -73v-5h-152v5c37 4 51 28 51 73zM293 494c-73 0 -128 -41 -167 -94v-219c0 -86 53 -181 147 -181
c131 0 182 137 182 263c0 91 -37 231 -162 231z" />
    <glyph glyph-name="ydieresis" unicode="&#xff;" horiz-adv-x="481" 
d="M148 665c0 20 15 35 35 35s35 -15 35 -35s-15 -35 -35 -35s-35 15 -35 35zM263 665c0 20 15 35 35 35s35 -15 35 -35s-15 -35 -35 -35s-35 15 -35 35zM119 422l141 -367l121 315c16 42 31 121 -6 125v5h116v-5c-38 -5 -58 -31 -74 -73l-202 -526
c-38 -98 -86 -122 -136 -122c-45 0 -89 24 -89 74c0 19 15 34 34 34s34 -15 34 -34s-15 -33 -33 -34c9 -17 28 -30 58 -30s79 14 115 109l35 92l-168 437c-16 42 -36 68 -74 73v5h154v-5c-37 -4 -42 -31 -26 -73z" />
    <glyph glyph-name="Amacron" unicode="&#x100;" horiz-adv-x="657" 
d="M454 842h-250v12h250v-12zM152 223l-56 -145c-14 -37 -13 -67 28 -73v-5h-114v5c36 8 56 34 71 73l221 575l-18 47h53l239 -622c15 -39 35 -65 71 -73v-5h-152v5c41 6 42 36 28 73l-74 192c-21 -30 -52 -46 -84 -46c-58 0 -87 34 -132 34c-24 0 -55 -5 -81 -35zM369 246
c23 0 53 5 78 31l-138 357l-150 -391c21 24 50 37 78 37c58 0 87 -34 132 -34z" />
    <glyph glyph-name="amacron" unicode="&#x101;" horiz-adv-x="497" 
d="M382 630h-250v12h250v-12zM138 392c0 -19 -15 -34 -34 -34s-34 15 -34 34c0 52 57 118 167 118c135 0 184 -80 184 -153v-305c0 -35 13 -41 28 -41c11 0 21 4 27 9l3 -3c-11 -14 -29 -27 -51 -27c-25 0 -57 8 -57 68v151c-36 -112 -104 -219 -216 -219
c-70 0 -125 37 -125 107c0 179 341 159 341 277c0 99 -84 126 -134 126c-75 0 -119 -37 -136 -74c20 0 37 -12 37 -34zM371 242v96c-73 -96 -287 -82 -287 -237c0 -60 32 -98 82 -98c96 0 170 122 205 239z" />
    <glyph glyph-name="Abreve" unicode="&#x102;" horiz-adv-x="657" 
d="M329 830c55 0 99 32 104 76h6c0 -62 -49 -113 -110 -113s-110 51 -110 113h6c5 -44 49 -76 104 -76zM152 223l-56 -145c-14 -37 -13 -67 28 -73v-5h-114v5c36 8 56 34 71 73l221 575l-18 47h53l239 -622c15 -39 35 -65 71 -73v-5h-152v5c41 6 42 36 28 73l-74 192
c-21 -30 -52 -46 -84 -46c-58 0 -87 34 -132 34c-24 0 -55 -5 -81 -35zM369 246c23 0 53 5 78 31l-138 357l-150 -391c21 24 50 37 78 37c58 0 87 -34 132 -34z" />
    <glyph glyph-name="abreve" unicode="&#x103;" horiz-adv-x="497" 
d="M249 630c55 0 99 32 104 76h6c0 -62 -49 -113 -110 -113s-110 51 -110 113h6c5 -44 49 -76 104 -76zM138 392c0 -19 -15 -34 -34 -34s-34 15 -34 34c0 65 75 118 167 118c135 0 184 -80 184 -153v-305c0 -35 13 -41 28 -41c11 0 21 4 27 9l3 -3c-11 -14 -29 -27 -51 -27
c-25 0 -57 8 -57 68v151c-36 -112 -104 -219 -216 -219c-70 0 -125 37 -125 107c0 179 341 159 341 277c0 99 -84 126 -134 126c-62 0 -118 -31 -137 -74c21 0 38 -11 38 -34zM371 242v96c-73 -96 -287 -82 -287 -237c0 -60 32 -98 82 -98c96 0 170 122 205 239z" />
    <glyph glyph-name="Aogonek" unicode="&#x104;" horiz-adv-x="657" 
d="M152 223l-56 -145c-14 -37 -13 -67 28 -73v-5h-114v5c36 8 56 34 71 73l221 575l-18 47h53l239 -622c15 -39 35 -65 71 -73v-5c-45 -37 -68 -72 -68 -105c0 -24 15 -42 42 -42c14 0 30 7 43 18l4 -4c-19 -27 -49 -42 -76 -42c-34 0 -56 22 -56 56c0 39 35 79 104 119
h-145v5c41 6 42 36 28 73l-74 192c-21 -30 -52 -46 -84 -46c-58 0 -87 34 -132 34c-24 0 -55 -5 -81 -35zM369 246c23 0 53 5 78 31l-138 357l-150 -391c21 24 50 37 78 37c58 0 87 -34 132 -34z" />
    <glyph glyph-name="aogonek" unicode="&#x105;" horiz-adv-x="497" 
d="M138 392c0 -19 -15 -34 -34 -34s-34 15 -34 34c0 65 75 118 167 118c135 0 184 -80 184 -153v-305c0 -35 13 -41 28 -41c11 0 21 4 27 9l3 -3c-5 -7 -12 -13 -20 -18c-44 -37 -67 -71 -67 -104c0 -24 15 -42 42 -42c14 0 30 7 43 18l4 -4c-19 -27 -49 -42 -76 -42
c-34 0 -56 22 -56 56c0 36 30 73 89 110c-3 -1 -7 -1 -10 -1c-25 0 -57 8 -57 68v151c-36 -112 -104 -219 -216 -219c-70 0 -125 37 -125 107c0 179 341 159 341 277c0 99 -84 126 -134 126c-62 0 -118 -31 -137 -74c21 0 38 -11 38 -34zM371 242v96
c-73 -96 -287 -82 -287 -237c0 -60 32 -98 82 -98c96 0 170 122 205 239z" />
    <glyph glyph-name="Cacute" unicode="&#x106;" horiz-adv-x="694" 
d="M322 814l51 75c6 8 13 12 21 12c11 0 19 -8 19 -20c0 -7 -4 -14 -13 -20l-75 -50zM375 702c-130 0 -282 -110 -282 -352c0 -226 137 -352 307 -352c110 0 216 59 260 167h4l-32 -104c-58 -44 -142 -75 -242 -75c-210 0 -355 139 -355 364c0 217 140 364 354 364
c69 0 142 -17 197 -64l35 45h4v-175h-8c-34 136 -133 182 -242 182z" />
    <glyph glyph-name="cacute" unicode="&#x107;" horiz-adv-x="483" 
d="M216 614l51 75c6 8 13 12 21 12c11 0 19 -8 19 -20c0 -7 -4 -14 -13 -20l-75 -50zM439 382c0 -19 -15 -34 -34 -34s-34 15 -34 34c0 23 18 34 39 34c-23 53 -85 84 -152 84c-105 0 -179 -99 -179 -250c0 -169 91 -241 184 -241c70 0 136 34 181 111l9 -5
c-39 -78 -110 -125 -195 -125c-141 0 -233 103 -233 260s97 260 237 260c115 0 177 -68 177 -128z" />
    <glyph glyph-name="Ccircumflex" unicode="&#x108;" horiz-adv-x="694" 
d="M495 796l-128 88l-128 -88l-4 4l132 136l132 -136zM375 702c-130 0 -282 -110 -282 -352c0 -226 137 -352 307 -352c110 0 216 59 260 167h4l-32 -104c-58 -44 -142 -75 -242 -75c-210 0 -355 139 -355 364c0 217 140 364 354 364c69 0 142 -17 197 -64l35 45h4v-175h-8
c-34 136 -133 182 -242 182z" />
    <glyph glyph-name="ccircumflex" unicode="&#x109;" horiz-adv-x="483" 
d="M390 596l-128 88l-128 -88l-4 4l132 136l132 -136zM439 382c0 -19 -15 -34 -34 -34s-34 15 -34 34c0 23 18 34 39 34c-23 53 -85 84 -152 84c-105 0 -179 -99 -179 -250c0 -169 91 -241 184 -241c70 0 136 34 181 111l9 -5c-39 -78 -110 -125 -195 -125
c-141 0 -233 103 -233 260s97 260 237 260c115 0 177 -68 177 -128z" />
    <glyph glyph-name="Cdotaccent" unicode="&#x10a;" horiz-adv-x="694" 
d="M332 865c0 20 15 35 35 35s35 -15 35 -35s-15 -35 -35 -35s-35 15 -35 35zM375 702c-130 0 -282 -110 -282 -352c0 -226 137 -352 307 -352c110 0 216 59 260 167h4l-32 -104c-58 -44 -142 -75 -242 -75c-210 0 -355 139 -355 364c0 217 140 364 354 364
c69 0 142 -17 197 -64l35 45h4v-175h-8c-34 136 -133 182 -242 182z" />
    <glyph glyph-name="cdotaccent" unicode="&#x10b;" horiz-adv-x="483" 
d="M227 665c0 20 15 35 35 35s35 -15 35 -35s-15 -35 -35 -35s-35 15 -35 35zM439 382c0 -19 -15 -34 -34 -34s-34 15 -34 34c0 23 18 34 39 34c-23 53 -85 84 -152 84c-105 0 -179 -99 -179 -250c0 -169 91 -241 184 -241c70 0 136 34 181 111l9 -5
c-39 -78 -110 -125 -195 -125c-141 0 -233 103 -233 260s97 260 237 260c115 0 177 -68 177 -128z" />
    <glyph glyph-name="Ccaron" unicode="&#x10c;" horiz-adv-x="694" 
d="M239 936l128 -88l128 88l4 -4l-132 -136l-132 136zM375 702c-130 0 -282 -110 -282 -352c0 -226 137 -352 307 -352c110 0 216 59 260 167h4l-32 -104c-58 -44 -142 -75 -242 -75c-210 0 -355 139 -355 364c0 217 140 364 354 364c69 0 142 -17 197 -64l35 45h4v-175h-8
c-34 136 -133 182 -242 182z" />
    <glyph glyph-name="ccaron" unicode="&#x10d;" horiz-adv-x="483" 
d="M134 736l128 -88l128 88l4 -4l-132 -136l-132 136zM439 382c0 -19 -15 -34 -34 -34s-34 15 -34 34c0 23 18 34 39 34c-23 53 -85 84 -152 84c-105 0 -179 -99 -179 -250c0 -169 91 -241 184 -241c70 0 136 34 181 111l9 -5c-39 -78 -110 -125 -195 -125
c-141 0 -233 103 -233 260s97 260 237 260c115 0 177 -68 177 -128z" />
    <glyph glyph-name="Dcaron" unicode="&#x10e;" horiz-adv-x="673" 
d="M189 936l128 -88l128 88l4 -4l-132 -136l-132 136zM91 78v544c0 45 -14 69 -51 73v5h243c210 0 355 -140 355 -350s-145 -350 -355 -350h-243v5c37 4 51 28 51 73zM143 688v-676h125c180 0 312 133 312 338s-132 338 -312 338h-125z" />
    <glyph glyph-name="dcaron" unicode="&#x10f;" horiz-adv-x="698" 
d="M407 58v151c-40 -123 -105 -219 -202 -219c-134 0 -180 117 -180 247c0 150 79 273 234 273c56 0 107 -22 148 -71v271c0 35 -11 47 -46 47v5l96 35v-745c0 -35 13 -41 28 -41c11 0 21 4 27 9l3 -3c-11 -14 -29 -27 -51 -27c-25 0 -57 8 -57 68zM611 644
c-19 0 -34 15 -34 35s15 35 35 35c22 0 36 -16 36 -40c0 -32 -25 -74 -60 -100l-4 4c21 20 37 45 37 58c0 6 -3 8 -10 8zM407 244v179c-32 41 -78 75 -147 75c-131 0 -181 -130 -181 -256c0 -140 52 -240 129 -240c91 0 159 105 199 242z" />
    <glyph glyph-name="Dcroat" unicode="&#x110;" horiz-adv-x="673" 
d="M91 78v266h-91v12h91v266c0 45 -14 69 -51 73v5h243c210 0 355 -140 355 -350s-145 -350 -355 -350h-243v5c37 4 51 28 51 73zM143 344v-332h125c180 0 312 133 312 338s-132 338 -312 338h-125v-332h97v-12h-97z" />
    <glyph glyph-name="dcroat" unicode="&#x111;" horiz-adv-x="533" 
d="M407 58v151c-40 -123 -105 -219 -202 -219c-134 0 -180 117 -180 247c0 150 79 273 234 273c56 0 107 -22 148 -71v191h-247v12h247v68c0 35 -11 47 -46 47v5l96 35v-155h76v-12h-76v-578c0 -35 13 -41 28 -41c11 0 21 4 27 9l3 -3c-11 -14 -29 -27 -51 -27
c-25 0 -57 8 -57 68zM407 244v179c-32 41 -78 75 -147 75c-131 0 -181 -130 -181 -256c0 -140 52 -240 129 -240c91 0 159 105 199 242z" />
    <glyph glyph-name="Emacron" unicode="&#x112;" horiz-adv-x="535" 
d="M390 842h-250v12h250v-12zM91 379v243c0 45 -13 69 -50 73v5h421l25 -113h-8c-29 78 -66 101 -146 101h-190v-302c67 -4 142 -43 203 -43c29 0 54 11 74 35l5 -3c-22 -41 -54 -54 -92 -54c-62 0 -130 33 -190 41v-350h165c120 0 152 22 194 123h8l-30 -135h-440v5
c37 4 51 28 51 73v282c-17 -5 -32 -15 -45 -31l-5 3c13 25 30 39 50 47z" />
    <glyph glyph-name="emacron" unicode="&#x113;" horiz-adv-x="505" 
d="M383 630h-250v12h250v-12zM466 120l9 -5c-42 -78 -122 -125 -217 -125c-141 0 -233 103 -233 260s92 260 233 260c103 0 179 -54 213 -145l-252 -91c-89 -32 -132 -82 -114 -160c34 -72 96 -105 158 -105c77 0 155 34 203 111zM228 290l181 66c8 3 12 10 9 18
c-29 79 -86 126 -160 126c-107 0 -179 -99 -179 -250c0 -38 5 -71 13 -100c0 71 50 109 136 140z" />
    <glyph glyph-name="Ebreve" unicode="&#x114;" horiz-adv-x="535" 
d="M268 830c55 0 99 32 104 76h6c0 -62 -49 -113 -110 -113s-110 51 -110 113h6c5 -44 49 -76 104 -76zM91 379v243c0 45 -13 69 -50 73v5h421l25 -113h-8c-29 78 -66 101 -146 101h-190v-302c67 -4 142 -43 203 -43c29 0 54 11 74 35l5 -3c-22 -41 -54 -54 -92 -54
c-62 0 -130 33 -190 41v-350h165c120 0 152 22 194 123h8l-30 -135h-440v5c37 4 51 28 51 73v282c-17 -5 -32 -15 -45 -31l-5 3c13 25 30 39 50 47z" />
    <glyph glyph-name="ebreve" unicode="&#x115;" horiz-adv-x="505" 
d="M253 630c55 0 99 32 104 76h6c0 -62 -49 -113 -110 -113s-110 51 -110 113h6c5 -44 49 -76 104 -76zM466 120l9 -5c-42 -78 -122 -125 -217 -125c-141 0 -233 103 -233 260s92 260 233 260c103 0 179 -54 213 -145l-252 -91c-89 -32 -132 -82 -114 -160
c34 -72 96 -105 158 -105c77 0 155 34 203 111zM228 290l181 66c8 3 12 10 9 18c-29 79 -86 126 -160 126c-107 0 -179 -99 -179 -250c0 -38 5 -71 13 -100c0 71 50 109 136 140z" />
    <glyph glyph-name="Edotaccent" unicode="&#x116;" horiz-adv-x="535" 
d="M233 865c0 20 15 35 35 35s35 -15 35 -35s-15 -35 -35 -35s-35 15 -35 35zM91 379v243c0 45 -13 69 -50 73v5h421l25 -113h-8c-29 78 -66 101 -146 101h-190v-302c67 -4 142 -43 203 -43c29 0 54 11 74 35l5 -3c-22 -41 -54 -54 -92 -54c-62 0 -130 33 -190 41v-350h165
c120 0 152 22 194 123h8l-30 -135h-440v5c37 4 51 28 51 73v282c-17 -5 -32 -15 -45 -31l-5 3c13 25 30 39 50 47z" />
    <glyph glyph-name="edotaccent" unicode="&#x117;" horiz-adv-x="505" 
d="M218 665c0 20 15 35 35 35s35 -15 35 -35s-15 -35 -35 -35s-35 15 -35 35zM466 120l9 -5c-42 -78 -122 -125 -217 -125c-141 0 -233 103 -233 260s92 260 233 260c103 0 179 -54 213 -145l-252 -91c-89 -32 -132 -82 -114 -160c34 -72 96 -105 158 -105
c77 0 155 34 203 111zM228 290l181 66c8 3 12 10 9 18c-29 79 -86 126 -160 126c-107 0 -179 -99 -179 -250c0 -38 5 -71 13 -100c0 71 50 109 136 140z" />
    <glyph glyph-name="Eogonek" unicode="&#x118;" horiz-adv-x="535" 
d="M91 379v243c0 45 -13 69 -50 73v5h421l25 -113h-8c-29 78 -66 101 -146 101h-190v-302c67 -4 142 -43 203 -43c29 0 54 11 74 35l5 -3c-22 -41 -54 -54 -92 -54c-62 0 -130 33 -190 41v-350h165c120 0 152 22 194 123h8l-30 -135c-46 -38 -68 -73 -68 -105
c0 -24 15 -42 42 -42c14 0 30 7 43 18l4 -4c-19 -27 -49 -42 -76 -42c-34 0 -56 22 -56 56c0 39 34 80 99 119h-428v5c37 4 51 28 51 73v282c-17 -5 -32 -15 -45 -31l-5 3c13 25 30 39 50 47z" />
    <glyph glyph-name="eogonek" unicode="&#x119;" horiz-adv-x="505" 
d="M466 120l9 -5c-32 -59 -86 -101 -151 -117c-44 -36 -66 -71 -66 -103c0 -24 15 -42 42 -42c14 0 30 7 43 18l4 -4c-19 -27 -49 -42 -76 -42c-34 0 -56 22 -56 56c0 37 32 76 95 114c-16 -3 -34 -5 -52 -5c-141 0 -233 103 -233 260s92 260 233 260
c103 0 179 -54 213 -145l-252 -91c-89 -32 -132 -82 -114 -160c34 -72 96 -105 158 -105c77 0 155 34 203 111zM228 290l181 66c8 3 12 10 9 18c-29 79 -86 126 -160 126c-107 0 -179 -99 -179 -250c0 -38 5 -71 13 -100c0 71 50 109 136 140z" />
    <glyph glyph-name="Ecaron" unicode="&#x11a;" horiz-adv-x="535" 
d="M140 936l128 -88l128 88l4 -4l-132 -136l-132 136zM91 379v243c0 45 -13 69 -50 73v5h421l25 -113h-8c-29 78 -66 101 -146 101h-190v-302c67 -4 142 -43 203 -43c29 0 54 11 74 35l5 -3c-22 -41 -54 -54 -92 -54c-62 0 -130 33 -190 41v-350h165c120 0 152 22 194 123h8
l-30 -135h-440v5c37 4 51 28 51 73v282c-17 -5 -32 -15 -45 -31l-5 3c13 25 30 39 50 47z" />
    <glyph glyph-name="ecaron" unicode="&#x11b;" horiz-adv-x="505" 
d="M125 736l128 -88l128 88l4 -4l-132 -136l-132 136zM466 120l9 -5c-42 -78 -122 -125 -217 -125c-141 0 -233 103 -233 260s92 260 233 260c103 0 179 -54 213 -145l-252 -91c-89 -32 -132 -82 -114 -160c34 -72 96 -105 158 -105c77 0 155 34 203 111zM228 290l181 66
c8 3 12 10 9 18c-29 79 -86 126 -160 126c-107 0 -179 -99 -179 -250c0 -38 5 -71 13 -100c0 71 50 109 136 140z" />
    <glyph glyph-name="Gcircumflex" unicode="&#x11c;" horiz-adv-x="716" 
d="M506 796l-128 88l-128 -88l-4 4l132 136l132 -136zM396 714c69 0 145 -17 200 -64l35 45h4v-175h-8c-32 131 -136 182 -231 182c-138 0 -303 -110 -303 -352c0 -220 137 -352 307 -352c83 0 183 44 183 119v85c0 45 -14 69 -51 73v5h154v-5c-37 -4 -51 -28 -51 -73v-130
c-29 -24 -114 -86 -235 -86c-210 0 -365 139 -365 364c0 253 194 364 361 364z" />
    <glyph glyph-name="gcircumflex" unicode="&#x11d;" horiz-adv-x="508" 
d="M382 596l-128 88l-128 -88l-4 4l132 136l132 -136zM57 114c0 -139 452 38 452 -210c0 -116 -164 -183 -307 -183c-112 0 -212 41 -212 130c0 51 32 102 103 123l2 -5c-46 -27 -61 -59 -61 -94c0 -87 97 -126 203 -126c125 0 260 55 260 148c0 185 -453 9 -453 210
c0 29 16 57 43 84c-27 33 -43 75 -43 124c0 117 90 195 208 195c76 0 140 -32 176 -86c41 33 73 66 83 101c-6 -7 -15 -11 -25 -11c-19 0 -34 15 -34 34s15 34 34 34c23 0 37 -16 37 -40c0 -45 -36 -87 -88 -129c16 -28 25 -61 25 -98c0 -118 -90 -196 -208 -196
c-64 0 -120 23 -158 63c-23 -23 -37 -46 -37 -68zM97 315c0 -38 7 -71 19 -98c74 61 190 120 278 181c-23 64 -74 102 -142 102c-93 0 -155 -71 -155 -185zM122 206c26 -49 72 -77 130 -77c93 0 155 72 155 186c0 26 -3 49 -9 70c-89 -63 -205 -122 -276 -179z" />
    <glyph glyph-name="Gbreve" unicode="&#x11e;" horiz-adv-x="716" 
d="M378 830c55 0 99 32 104 76h6c0 -62 -49 -113 -110 -113s-110 51 -110 113h6c5 -44 49 -76 104 -76zM396 714c69 0 145 -17 200 -64l35 45h4v-175h-8c-32 131 -136 182 -231 182c-138 0 -303 -110 -303 -352c0 -220 137 -352 307 -352c83 0 183 44 183 119v85
c0 45 -14 69 -51 73v5h154v-5c-37 -4 -51 -28 -51 -73v-130c-29 -24 -114 -86 -235 -86c-210 0 -365 139 -365 364c0 253 194 364 361 364z" />
    <glyph glyph-name="gbreve" unicode="&#x11f;" horiz-adv-x="508" 
d="M254 630c55 0 99 32 104 76h6c0 -62 -49 -113 -110 -113s-110 51 -110 113h6c5 -44 49 -76 104 -76zM57 114c0 -139 452 38 452 -210c0 -116 -164 -183 -307 -183c-112 0 -212 41 -212 130c0 51 32 102 103 123l2 -5c-46 -27 -61 -59 -61 -94c0 -87 97 -126 203 -126
c125 0 260 55 260 148c0 185 -453 9 -453 210c0 29 16 57 43 84c-27 33 -43 75 -43 124c0 117 90 195 208 195c76 0 140 -32 176 -86c41 33 73 66 83 101c-6 -7 -15 -11 -25 -11c-19 0 -34 15 -34 34s15 34 34 34c23 0 37 -16 37 -40c0 -45 -36 -87 -88 -129
c16 -28 25 -61 25 -98c0 -118 -90 -196 -208 -196c-64 0 -120 23 -158 63c-23 -23 -37 -46 -37 -68zM97 315c0 -38 7 -71 19 -98c74 61 190 120 278 181c-23 64 -74 102 -142 102c-93 0 -155 -71 -155 -185zM122 206c26 -49 72 -77 130 -77c93 0 155 72 155 186
c0 26 -3 49 -9 70c-89 -63 -205 -122 -276 -179z" />
    <glyph glyph-name="Gdotaccent" unicode="&#x120;" horiz-adv-x="716" 
d="M343 865c0 20 15 35 35 35s35 -15 35 -35s-15 -35 -35 -35s-35 15 -35 35zM396 714c69 0 145 -17 200 -64l35 45h4v-175h-8c-32 131 -136 182 -231 182c-138 0 -303 -110 -303 -352c0 -220 137 -352 307 -352c83 0 183 44 183 119v85c0 45 -14 69 -51 73v5h154v-5
c-37 -4 -51 -28 -51 -73v-130c-29 -24 -114 -86 -235 -86c-210 0 -365 139 -365 364c0 253 194 364 361 364z" />
    <glyph glyph-name="gdotaccent" unicode="&#x121;" horiz-adv-x="508" 
d="M219 665c0 20 15 35 35 35s35 -15 35 -35s-15 -35 -35 -35s-35 15 -35 35zM57 114c0 -139 452 38 452 -210c0 -116 -164 -183 -307 -183c-112 0 -212 41 -212 130c0 51 32 102 103 123l2 -5c-46 -27 -61 -59 -61 -94c0 -87 97 -126 203 -126c125 0 260 55 260 148
c0 185 -453 9 -453 210c0 29 16 57 43 84c-27 33 -43 75 -43 124c0 117 90 195 208 195c76 0 140 -32 176 -86c41 33 73 66 83 101c-6 -7 -15 -11 -25 -11c-19 0 -34 15 -34 34s15 34 34 34c23 0 37 -16 37 -40c0 -45 -36 -87 -88 -129c16 -28 25 -61 25 -98
c0 -118 -90 -196 -208 -196c-64 0 -120 23 -158 63c-23 -23 -37 -46 -37 -68zM97 315c0 -38 7 -71 19 -98c74 61 190 120 278 181c-23 64 -74 102 -142 102c-93 0 -155 -71 -155 -185zM122 206c26 -49 72 -77 130 -77c93 0 155 72 155 186c0 26 -3 49 -9 70
c-89 -63 -205 -122 -276 -179z" />
    <glyph glyph-name="uni0122" unicode="&#x122;" horiz-adv-x="716" 
d="M396 714c69 0 145 -17 200 -64l35 45h4v-175h-8c-32 131 -136 182 -231 182c-138 0 -303 -110 -303 -352c0 -220 137 -352 307 -352c83 0 183 44 183 119v85c0 45 -14 69 -51 73v5h154v-5c-37 -4 -51 -28 -51 -73v-130c-29 -24 -114 -86 -235 -86
c-210 0 -365 139 -365 364c0 253 194 364 361 364z" />
    <glyph glyph-name="Itilde" unicode="&#x128;" horiz-adv-x="232" 
d="M-41 828l-5 2c19 51 46 75 82 75c57 0 118 -52 166 -52c26 0 50 12 70 50l5 -2c-22 -58 -51 -75 -82 -75c-57 0 -118 52 -166 52c-30 0 -52 -16 -70 -50zM91 77v546c0 45 -14 64 -51 73v4h152v-4c-37 -9 -51 -28 -51 -73v-546c0 -45 14 -64 51 -73v-4h-152v4
c37 9 51 28 51 73z" />
    <glyph glyph-name="itilde" unicode="&#x129;" horiz-adv-x="202" 
d="M-56 628l-5 2c19 51 46 75 82 75c57 0 118 -52 166 -52c26 0 50 12 70 50l5 -2c-22 -58 -51 -75 -82 -75c-57 0 -118 52 -166 52c-30 0 -52 -16 -70 -50zM30 470l96 35v-427c0 -45 14 -69 51 -73v-5h-152v5c37 4 51 28 51 73v340c0 35 -11 47 -46 47v5z" />
    <glyph glyph-name="Imacron" unicode="&#x12a;" horiz-adv-x="232" 
d="M241 842h-250v12h250v-12zM91 77v546c0 45 -14 64 -51 73v4h152v-4c-37 -9 -51 -28 -51 -73v-546c0 -45 14 -64 51 -73v-4h-152v4c37 9 51 28 51 73z" />
    <glyph glyph-name="imacron" unicode="&#x12b;" horiz-adv-x="202" 
d="M226 630h-250v12h250v-12zM30 470l96 35v-427c0 -45 14 -69 51 -73v-5h-152v5c37 4 51 28 51 73v340c0 35 -11 47 -46 47v5z" />
    <glyph glyph-name="Iogonek" unicode="&#x12e;" horiz-adv-x="232" 
d="M91 77v546c0 45 -14 64 -51 73v4h152v-4c-37 -9 -51 -28 -51 -73v-546c0 -45 14 -64 51 -73v-4c-45 -37 -68 -72 -68 -105c0 -24 15 -42 42 -42c14 0 30 7 43 18l4 -4c-19 -27 -49 -42 -76 -42c-34 0 -56 22 -56 56c0 39 35 79 104 119h-145v4c37 9 51 28 51 73z" />
    <glyph glyph-name="iogonek" unicode="&#x12f;" horiz-adv-x="202" 
d="M61 665c0 20 15 35 35 35s35 -15 35 -35s-15 -35 -35 -35s-35 15 -35 35zM30 470l96 35v-427c0 -45 14 -69 51 -73v-5c-45 -37 -68 -72 -68 -105c0 -24 15 -42 42 -42c14 0 30 7 43 18l4 -4c-19 -27 -49 -42 -76 -42c-34 0 -56 22 -56 56c0 39 35 79 104 119h-145v5
c37 4 51 28 51 73v340c0 35 -11 47 -46 47v5z" />
    <glyph glyph-name="Idotaccent" unicode="&#x130;" horiz-adv-x="232" 
d="M81 865c0 20 15 35 35 35s35 -15 35 -35s-15 -35 -35 -35s-35 15 -35 35zM91 77v546c0 45 -14 64 -51 73v4h152v-4c-37 -9 -51 -28 -51 -73v-546c0 -45 14 -64 51 -73v-4h-152v4c37 9 51 28 51 73z" />
    <glyph glyph-name="dotlessi" unicode="&#x131;" horiz-adv-x="202" 
d="M30 470l96 35v-427c0 -45 14 -69 51 -73v-5h-152v5c37 4 51 28 51 73v340c0 35 -11 47 -46 47v5z" />
    <glyph glyph-name="IJ" unicode="&#x132;" horiz-adv-x="485" 
d="M150 123c0 -23 -17 -35 -42 -34c3 -49 54 -91 112 -91c73 0 123 49 123 159v465c0 45 -13 69 -50 73v5h152v-5c-37 -4 -50 -28 -50 -73v-436c0 -145 -86 -200 -175 -200c-74 0 -141 43 -141 128c0 23 13 43 37 43c20 0 34 -14 34 -34zM91 278v345c0 45 -14 64 -51 73v4
h152v-4c-37 -9 -51 -28 -51 -73v-345c0 -45 14 -64 51 -73v-4h-152v4c37 9 51 28 51 73z" />
    <glyph glyph-name="ij" unicode="&#x133;" horiz-adv-x="399" 
d="M61 665c0 20 15 35 35 35s35 -15 35 -35s-15 -35 -35 -35s-35 15 -35 35zM263 665c0 20 15 35 35 35s35 -15 35 -35s-15 -35 -35 -35s-35 15 -35 35zM30 470l96 35v-427c0 -45 14 -69 51 -73v-5h-152v5c37 4 51 28 51 73v340c0 35 -11 47 -46 47v5zM162 -176
c0 -18 -14 -33 -32 -34c10 -17 28 -30 57 -30c36 0 91 17 91 117v541c0 35 -11 47 -46 47v5l96 35v-566c0 -159 -76 -189 -141 -189c-45 0 -93 23 -93 74c0 19 15 34 34 34s34 -15 34 -34z" />
    <glyph glyph-name="Jcircumflex" unicode="&#x134;" horiz-adv-x="436" 
d="M449 796l-128 88l-128 -88l-4 4l132 136l132 -136zM101 123c0 -23 -17 -35 -42 -34c3 -49 54 -91 112 -91c73 0 123 49 123 159v465c0 45 -13 69 -50 73v5h152v-5c-37 -4 -50 -28 -50 -73v-436c0 -145 -86 -200 -175 -200c-74 0 -141 43 -141 128c0 23 13 43 37 43
c20 0 34 -14 34 -34z" />
    <glyph glyph-name="jcircumflex" unicode="&#x135;" horiz-adv-x="197" 
d="M226 596l-128 88l-128 -88l-4 4l132 136l132 -136zM-40 -176c0 -18 -14 -33 -32 -34c10 -17 28 -30 57 -30c36 0 91 17 91 117v541c0 35 -11 47 -46 47v5l96 35v-566c0 -159 -76 -189 -141 -189c-45 0 -93 23 -93 74c0 19 15 34 34 34s34 -15 34 -34z" />
    <glyph glyph-name="Lacute" unicode="&#x139;" horiz-adv-x="505" 
d="M106 814l51 75c6 8 13 12 21 12c11 0 19 -8 19 -20c0 -7 -4 -14 -13 -20l-75 -50zM40 695v5h154v-5c-37 -4 -51 -28 -51 -73v-610h140c120 0 152 22 194 123h8l-30 -135h-415v5c37 4 51 28 51 73v544c0 45 -14 69 -51 73z" />
    <glyph glyph-name="lacute" unicode="&#x13a;" horiz-adv-x="202" 
d="M65 869l51 75c6 8 13 12 21 12c11 0 19 -8 19 -20c0 -7 -4 -14 -13 -20l-75 -50zM30 762l96 35v-719c0 -45 14 -69 51 -73v-5h-152v5c37 4 51 28 51 73v632c0 35 -11 47 -46 47v5z" />
    <glyph glyph-name="uni013B" unicode="&#x13b;" horiz-adv-x="505" 
d="M40 695v5h154v-5c-37 -4 -51 -28 -51 -73v-610h140c120 0 152 22 194 123h8l-30 -135h-415v5c37 4 51 28 51 73v544c0 45 -14 69 -51 73z" />
    <glyph glyph-name="Lcaron" unicode="&#x13d;" horiz-adv-x="505" 
d="M249 844c-19 0 -34 15 -34 35s15 35 35 35c22 0 36 -16 36 -40c0 -32 -25 -74 -60 -100l-4 4c21 20 37 45 37 58c0 6 -3 8 -10 8zM40 695v5h154v-5c-37 -4 -51 -28 -51 -73v-610h140c120 0 152 22 194 123h8l-30 -135h-415v5c37 4 51 28 51 73v544c0 45 -14 69 -51 73z
" />
    <glyph glyph-name="lcaron" unicode="&#x13e;" horiz-adv-x="373" 
d="M30 762l96 35v-719c0 -45 14 -69 51 -73v-5h-152v5c37 4 51 28 51 73v632c0 35 -11 47 -46 47v5zM286 644c-19 0 -34 15 -34 35s15 35 35 35c22 0 36 -16 36 -40c0 -32 -25 -74 -60 -100l-4 4c21 20 37 45 37 58c0 6 -3 8 -10 8z" />
    <glyph glyph-name="Ldot" unicode="&#x13f;" horiz-adv-x="505" 
d="M40 695v5h154v-5c-37 -4 -51 -28 -51 -73v-610h140c120 0 152 22 194 123h8l-30 -135h-415v5c37 4 51 28 51 73v544c0 45 -14 69 -51 73zM296 357c0 20 15 35 35 35s35 -15 35 -35s-15 -35 -35 -35s-35 15 -35 35z" />
    <glyph glyph-name="ldot" unicode="&#x140;" horiz-adv-x="371" 
d="M30 762l96 35v-719c0 -45 14 -69 51 -73v-5h-152v5c37 4 51 28 51 73v632c0 35 -11 47 -46 47v5zM251 347c0 20 15 35 35 35s35 -15 35 -35s-15 -35 -35 -35s-35 15 -35 35z" />
    <glyph glyph-name="Lslash" unicode="&#x141;" horiz-adv-x="505" 
d="M40 695v5h154v-5c-37 -4 -51 -28 -51 -73v-322l227 128v-14l-227 -128v-274h140c120 0 152 22 194 123h8l-30 -135h-415v5c37 4 51 28 51 73v181l-91 -51v14l91 51v349c0 45 -14 69 -51 73z" />
    <glyph glyph-name="lslash" unicode="&#x142;" horiz-adv-x="202" 
d="M30 762l96 35v-423l76 59v-14l-76 -59v-282c0 -45 14 -69 51 -73v-5h-152v5c37 4 51 28 51 73v246l-76 -59v14l76 59v372c0 35 -11 47 -46 47v5z" />
    <glyph glyph-name="Nacute" unicode="&#x143;" horiz-adv-x="636" 
d="M273 814l51 75c6 8 13 12 21 12c11 0 19 -8 19 -20c0 -7 -4 -14 -13 -20l-75 -50zM545 0h-14l-426 644v-567c0 -45 14 -64 51 -73v-4h-116v4c37 9 51 28 51 73v546c0 45 -14 64 -51 73v4h88l403 -609v532c0 45 -14 64 -51 73v4h116v-4c-37 -9 -51 -28 -51 -73v-623z" />
    <glyph glyph-name="nacute" unicode="&#x144;" 
d="M241 614l51 75c6 8 13 12 21 12c11 0 19 -8 19 -20c0 -7 -4 -14 -13 -20l-75 -50zM76 78v340c0 35 -11 47 -46 47v5l96 35v-132c24 68 86 137 177 137c120 0 153 -77 153 -137v-321c0 -35 13 -41 28 -41c11 0 21 4 27 9l3 -3c-11 -14 -29 -27 -51 -27c-25 0 -57 8 -57 68
v310c0 97 -46 129 -107 129c-100 0 -173 -99 -173 -184v-235c0 -45 14 -69 51 -73v-5h-152v5c37 4 51 28 51 73z" />
    <glyph glyph-name="Ncaron" unicode="&#x147;" horiz-adv-x="636" 
d="M190 936l128 -88l128 88l4 -4l-132 -136l-132 136zM545 0h-14l-426 644v-567c0 -45 14 -64 51 -73v-4h-116v4c37 9 51 28 51 73v546c0 45 -14 64 -51 73v4h88l403 -609v532c0 45 -14 64 -51 73v4h116v-4c-37 -9 -51 -28 -51 -73v-623z" />
    <glyph glyph-name="ncaron" unicode="&#x148;" 
d="M138 736l128 -88l128 88l4 -4l-132 -136l-132 136zM76 78v340c0 35 -11 47 -46 47v5l96 35v-132c24 68 86 137 177 137c120 0 153 -77 153 -137v-321c0 -35 13 -41 28 -41c11 0 21 4 27 9l3 -3c-11 -14 -29 -27 -51 -27c-25 0 -57 8 -57 68v310c0 97 -46 129 -107 129
c-100 0 -173 -99 -173 -184v-235c0 -45 14 -69 51 -73v-5h-152v5c37 4 51 28 51 73z" />
    <glyph glyph-name="Omacron" unicode="&#x14c;" horiz-adv-x="800" 
d="M525 842h-250v12h250v-12zM35 350c0 225 155 364 365 364s365 -139 365 -364s-155 -364 -365 -364s-365 139 -365 364zM93 350c0 -220 137 -352 307 -352s307 132 307 352s-137 352 -307 352s-307 -132 -307 -352z" />
    <glyph glyph-name="omacron" unicode="&#x14d;" horiz-adv-x="570" 
d="M410 630h-250v12h250v-12zM25 250c0 157 103 260 260 260s260 -103 260 -260s-103 -260 -260 -260s-260 103 -260 260zM79 250c0 -151 82 -250 206 -250s206 99 206 250s-82 250 -206 250s-206 -99 -206 -250z" />
    <glyph glyph-name="Obreve" unicode="&#x14e;" horiz-adv-x="800" 
d="M400 830c55 0 99 32 104 76h6c0 -62 -49 -113 -110 -113s-110 51 -110 113h6c5 -44 49 -76 104 -76zM35 350c0 225 155 364 365 364s365 -139 365 -364s-155 -364 -365 -364s-365 139 -365 364zM93 350c0 -220 137 -352 307 -352s307 132 307 352s-137 352 -307 352
s-307 -132 -307 -352z" />
    <glyph glyph-name="obreve" unicode="&#x14f;" horiz-adv-x="570" 
d="M285 630c55 0 99 32 104 76h6c0 -62 -49 -113 -110 -113s-110 51 -110 113h6c5 -44 49 -76 104 -76zM25 250c0 157 103 260 260 260s260 -103 260 -260s-103 -260 -260 -260s-260 103 -260 260zM79 250c0 -151 82 -250 206 -250s206 99 206 250s-82 250 -206 250
s-206 -99 -206 -250z" />
    <glyph glyph-name="Ohungarumlaut" unicode="&#x150;" horiz-adv-x="800" 
d="M321 814l51 75c6 8 13 12 21 12c11 0 19 -8 19 -20c0 -7 -4 -14 -13 -20l-75 -50zM408 814l51 75c6 8 13 12 21 12c11 0 19 -8 19 -20c0 -7 -4 -14 -13 -20l-75 -50zM35 350c0 225 155 364 365 364s365 -139 365 -364s-155 -364 -365 -364s-365 139 -365 364zM93 350
c0 -220 137 -352 307 -352s307 132 307 352s-137 352 -307 352s-307 -132 -307 -352z" />
    <glyph glyph-name="ohungarumlaut" unicode="&#x151;" horiz-adv-x="570" 
d="M216 614l51 75c6 8 13 12 21 12c11 0 19 -8 19 -20c0 -7 -4 -14 -13 -20l-75 -50zM303 614l51 75c6 8 13 12 21 12c11 0 19 -8 19 -20c0 -7 -4 -14 -13 -20l-75 -50zM25 250c0 157 103 260 260 260s260 -103 260 -260s-103 -260 -260 -260s-260 103 -260 260zM79 250
c0 -151 82 -250 206 -250s206 99 206 250s-82 250 -206 250s-206 -99 -206 -250z" />
    <glyph glyph-name="OE" unicode="&#x152;" horiz-adv-x="967" 
d="M912 0h-512c-210 0 -365 134 -365 350s155 350 365 350h494l25 -113h-8c-29 78 -66 101 -146 101h-190v-302c67 -4 142 -43 203 -43c29 0 54 11 74 35l5 -3c-22 -41 -54 -54 -92 -54c-62 0 -130 33 -190 41v-350h165c120 0 152 22 194 123h8zM523 85v275
c-17 -5 -32 -15 -45 -31l-5 3c13 25 30 39 50 47v236c0 49 -22 73 -65 73h-58c-170 0 -307 -126 -307 -338s137 -338 307 -338h58c43 0 65 24 65 73z" />
    <glyph glyph-name="oe" unicode="&#x153;" horiz-adv-x="971" 
d="M25 250c0 157 103 260 260 260c108 0 190 -48 231 -130c37 82 111 130 208 130c103 0 179 -54 213 -145l-252 -91c-89 -32 -132 -82 -114 -160c34 -72 96 -105 158 -105c77 0 155 34 203 111l9 -5c-42 -78 -122 -125 -217 -125c-97 0 -171 48 -208 130
c-41 -82 -123 -130 -231 -130c-157 0 -260 103 -260 260zM79 250c0 -151 82 -250 206 -250s206 99 206 250s-82 250 -206 250s-206 -99 -206 -250zM694 290l181 66c8 3 12 10 9 18c-29 79 -86 126 -160 126c-107 0 -179 -99 -179 -250c0 -38 5 -71 13 -100
c0 71 50 109 136 140z" />
    <glyph glyph-name="Racute" unicode="&#x154;" horiz-adv-x="546" 
d="M246 814l51 75c6 8 13 12 21 12c11 0 19 -8 19 -20c0 -7 -4 -14 -13 -20l-75 -50zM250 376h-107v-298c0 -45 14 -69 51 -73v-5h-154v5c37 4 51 28 51 73v544c0 45 -14 69 -51 73v5h230c120 0 203 -63 203 -164c0 -93 -76 -152 -183 -159v-2c123 -48 147 -342 276 -367v-8
c-225 0 -205 376 -316 376zM143 688v-300h120c110 0 158 61 158 149c0 90 -48 151 -158 151h-120z" />
    <glyph glyph-name="racute" unicode="&#x155;" horiz-adv-x="368" 
d="M169 614l51 75c6 8 13 12 21 12c11 0 19 -8 19 -20c0 -7 -4 -14 -13 -20l-75 -50zM76 78v340c0 35 -11 47 -46 47v5l96 35v-185c26 121 81 190 157 190c46 0 75 -24 75 -64c0 -19 -15 -34 -34 -34s-34 15 -34 34c0 18 14 33 32 34c-10 10 -26 15 -43 15
c-84 0 -153 -122 -153 -270v-147c0 -45 14 -69 51 -73v-5h-152v5c37 4 51 28 51 73z" />
    <glyph glyph-name="Rcaron" unicode="&#x158;" horiz-adv-x="546" 
d="M143 936l128 -88l128 88l4 -4l-132 -136l-132 136zM250 376h-107v-298c0 -45 14 -69 51 -73v-5h-154v5c37 4 51 28 51 73v544c0 45 -14 69 -51 73v5h230c120 0 203 -63 203 -164c0 -93 -76 -152 -183 -159v-2c123 -48 147 -342 276 -367v-8c-225 0 -205 376 -316 376z
M143 688v-300h120c110 0 158 61 158 149c0 90 -48 151 -158 151h-120z" />
    <glyph glyph-name="rcaron" unicode="&#x159;" horiz-adv-x="368" 
d="M56 736l128 -88l128 88l4 -4l-132 -136l-132 136zM76 78v340c0 35 -11 47 -46 47v5l96 35v-185c26 121 81 190 157 190c46 0 75 -24 75 -64c0 -19 -15 -34 -34 -34s-34 15 -34 34c0 18 14 33 32 34c-10 10 -26 15 -43 15c-84 0 -153 -122 -153 -270v-147
c0 -45 14 -69 51 -73v-5h-152v5c37 4 51 28 51 73z" />
    <glyph glyph-name="Sacute" unicode="&#x15a;" horiz-adv-x="524" 
d="M217 814l51 75c6 8 13 12 21 12c11 0 19 -8 19 -20c0 -7 -4 -14 -13 -20l-75 -50zM81 576c0 -213 413 -159 413 -415c0 -120 -109 -175 -225 -175c-83 0 -139 21 -191 70l-44 -56h-4v205h8c32 -161 138 -207 228 -207c105 0 187 54 187 139c0 226 -413 174 -413 417
c0 107 92 160 202 160c78 0 136 -24 176 -62l34 43h4v-165h-8c-27 132 -117 172 -207 172c-95 0 -160 -54 -160 -126z" />
    <glyph glyph-name="sacute" unicode="&#x15b;" horiz-adv-x="391" 
d="M160 614l51 75c6 8 13 12 21 12c11 0 19 -8 19 -20c0 -7 -4 -14 -13 -20l-75 -50zM68 406c0 -141 298 -102 298 -285c0 -91 -79 -131 -169 -131c-59 0 -103 19 -137 51l-32 -41h-3v148h6c26 -104 97 -148 171 -148c69 0 128 39 128 102c0 149 -298 113 -298 288
c0 70 67 120 152 120c56 0 97 -18 126 -46l26 32h3v-124h-6c-26 93 -83 128 -146 128c-75 0 -119 -42 -119 -94z" />
    <glyph glyph-name="Scircumflex" unicode="&#x15c;" horiz-adv-x="524" 
d="M390 796l-128 88l-128 -88l-4 4l132 136l132 -136zM81 576c0 -213 413 -159 413 -415c0 -120 -109 -175 -225 -175c-83 0 -139 21 -191 70l-44 -56h-4v205h8c32 -161 138 -207 228 -207c105 0 187 54 187 139c0 226 -413 174 -413 417c0 107 92 160 202 160
c78 0 136 -24 176 -62l34 43h4v-165h-8c-27 132 -117 172 -207 172c-95 0 -160 -54 -160 -126z" />
    <glyph glyph-name="scircumflex" unicode="&#x15d;" horiz-adv-x="391" 
d="M324 596l-128 88l-128 -88l-4 4l132 136l132 -136zM68 406c0 -141 298 -102 298 -285c0 -91 -79 -131 -169 -131c-59 0 -103 19 -137 51l-32 -41h-3v148h6c26 -104 97 -148 171 -148c69 0 128 39 128 102c0 149 -298 113 -298 288c0 70 67 120 152 120
c56 0 97 -18 126 -46l26 32h3v-124h-6c-26 93 -83 128 -146 128c-75 0 -119 -42 -119 -94z" />
    <glyph glyph-name="Scedilla" unicode="&#x15e;" horiz-adv-x="524" 
d="M81 576c0 -213 413 -159 413 -415c0 -115 -100 -171 -211 -175l-3 -5c-4 -7 -6 -13 -6 -19c0 -31 52 -39 52 -82c0 -38 -31 -55 -64 -55c-25 0 -53 13 -69 42l4 4c13 -11 29 -18 43 -18c27 0 41 10 41 34c0 27 -20 39 -20 61c0 13 3 20 9 29l6 9c-80 0 -139 14 -198 70
l-44 -56h-4v205h8c32 -161 138 -207 228 -207c105 0 187 54 187 139c0 226 -413 174 -413 417c0 107 92 160 202 160c78 0 136 -24 176 -62l34 43h4v-165h-8c-27 132 -117 172 -207 172c-95 0 -160 -54 -160 -126z" />
    <glyph glyph-name="scedilla" unicode="&#x15f;" horiz-adv-x="391" 
d="M68 406c0 -141 298 -102 298 -285c0 -86 -71 -126 -154 -131l-6 -9c-4 -7 -6 -13 -6 -19c0 -31 52 -39 52 -82c0 -38 -31 -55 -64 -55c-25 0 -53 13 -69 42l4 4c13 -11 29 -18 43 -18c27 0 41 10 41 34c0 27 -20 39 -20 61c0 12 2 19 9 29l9 13c-56 0 -103 11 -145 51
l-32 -41h-3v148h6c26 -104 97 -148 171 -148c69 0 128 39 128 102c0 149 -298 113 -298 288c0 70 67 120 152 120c56 0 97 -18 126 -46l26 32h3v-124h-6c-26 93 -83 128 -146 128c-75 0 -119 -42 -119 -94z" />
    <glyph glyph-name="Scaron" unicode="&#x160;" horiz-adv-x="524" 
d="M134 936l128 -88l128 88l4 -4l-132 -136l-132 136zM81 576c0 -213 413 -159 413 -415c0 -120 -109 -175 -225 -175c-83 0 -139 21 -191 70l-44 -56h-4v205h8c32 -161 138 -207 228 -207c105 0 187 54 187 139c0 226 -413 174 -413 417c0 107 92 160 202 160
c78 0 136 -24 176 -62l34 43h4v-165h-8c-27 132 -117 172 -207 172c-95 0 -160 -54 -160 -126z" />
    <glyph glyph-name="scaron" unicode="&#x161;" horiz-adv-x="391" 
d="M68 736l128 -88l128 88l4 -4l-132 -136l-132 136zM68 406c0 -141 298 -102 298 -285c0 -91 -79 -131 -169 -131c-59 0 -103 19 -137 51l-32 -41h-3v148h6c26 -104 97 -148 171 -148c69 0 128 39 128 102c0 149 -298 113 -298 288c0 70 67 120 152 120
c56 0 97 -18 126 -46l26 32h3v-124h-6c-26 93 -83 128 -146 128c-75 0 -119 -42 -119 -94z" />
    <glyph glyph-name="uni0162" unicode="&#x162;" horiz-adv-x="580" 
d="M406 688h-90v-610c0 -45 14 -69 51 -73v-5h-77l-10 -17c-4 -7 -6 -13 -6 -19c0 -31 52 -39 52 -82c0 -38 -31 -55 -64 -55c-25 0 -53 13 -69 42l4 4c13 -11 29 -18 43 -18c27 0 41 10 41 34c0 27 -20 39 -20 61c0 13 3 20 9 29l15 21h-72v5c37 4 51 28 51 73v610h-90
c-80 0 -117 -23 -146 -101h-8l25 113h490l25 -113h-8c-29 78 -66 101 -146 101z" />
    <glyph glyph-name="uni0163" unicode="&#x163;" horiz-adv-x="255" 
d="M120 606v-106h140v-12h-140v-412c0 -58 37 -65 55 -65s58 9 75 59l5 -1c-13 -51 -49 -77 -92 -79l-5 -9c-4 -7 -6 -13 -6 -19c0 -31 52 -39 52 -82c0 -38 -31 -55 -64 -55c-25 0 -53 13 -69 42l4 4c13 -11 29 -18 43 -18c27 0 41 10 41 34c0 27 -20 39 -20 61
c0 12 2 19 9 29l9 13c-49 1 -87 31 -87 98v400h-60v12c63 0 100 39 100 106h10z" />
    <glyph glyph-name="Tcaron" unicode="&#x164;" horiz-adv-x="580" 
d="M162 936l128 -88l128 88l4 -4l-132 -136l-132 136zM406 688h-90v-610c0 -45 14 -69 51 -73v-5h-154v5c37 4 51 28 51 73v610h-90c-80 0 -117 -23 -146 -101h-8l25 113h490l25 -113h-8c-29 78 -66 101 -146 101z" />
    <glyph glyph-name="tcaron" unicode="&#x165;" horiz-adv-x="416" 
d="M329 644c-19 0 -34 15 -34 35s15 35 35 35c22 0 36 -16 36 -40c0 -32 -25 -74 -60 -100l-4 4c21 20 37 45 37 58c0 6 -3 8 -10 8zM120 606v-106h140v-12h-140v-412c0 -58 37 -65 55 -65s58 9 75 59l5 -1c-13 -53 -51 -79 -96 -79c-50 0 -89 30 -89 98v400h-60v12
c63 0 100 39 100 106h10z" />
    <glyph glyph-name="Tbar" unicode="&#x166;" horiz-adv-x="580" 
d="M406 688h-90v-258h114v-12h-114v-340c0 -45 14 -69 51 -73v-5h-154v5c37 4 51 28 51 73v340h-114v12h114v258h-90c-80 0 -117 -23 -146 -101h-8l25 113h490l25 -113h-8c-29 78 -66 101 -146 101z" />
    <glyph glyph-name="tbar" unicode="&#x167;" horiz-adv-x="255" 
d="M120 606v-106h140v-12h-140v-131h140v-12h-140v-269c0 -58 37 -65 55 -65s58 9 75 59l5 -1c-13 -53 -51 -79 -96 -79c-50 0 -89 30 -89 98v257h-60v12h60v131h-60v12c63 0 100 39 100 106h10z" />
    <glyph glyph-name="Utilde" unicode="&#x168;" horiz-adv-x="635" 
d="M161 828l-5 2c19 51 46 75 82 75c57 0 118 -52 166 -52c26 0 50 12 70 50l5 -2c-22 -58 -51 -75 -82 -75c-57 0 -118 52 -166 52c-30 0 -52 -16 -70 -50zM544 622v-405c0 -150 -92 -231 -223 -231s-231 66 -231 231v405c0 45 -13 69 -50 73v5h152v-5
c-37 -4 -50 -28 -50 -73v-410c0 -135 81 -208 189 -208c110 0 199 78 199 208v410c0 45 -14 69 -51 73v5h116v-5c-37 -4 -51 -28 -51 -73z" />
    <glyph glyph-name="utilde" unicode="&#x169;" 
d="M110 628l-5 2c19 51 46 75 82 75c57 0 118 -52 166 -52c26 0 50 12 70 50l5 -2c-22 -58 -51 -75 -82 -75c-57 0 -118 52 -166 52c-30 0 -52 -16 -70 -50zM71 134v284c0 35 -11 47 -46 47v5l96 35v-373c0 -97 47 -129 109 -129c102 0 176 99 176 184v231
c0 35 -11 47 -46 47v5l96 35v-453c0 -35 13 -41 28 -41c11 0 21 4 27 9l3 -3c-11 -14 -29 -27 -51 -27c-25 0 -57 8 -57 68v70c-24 -68 -88 -138 -180 -138c-125 0 -155 74 -155 144z" />
    <glyph glyph-name="Umacron" unicode="&#x16a;" horiz-adv-x="635" 
d="M443 842h-250v12h250v-12zM544 622v-405c0 -150 -92 -231 -223 -231s-231 66 -231 231v405c0 45 -13 69 -50 73v5h152v-5c-37 -4 -50 -28 -50 -73v-410c0 -135 81 -208 189 -208c110 0 199 78 199 208v410c0 45 -14 69 -51 73v5h116v-5c-37 -4 -51 -28 -51 -73z" />
    <glyph glyph-name="umacron" unicode="&#x16b;" 
d="M385 630h-250v12h250v-12zM71 134v284c0 35 -11 47 -46 47v5l96 35v-373c0 -97 47 -129 109 -129c102 0 176 99 176 184v231c0 35 -11 47 -46 47v5l96 35v-453c0 -35 13 -41 28 -41c11 0 21 4 27 9l3 -3c-11 -14 -29 -27 -51 -27c-25 0 -57 8 -57 68v70
c-24 -68 -88 -138 -180 -138c-125 0 -155 74 -155 144z" />
    <glyph glyph-name="Ubreve" unicode="&#x16c;" horiz-adv-x="635" 
d="M318 830c55 0 99 32 104 76h6c0 -62 -49 -113 -110 -113s-110 51 -110 113h6c5 -44 49 -76 104 -76zM544 622v-405c0 -150 -92 -231 -223 -231s-231 66 -231 231v405c0 45 -13 69 -50 73v5h152v-5c-37 -4 -50 -28 -50 -73v-410c0 -135 81 -208 189 -208
c110 0 199 78 199 208v410c0 45 -14 69 -51 73v5h116v-5c-37 -4 -51 -28 -51 -73z" />
    <glyph glyph-name="ubreve" unicode="&#x16d;" 
d="M266 630c55 0 99 32 104 76h6c0 -62 -49 -113 -110 -113s-110 51 -110 113h6c5 -44 49 -76 104 -76zM71 134v284c0 35 -11 47 -46 47v5l96 35v-373c0 -97 47 -129 109 -129c102 0 176 99 176 184v231c0 35 -11 47 -46 47v5l96 35v-453c0 -35 13 -41 28 -41
c11 0 21 4 27 9l3 -3c-11 -14 -29 -27 -51 -27c-25 0 -57 8 -57 68v70c-24 -68 -88 -138 -180 -138c-125 0 -155 74 -155 144z" />
    <glyph glyph-name="Uring" unicode="&#x16e;" horiz-adv-x="635" 
d="M246 865c0 41 31 72 72 72s72 -31 72 -72s-31 -72 -72 -72s-72 31 -72 72zM256 865c0 -35 27 -62 62 -62s62 27 62 62s-27 62 -62 62s-62 -27 -62 -62zM544 622v-405c0 -150 -92 -231 -223 -231s-231 66 -231 231v405c0 45 -13 69 -50 73v5h152v-5
c-37 -4 -50 -28 -50 -73v-410c0 -135 81 -208 189 -208c110 0 199 78 199 208v410c0 45 -14 69 -51 73v5h116v-5c-37 -4 -51 -28 -51 -73z" />
    <glyph glyph-name="uring" unicode="&#x16f;" 
d="M194 665c0 41 31 72 72 72s72 -31 72 -72s-31 -72 -72 -72s-72 31 -72 72zM204 665c0 -35 27 -62 62 -62s62 27 62 62s-27 62 -62 62s-62 -27 -62 -62zM71 134v284c0 35 -11 47 -46 47v5l96 35v-373c0 -97 47 -129 109 -129c102 0 176 99 176 184v231c0 35 -11 47 -46 47
v5l96 35v-453c0 -35 13 -41 28 -41c11 0 21 4 27 9l3 -3c-11 -14 -29 -27 -51 -27c-25 0 -57 8 -57 68v70c-24 -68 -88 -138 -180 -138c-125 0 -155 74 -155 144z" />
    <glyph glyph-name="Uhungarumlaut" unicode="&#x170;" horiz-adv-x="635" 
d="M249 814l51 75c6 8 13 12 21 12c11 0 19 -8 19 -20c0 -7 -4 -14 -13 -20l-75 -50zM336 814l51 75c6 8 13 12 21 12c11 0 19 -8 19 -20c0 -7 -4 -14 -13 -20l-75 -50zM544 622v-405c0 -150 -92 -231 -223 -231s-231 66 -231 231v405c0 45 -13 69 -50 73v5h152v-5
c-37 -4 -50 -28 -50 -73v-410c0 -135 81 -208 189 -208c110 0 199 78 199 208v410c0 45 -14 69 -51 73v5h116v-5c-37 -4 -51 -28 -51 -73z" />
    <glyph glyph-name="uhungarumlaut" unicode="&#x171;" 
d="M197 614l51 75c6 8 13 12 21 12c11 0 19 -8 19 -20c0 -7 -4 -14 -13 -20l-75 -50zM284 614l51 75c6 8 13 12 21 12c11 0 19 -8 19 -20c0 -7 -4 -14 -13 -20l-75 -50zM71 134v284c0 35 -11 47 -46 47v5l96 35v-373c0 -97 47 -129 109 -129c102 0 176 99 176 184v231
c0 35 -11 47 -46 47v5l96 35v-453c0 -35 13 -41 28 -41c11 0 21 4 27 9l3 -3c-11 -14 -29 -27 -51 -27c-25 0 -57 8 -57 68v70c-24 -68 -88 -138 -180 -138c-125 0 -155 74 -155 144z" />
    <glyph glyph-name="Uogonek" unicode="&#x172;" horiz-adv-x="635" 
d="M544 622v-405c0 -140 -80 -220 -198 -230c-35 -32 -53 -63 -53 -92c0 -24 15 -42 42 -42c14 0 30 7 43 18l4 -4c-19 -27 -49 -42 -76 -42c-34 0 -56 22 -56 56c0 35 28 70 81 105c-152 0 -241 73 -241 231v405c0 45 -13 69 -50 73v5h152v-5c-37 -4 -50 -28 -50 -73v-410
c0 -135 81 -208 189 -208c110 0 199 78 199 208v410c0 45 -14 69 -51 73v5h116v-5c-37 -4 -51 -28 -51 -73z" />
    <glyph glyph-name="uogonek" unicode="&#x173;" 
d="M71 134v284c0 35 -11 47 -46 47v5l96 35v-373c0 -97 47 -129 109 -129c102 0 176 99 176 184v231c0 35 -11 47 -46 47v5l96 35v-453c0 -35 13 -41 28 -41c11 0 21 4 27 9l3 -3c-6 -8 -15 -16 -26 -21c-42 -36 -63 -69 -63 -101c0 -24 15 -42 42 -42c14 0 30 7 43 18l4 -4
c-19 -27 -49 -42 -76 -42c-34 0 -56 22 -56 56c0 36 30 73 88 109c-47 0 -64 20 -64 68v70c-24 -68 -88 -138 -180 -138c-125 0 -155 74 -155 144z" />
    <glyph glyph-name="Wcircumflex" unicode="&#x174;" horiz-adv-x="1028" 
d="M642 796l-128 88l-128 -88l-4 4l132 136l132 -136zM288 -14l-207 636c-16 49 -34 67 -71 73v5h161v-5c-37 -4 -49 -30 -35 -73l180 -563l211 641h15l203 -635l187 557c14 42 2 69 -35 73v5h121v-5c-37 -6 -55 -25 -71 -73l-217 -636h-12l-204 630l-211 -630h-15z" />
    <glyph glyph-name="wcircumflex" unicode="&#x175;" horiz-adv-x="778" 
d="M531 596l-128 88l-128 -88l-4 4l132 136l132 -136zM118 422l128 -363l152 441h20l156 -441l125 363c14 42 11 69 -26 73v5h115v-5c-38 -5 -60 -31 -74 -73l-149 -432h-20l-156 441l-152 -441h-20l-153 432c-15 42 -36 68 -74 73v5h154v-5c-37 -4 -41 -31 -26 -73z" />
    <glyph glyph-name="Ycircumflex" unicode="&#x176;" horiz-adv-x="610" 
d="M433 796l-128 88l-128 -88l-4 4l132 136l132 -136zM384 0h-154v5c37 4 51 28 51 73v244l-173 300c-24 42 -47 63 -98 73v5h166v-5c-35 -9 -30 -35 -8 -73l158 -277l159 277c22 38 27 64 -8 73v5h123v-5c-51 -10 -74 -31 -98 -73l-169 -293v-251c0 -45 14 -69 51 -73v-5z
" />
    <glyph glyph-name="ycircumflex" unicode="&#x177;" horiz-adv-x="481" 
d="M369 596l-128 88l-128 -88l-4 4l132 136l132 -136zM119 422l141 -367l121 315c16 42 31 121 -6 125v5h116v-5c-38 -5 -58 -31 -74 -73l-202 -526c-38 -98 -86 -122 -136 -122c-45 0 -89 24 -89 74c0 19 15 34 34 34s34 -15 34 -34s-15 -33 -33 -34c9 -17 28 -30 58 -30
s79 14 115 109l35 92l-168 437c-16 42 -36 68 -74 73v5h154v-5c-37 -4 -42 -31 -26 -73z" />
    <glyph glyph-name="Ydieresis" unicode="&#x178;" horiz-adv-x="610" 
d="M213 865c0 20 15 35 35 35s35 -15 35 -35s-15 -35 -35 -35s-35 15 -35 35zM328 865c0 20 15 35 35 35s35 -15 35 -35s-15 -35 -35 -35s-35 15 -35 35zM384 0h-154v5c37 4 51 28 51 73v244l-173 300c-24 42 -47 63 -98 73v5h166v-5c-35 -9 -30 -35 -8 -73l158 -277
l159 277c22 38 27 64 -8 73v5h123v-5c-51 -10 -74 -31 -98 -73l-169 -293v-251c0 -45 14 -69 51 -73v-5z" />
    <glyph glyph-name="Zacute" unicode="&#x179;" horiz-adv-x="557" 
d="M270 814l51 75c6 8 13 12 21 12c11 0 19 -8 19 -20c0 -7 -4 -14 -13 -20l-75 -50zM85 700h442l-430 -688h228c120 0 152 22 194 123h8l-30 -135h-467l430 688h-246c-80 0 -117 -23 -146 -101h-8z" />
    <glyph glyph-name="zacute" unicode="&#x17a;" horiz-adv-x="418" 
d="M184 614l51 75c6 8 13 12 21 12c11 0 19 -8 19 -20c0 -7 -4 -14 -13 -20l-75 -50zM363 0h-343l310 488h-139c-85 0 -117 -23 -146 -101h-5l25 113h333l-310 -488h106c125 0 152 22 194 123h5z" />
    <glyph glyph-name="Zdotaccent" unicode="&#x17b;" horiz-adv-x="557" 
d="M244 865c0 20 15 35 35 35s35 -15 35 -35s-15 -35 -35 -35s-35 15 -35 35zM85 700h442l-430 -688h228c120 0 152 22 194 123h8l-30 -135h-467l430 688h-246c-80 0 -117 -23 -146 -101h-8z" />
    <glyph glyph-name="zdotaccent" unicode="&#x17c;" horiz-adv-x="418" 
d="M174 665c0 20 15 35 35 35s35 -15 35 -35s-15 -35 -35 -35s-35 15 -35 35zM363 0h-343l310 488h-139c-85 0 -117 -23 -146 -101h-5l25 113h333l-310 -488h106c125 0 152 22 194 123h5z" />
    <glyph glyph-name="Zcaron" unicode="&#x17d;" horiz-adv-x="557" 
d="M174 936l128 -88l128 88l4 -4l-132 -136l-132 136zM85 700h442l-430 -688h228c120 0 152 22 194 123h8l-30 -135h-467l430 688h-246c-80 0 -117 -23 -146 -101h-8z" />
    <glyph glyph-name="zcaron" unicode="&#x17e;" horiz-adv-x="418" 
d="M81 736l128 -88l128 88l4 -4l-132 -136l-132 136zM363 0h-343l310 488h-139c-85 0 -117 -23 -146 -101h-5l25 113h333l-310 -488h106c125 0 152 22 194 123h5z" />
    <glyph glyph-name="circumflex" unicode="&#x2c6;" horiz-adv-x="364" 
d="M310 596l-128 88l-128 -88l-4 4l132 136l132 -136z" />
    <glyph glyph-name="caron" unicode="&#x2c7;" horiz-adv-x="364" 
d="M54 736l128 -88l128 88l4 -4l-132 -136l-132 136z" />
    <glyph glyph-name="breve" unicode="&#x2d8;" horiz-adv-x="340" 
d="M170 630c55 0 99 32 104 76h6c0 -62 -49 -113 -110 -113s-110 51 -110 113h6c5 -44 49 -76 104 -76z" />
    <glyph glyph-name="dotaccent" unicode="&#x2d9;" horiz-adv-x="170" 
d="M50 665c0 20 15 35 35 35s35 -15 35 -35s-15 -35 -35 -35s-35 15 -35 35z" />
    <glyph glyph-name="ring" unicode="&#x2da;" horiz-adv-x="244" 
d="M50 665c0 41 31 72 72 72s72 -31 72 -72s-31 -72 -72 -72s-72 31 -72 72zM60 665c0 -35 27 -62 62 -62s62 27 62 62s-27 62 -62 62s-62 -27 -62 -62z" />
    <glyph glyph-name="ogonek" unicode="&#x2db;" horiz-adv-x="232" 
d="M159 3l2 -3c-45 -37 -68 -72 -68 -105c0 -24 15 -42 42 -42c14 0 30 7 43 18l4 -4c-19 -27 -49 -42 -76 -42c-34 0 -56 22 -56 56c0 40 37 81 109 122z" />
    <glyph glyph-name="tilde" unicode="&#x2dc;" horiz-adv-x="403" 
d="M45 628l-5 2c19 51 46 75 82 75c57 0 118 -52 166 -52c26 0 50 12 70 50l5 -2c-22 -58 -51 -75 -82 -75c-57 0 -118 52 -166 52c-30 0 -52 -16 -70 -50z" />
    <glyph glyph-name="hungarumlaut" unicode="&#x2dd;" horiz-adv-x="298" 
d="M60 614l51 75c6 8 13 12 21 12c11 0 19 -8 19 -20c0 -7 -4 -14 -13 -20l-75 -50zM147 614l51 75c6 8 13 12 21 12c11 0 19 -8 19 -20c0 -7 -4 -14 -13 -20l-75 -50z" />
    <glyph glyph-name="uni1021" unicode="&#x1021;" horiz-adv-x="1332" 
d="M138 392c0 -19 -15 -34 -34 -34s-34 15 -34 34c0 65 75 118 167 118c126 0 177 -70 183 -139c97 34 179 72 199 134h4v-128c24 67 83 133 170 133c114 0 146 -76 146 -136c23 68 83 136 171 136c115 0 146 -77 146 -137v-321c0 -35 13 -41 28 -41c11 0 21 4 27 9l3 -3
c-11 -14 -29 -27 -51 -27c-25 0 -57 8 -57 68v310c0 97 -44 129 -102 129c-95 0 -165 -99 -165 -184v-235c0 -45 14 -69 51 -73v-5h-152v5c37 4 51 28 51 73v290c0 97 -44 129 -102 129c-88 0 -155 -86 -164 -166v-253c0 -45 14 -69 51 -73v-5h-152v5c37 4 51 28 51 73v354
c-41 -30 -95 -54 -152 -75v-305c0 -35 13 -41 28 -41c11 0 21 4 27 9l3 -3c-11 -14 -29 -27 -51 -27c-25 0 -57 8 -57 68v151c-36 -112 -104 -219 -216 -219c-70 0 -125 37 -125 107c0 148 179 204 341 258v19c0 99 -84 126 -134 126c-62 0 -118 -31 -137 -74
c21 0 38 -11 38 -34zM371 242v97c-142 -51 -287 -101 -287 -238c0 -60 32 -98 82 -98c96 0 170 122 205 239z" />
    <glyph glyph-name="Wgrave" unicode="&#x1e80;" horiz-adv-x="1028" 
d="M485 889l51 -75l-3 -3l-75 50c-9 6 -13 13 -13 20c0 12 8 20 19 20c8 0 15 -4 21 -12zM288 -14l-207 636c-16 49 -34 67 -71 73v5h161v-5c-37 -4 -49 -30 -35 -73l180 -563l211 641h15l203 -635l187 557c14 42 2 69 -35 73v5h121v-5c-37 -6 -55 -25 -71 -73l-217 -636
h-12l-204 630l-211 -630h-15z" />
    <glyph glyph-name="wgrave" unicode="&#x1e81;" horiz-adv-x="778" 
d="M364 689l51 -75l-3 -3l-75 50c-9 6 -13 13 -13 20c0 12 8 20 19 20c8 0 15 -4 21 -12zM118 422l128 -363l152 441h20l156 -441l125 363c14 42 11 69 -26 73v5h115v-5c-38 -5 -60 -31 -74 -73l-149 -432h-20l-156 441l-152 -441h-20l-153 432c-15 42 -36 68 -74 73v5h154
v-5c-37 -4 -41 -31 -26 -73z" />
    <glyph glyph-name="Wacute" unicode="&#x1e82;" horiz-adv-x="1028" 
d="M538 814l51 75c6 8 13 12 21 12c11 0 19 -8 19 -20c0 -7 -4 -14 -13 -20l-75 -50zM288 -14l-207 636c-16 49 -34 67 -71 73v5h161v-5c-37 -4 -49 -30 -35 -73l180 -563l211 641h15l203 -635l187 557c14 42 2 69 -35 73v5h121v-5c-37 -6 -55 -25 -71 -73l-217 -636h-12
l-204 630l-211 -630h-15z" />
    <glyph glyph-name="wacute" unicode="&#x1e83;" horiz-adv-x="778" 
d="M404 614l51 75c6 8 13 12 21 12c11 0 19 -8 19 -20c0 -7 -4 -14 -13 -20l-75 -50zM118 422l128 -363l152 441h20l156 -441l125 363c14 42 11 69 -26 73v5h115v-5c-38 -5 -60 -31 -74 -73l-149 -432h-20l-156 441l-152 -441h-20l-153 432c-15 42 -36 68 -74 73v5h154v-5
c-37 -4 -41 -31 -26 -73z" />
    <glyph glyph-name="Wdieresis" unicode="&#x1e84;" horiz-adv-x="1028" 
d="M422 865c0 20 15 35 35 35s35 -15 35 -35s-15 -35 -35 -35s-35 15 -35 35zM537 865c0 20 15 35 35 35s35 -15 35 -35s-15 -35 -35 -35s-35 15 -35 35zM288 -14l-207 636c-16 49 -34 67 -71 73v5h161v-5c-37 -4 -49 -30 -35 -73l180 -563l211 641h15l203 -635l187 557
c14 42 2 69 -35 73v5h121v-5c-37 -6 -55 -25 -71 -73l-217 -636h-12l-204 630l-211 -630h-15z" />
    <glyph glyph-name="wdieresis" unicode="&#x1e85;" horiz-adv-x="778" 
d="M312 665c0 20 15 35 35 35s35 -15 35 -35s-15 -35 -35 -35s-35 15 -35 35zM427 665c0 20 15 35 35 35s35 -15 35 -35s-15 -35 -35 -35s-35 15 -35 35zM118 422l128 -363l152 441h20l156 -441l125 363c14 42 11 69 -26 73v5h115v-5c-38 -5 -60 -31 -74 -73l-149 -432h-20
l-156 441l-152 -441h-20l-153 432c-15 42 -36 68 -74 73v5h154v-5c-37 -4 -41 -31 -26 -73z" />
    <glyph glyph-name="endash" unicode="&#x2013;" horiz-adv-x="445" 
d="M435 295h-425v20h425v-20z" />
    <glyph glyph-name="emdash" unicode="&#x2014;" horiz-adv-x="940" 
d="M930 295h-920v20h920v-20z" />
    <glyph glyph-name="quoteleft" unicode="&#x2018;" horiz-adv-x="171" 
d="M87 644c19 0 34 -15 34 -35s-15 -35 -35 -35c-22 0 -36 16 -36 40c0 32 25 74 60 100l4 -4c-21 -20 -37 -45 -37 -58c0 -6 3 -8 10 -8z" />
    <glyph glyph-name="quoteright" unicode="&#x2019;" horiz-adv-x="171" 
d="M84 644c-19 0 -34 15 -34 35s15 35 35 35c22 0 36 -16 36 -40c0 -32 -25 -74 -60 -100l-4 4c21 20 37 45 37 58c0 6 -3 8 -10 8z" />
    <glyph glyph-name="quotesinglbase" unicode="&#x201a;" horiz-adv-x="171" 
d="M84 -10c-19 0 -34 15 -34 35s15 35 35 35c22 0 36 -16 36 -40c0 -32 -25 -74 -60 -100l-4 4c21 20 37 45 37 58c0 6 -3 8 -10 8z" />
    <glyph glyph-name="quotedblleft" unicode="&#x201c;" horiz-adv-x="277" 
d="M87 644c19 0 34 -15 34 -35s-15 -35 -35 -35c-22 0 -36 16 -36 40c0 32 25 74 60 100l4 -4c-21 -20 -37 -45 -37 -58c0 -6 3 -8 10 -8zM193 644c19 0 34 -15 34 -35s-15 -35 -35 -35c-22 0 -36 16 -36 40c0 32 25 74 60 100l4 -4c-21 -20 -37 -45 -37 -58
c0 -6 3 -8 10 -8z" />
    <glyph glyph-name="quotedblright" unicode="&#x201d;" horiz-adv-x="277" 
d="M190 644c-19 0 -34 15 -34 35s15 35 35 35c22 0 36 -16 36 -40c0 -32 -25 -74 -60 -100l-4 4c21 20 37 45 37 58c0 6 -3 8 -10 8zM84 644c-19 0 -34 15 -34 35s15 35 35 35c22 0 36 -16 36 -40c0 -32 -25 -74 -60 -100l-4 4c21 20 37 45 37 58c0 6 -3 8 -10 8z" />
    <glyph glyph-name="quotedblbase" unicode="&#x201e;" horiz-adv-x="277" 
d="M84 -10c-19 0 -34 15 -34 35s15 35 35 35c22 0 36 -16 36 -40c0 -32 -25 -74 -60 -100l-4 4c21 20 37 45 37 58c0 6 -3 8 -10 8zM190 -10c-19 0 -34 15 -34 35s15 35 35 35c22 0 36 -16 36 -40c0 -32 -25 -74 -60 -100l-4 4c21 20 37 45 37 58c0 6 -3 8 -10 8z" />
    <glyph glyph-name="dagger" unicode="&#x2020;" horiz-adv-x="512" 
d="M258 683l-16 -142l165 17c12 0 21 -8 21 -20s-9 -20 -21 -20l-165 17c0 -28 6 -60 16 -73v-167c0 -163 -7 -268 -20 -309c-13 41 -20 146 -20 309v167c10 13 16 45 16 73l-165 -17c-12 0 -21 8 -21 20s9 20 21 20l165 -17l-16 142c0 12 8 21 20 21s20 -9 20 -21z" />
    <glyph glyph-name="daggerdbl" unicode="&#x2021;" horiz-adv-x="512" 
d="M258 683l-16 -142l165 17c12 0 21 -8 21 -20s-9 -20 -21 -20l-165 17c0 -28 6 -60 16 -73v-234c-10 -13 -16 -45 -16 -73l165 17c12 0 21 -8 21 -20s-9 -20 -21 -20l-165 17l16 -142c0 -12 -8 -21 -20 -21s-20 9 -20 21l16 142l-165 -17c-12 0 -21 8 -21 20s9 20 21 20
l165 -17c0 28 -6 60 -16 73v234c10 13 16 45 16 73l-165 -17c-12 0 -21 8 -21 20s9 20 21 20l165 -17l-16 142c0 12 8 21 20 21s20 -9 20 -21z" />
    <glyph glyph-name="bullet" unicode="&#x2022;" horiz-adv-x="330" 
d="M100 350c0 39 26 65 65 65s65 -26 65 -65s-26 -65 -65 -65s-65 26 -65 65z" />
    <glyph glyph-name="ellipsis" unicode="&#x2026;" horiz-adv-x="410" 
d="M50 25c0 20 15 35 35 35s35 -15 35 -35s-15 -35 -35 -35s-35 15 -35 35zM170 25c0 20 15 35 35 35s35 -15 35 -35s-15 -35 -35 -35s-35 15 -35 35zM290 25c0 20 15 35 35 35s35 -15 35 -35s-15 -35 -35 -35s-35 15 -35 35z" />
    <glyph glyph-name="perthousand" unicode="&#x2030;" horiz-adv-x="1177" 
d="M192 -14l403 728h16l-403 -728h-16zM190 346c-85 0 -150 80 -150 184s65 184 150 184s150 -80 150 -184s-65 -184 -150 -184zM190 704c-65 0 -110 -71 -110 -174s45 -174 110 -174s110 71 110 174c0 102 -45 174 -110 174zM613 -14c-85 0 -150 80 -150 184
s65 184 150 184s150 -80 150 -184s-65 -184 -150 -184zM953 -14c-85 0 -150 80 -150 184s65 184 150 184s150 -80 150 -184s-65 -184 -150 -184zM613 344c-65 0 -110 -71 -110 -174s45 -174 110 -174s110 71 110 174c0 102 -45 174 -110 174zM953 344
c-65 0 -110 -71 -110 -174s45 -174 110 -174s110 71 110 174c0 102 -45 174 -110 174z" />
    <glyph glyph-name="guilsinglleft" unicode="&#x2039;" horiz-adv-x="300" 
d="M50 250l194 188l6 -5l-143 -183l143 -183l-6 -5z" />
    <glyph glyph-name="guilsinglright" unicode="&#x203a;" horiz-adv-x="300" 
d="M50 433l6 5l194 -188l-194 -188l-6 5l143 183z" />
    <glyph glyph-name="fraction" unicode="&#x2044;" horiz-adv-x="119" 
d="M-150 -14l403 728h16l-403 -728h-16z" />
    <glyph glyph-name="Euro" unicode="&#x20ac;" horiz-adv-x="680" 
d="M40 264v12h77c-4 24 -6 48 -6 74s2 50 6 74h-77v12h79c30 165 148 278 308 278c116 0 203 -62 203 -144c0 -28 -14 -48 -40 -48c-19 0 -34 15 -34 34s15 34 34 34c4 0 11 -1 13 -3c-12 68 -80 115 -168 115c-139 0 -235 -104 -259 -266h266v-12h-267
c-3 -24 -5 -48 -5 -74s2 -50 5 -74h236v-12h-235c25 -162 120 -266 259 -266c88 0 156 47 168 115c-2 -2 -9 -3 -13 -3c-19 0 -34 15 -34 34s15 34 34 34c26 0 40 -20 40 -48c0 -82 -87 -144 -203 -144c-160 0 -278 113 -308 278h-79z" />
    <glyph glyph-name="trademark" unicode="&#x2122;" horiz-adv-x="678" 
d="M306 700h63l97 -252l97 252h61v-4c-22 -5 -29 -18 -26 -49l19 -199c3 -34 11 -45 31 -49v-4h-91v4c22 4 29 18 26 49l-22 224l-107 -277h-4l-107 280l-22 -227c-3 -31 4 -45 26 -49v-4h-65v4c20 4 28 15 31 49l19 199c3 31 -4 44 -26 49v4zM199 399v-4h-96v4
c22 4 31 18 31 49v242h-35c-41 0 -62 -15 -75 -55h-4l14 65h234l14 -65h-4c-13 40 -34 55 -75 55h-35v-242c0 -31 9 -45 31 -49z" />
    <glyph glyph-name="minus" unicode="&#x2212;" horiz-adv-x="530" 
d="M480 348h-430v12h430v-12z" />
    <glyph glyph-name="uniE000" unicode="&#xe000;" horiz-adv-x="1225" 
d="M722 269l148 384l-18 47h53l239 -622c15 -39 35 -65 71 -73v-5h-152v5c26 4 36 18 36 37c0 10 -3 23 -8 36l-78 202c-53 -42 -104 -64 -154 -64c-47 0 -91 9 -134 23c-78 -178 -179 -253 -335 -253c-210 0 -355 139 -355 364c0 217 140 364 354 364c69 0 142 -17 197 -64
l35 45h4v-175h-8c-34 136 -133 182 -242 182c-130 0 -282 -110 -282 -352c0 -226 137 -352 307 -352c139 0 242 81 312 246c-107 37 -204 97 -298 97c-56 0 -111 -22 -167 -81l-5 6c58 73 119 98 182 98c96 0 196 -59 298 -95zM1010 288l-133 346l-134 -351
c-3 -7 -5 -14 -8 -20c43 -15 87 -25 130 -25c51 0 99 16 145 50z" />
    <glyph glyph-name="uniE001" unicode="&#xe001;" horiz-adv-x="1099" 
d="M457 630l-238 -222c158 0 307 -391 601 -391c77 0 154 25 215 69l3 -4c-70 -62 -156 -96 -243 -96c-352 0 -453 410 -587 412l-65 -61v-259c0 -45 14 -69 51 -73v-5h-154v5c37 4 51 28 51 73v544c0 45 -13 69 -50 73v5h152v-5c-37 -4 -50 -28 -50 -73v-268l296 279
c16 16 23 30 23 41s-7 18 -20 21v5h125v-5c-44 -5 -75 -32 -110 -65zM696 286v336c0 45 -13 69 -50 73v5h360l25 -113h-8c-29 78 -66 101 -146 101h-129v-221h101c46 0 70 14 74 51h5v-114h-5c-4 37 -28 51 -74 51h-101v-235h104c120 0 152 22 194 123h8l-30 -135h-379v5
c37 4 51 28 51 73z" />
    <glyph glyph-name="uniE002" unicode="&#xe002;" horiz-adv-x="657" 
d="M152 223l-56 -145c-5 -13 -8 -26 -8 -36c0 -19 10 -33 36 -37v-5h-114v5c36 8 56 34 71 73l221 575l-18 47h53l273 -710c30 -77 60 -142 91 -199c142 44 283 75 417 75c227 0 335 -101 335 -201c0 -102 -109 -203 -316 -203c-166 0 -329 62 -469 293
c-85 -30 -171 -64 -258 -97c57 -75 84 -158 84 -233c0 -123 -74 -223 -208 -223c-83 0 -162 50 -162 141c0 49 23 91 66 91c4 0 8 -1 10 -2c13 8 32 13 50 13c40 0 64 -24 64 -49c0 -9 -7 -16 -16 -16s-17 7 -17 16s8 16 17 16c2 0 3 0 5 -1c-9 14 -26 23 -48 23
c-60 0 -93 -51 -93 -103c0 -78 61 -117 128 -117c124 0 194 93 194 209c0 74 -27 156 -85 231c-227 -87 -456 -169 -665 -169c-170 0 -260 91 -260 183c0 143 176 219 381 219c262 0 437 -90 537 -206c87 33 176 66 264 95c-33 57 -64 124 -94 201l-113 293
c-21 -30 -52 -46 -84 -46c-58 0 -87 34 -132 34c-24 0 -55 -5 -81 -35zM369 246c23 0 53 4 78 31l-138 357l-150 -391c21 24 50 37 78 37c58 0 87 -34 132 -34zM-266 -503c184 0 410 89 647 180c-98 112 -269 200 -528 200c-199 0 -367 -75 -367 -210
c0 -85 85 -170 248 -170zM712 -229c129 -225 273 -294 438 -294c190 0 293 94 293 189c0 94 -103 188 -325 188c-125 0 -263 -35 -406 -83z" />
    <glyph glyph-name="uniE003" unicode="&#xe003;" horiz-adv-x="657" 
d="M152 223l-56 -145c-5 -13 -8 -26 -8 -36c0 -19 10 -33 36 -37v-5h-114v5c36 8 56 34 71 73l221 575l-18 47h53l239 -622c45 -116 96 -214 154 -293c158 61 326 109 498 109c200 0 302 -93 302 -187c0 -98 -108 -196 -341 -196c-186 0 -348 67 -483 234
c-238 -101 -473 -220 -683 -220c-196 0 -264 113 -264 211c0 80 45 145 104 138c15 9 42 15 70 15c46 0 94 -21 94 -59c0 -9 -7 -16 -16 -16s-16 7 -16 16c0 14 10 15 20 15c-12 21 -42 33 -79 33c-89 0 -140 -74 -140 -153c0 -91 69 -190 227 -190c177 0 407 129 664 233
c-61 81 -115 183 -164 310l-74 192c-21 -30 -52 -46 -84 -46c-58 0 -87 34 -132 34c-24 0 -55 -5 -81 -35zM369 246c23 0 53 5 78 31l-138 357l-150 -391c21 24 50 37 78 37c58 0 87 -34 132 -34zM747 -238c123 -158 272 -237 442 -237c216 0 329 93 329 183
c0 88 -98 176 -290 176c-157 0 -319 -55 -481 -122z" />
    <glyph glyph-name="uniE004" unicode="&#xe004;" horiz-adv-x="1415" 
d="M149 216l-53 -138c-14 -37 -13 -67 28 -73v-5h-114v5c36 8 56 34 71 73l221 575l-18 47h53l180 -468c141 -93 266 -236 450 -236c215 0 355 139 355 354c0 207 -126 352 -307 352s-307 -132 -307 -321c0 -169 104 -284 257 -284v-8c-183 0 -315 122 -315 292
c0 198 147 333 365 333s365 -147 365 -364c0 -224 -159 -364 -413 -364c-206 0 -322 112 -433 202l42 -110c15 -39 35 -65 71 -73v-5h-152v5c41 6 42 36 28 73l-64 166c-50 32 -102 54 -164 54c-70 0 -122 -30 -146 -82zM309 634l-144 -376c31 33 78 52 130 52
c56 0 107 -15 154 -38z" />
    <glyph glyph-name="uniE005" unicode="&#xe005;" horiz-adv-x="857" 
d="M706 285v338c0 45 -14 64 -51 73v4h152v-4c-37 -9 -51 -28 -51 -73v-338c0 -45 14 -64 51 -73v-4h-152v4c37 9 51 28 51 73zM457 630l-238 -222c163 0 275 -392 512 -392c58 0 117 19 163 53l3 -4c-45 -50 -116 -79 -192 -79c-287 0 -365 410 -497 412l-65 -61v-259
c0 -45 14 -69 51 -73v-5h-154v5c37 4 51 28 51 73v544c0 45 -13 69 -50 73v5h152v-5c-37 -4 -50 -28 -50 -73v-268l296 279c16 16 23 30 23 41s-7 18 -20 21v5h125v-5c-44 -5 -75 -32 -110 -65z" />
    <glyph glyph-name="uniE006" unicode="&#xe006;" horiz-adv-x="1132" 
d="M577 454c0 157 103 260 260 260s260 -103 260 -260s-103 -260 -260 -260s-260 103 -260 260zM631 454c0 -151 82 -250 206 -250s206 99 206 250s-82 250 -206 250s-206 -99 -206 -250zM457 630l-238 -222c158 0 307 -391 601 -391c77 0 154 25 215 69l3 -4
c-70 -62 -156 -96 -243 -96c-352 0 -453 410 -587 412l-65 -61v-259c0 -45 14 -69 51 -73v-5h-154v5c37 4 51 28 51 73v544c0 45 -13 69 -50 73v5h152v-5c-37 -4 -50 -28 -50 -73v-268l296 279c16 16 23 30 23 41s-7 18 -20 21v5h125v-5c-44 -5 -75 -32 -110 -65z" />
    <glyph glyph-name="uniE007" unicode="&#xe007;" horiz-adv-x="1133" 
d="M457 630l-238 -222c158 0 307 -391 601 -391c77 0 154 25 215 69l3 -4c-70 -62 -156 -96 -243 -96c-352 0 -453 410 -587 412l-65 -61v-259c0 -45 14 -69 51 -73v-5h-154v5c37 4 51 28 51 73v544c0 45 -13 69 -50 73v5h152v-5c-37 -4 -50 -28 -50 -73v-268l296 279
c16 16 23 30 23 41s-7 18 -20 21v5h125v-5c-44 -5 -75 -32 -110 -65zM1028 367v255c0 45 -14 69 -51 73v5h116v-5c-37 -4 -51 -28 -51 -73v-251c0 -115 -70 -177 -171 -177c-111 0 -177 66 -177 177v251c0 45 -13 69 -50 73v5h152v-5c-37 -4 -50 -28 -50 -73v-260
c0 -92 53 -150 137 -150c80 0 145 59 145 155z" />
    <glyph glyph-name="uniE008" unicode="&#xe008;" horiz-adv-x="1162" 
d="M40 695v5h154v-5c-37 -4 -51 -28 -51 -73v-610h140c120 0 152 22 194 123h8l-30 -135h-415v5c37 4 51 28 51 73v544c0 45 -14 69 -51 73zM243 260l-5 6c58 73 119 98 182 98c82 0 165 -46 244 -83l143 372l-18 47h53l239 -622c15 -39 35 -65 71 -73v-5h-152v5
c41 6 42 36 28 73l-76 197c-51 -40 -101 -59 -149 -59c-49 0 -94 13 -137 31l-65 -169c-14 -37 -13 -67 28 -73v-5h-114v5c36 8 56 34 71 73l67 175c-84 37 -161 88 -243 88c-56 0 -111 -22 -167 -81zM949 284l-135 350l-138 -359c46 -21 91 -37 133 -37c49 0 96 15 140 46z
" />
    <glyph glyph-name="uniE009" unicode="&#xe009;" horiz-adv-x="1040" 
d="M40 695v5h154v-5c-37 -4 -51 -28 -51 -73v-610h140c120 0 152 22 194 123h8l-30 -135h-415v5c37 4 51 28 51 73v544c0 45 -14 69 -51 73zM596 78v274c-71 30 -138 65 -207 65c-56 0 -111 -22 -167 -81l-5 6c58 73 119 98 182 98c69 0 134 -28 197 -56v238
c0 45 -13 69 -50 73v5h421l25 -113h-8c-29 78 -66 101 -146 101h-190v-326c42 -17 83 -30 124 -30c56 0 107 18 150 51l5 -6c-52 -45 -104 -67 -161 -67c-42 0 -81 9 -118 22v-320h165c120 0 152 22 194 123h8l-30 -135h-440v5c37 4 51 28 51 73z" />
    <glyph glyph-name="uniE00A" unicode="&#xe00a;" horiz-adv-x="763" 
d="M40 695v5h154v-5c-37 -4 -51 -28 -51 -73v-610h330c120 0 152 22 194 123h8l-30 -135h-605v5c37 4 51 28 51 73v544c0 45 -14 69 -51 73zM360 286v336c0 45 -13 69 -50 73v5h360l25 -113h-8c-29 78 -66 101 -146 101h-129v-221h101c46 0 70 14 74 51h5v-114h-5
c-4 37 -28 51 -74 51h-101v-235h104c120 0 152 22 194 123h8l-30 -135h-379v5c37 4 51 28 51 73z" />
    <glyph glyph-name="uniE00B" unicode="&#xe00b;" horiz-adv-x="534" 
d="M40 695v5h154v-5c-37 -4 -51 -28 -51 -73v-610h140c120 0 152 22 194 123h8l-30 -135h-415v5c37 4 51 28 51 73v544c0 45 -14 69 -51 73zM393 285v338c0 45 -14 64 -51 73v4h152v-4c-37 -9 -51 -28 -51 -73v-338c0 -45 14 -64 51 -73v-4h-152v4c37 9 51 28 51 73z" />
    <glyph glyph-name="uniE00C" unicode="&#xe00c;" horiz-adv-x="702" 
d="M40 695v5h154v-5c-37 -4 -51 -28 -51 -73v-610h296c120 0 152 22 194 123h8l-30 -135h-571v5c37 4 51 28 51 73v544c0 45 -14 69 -51 73zM310 695v5h154v-5c-37 -4 -51 -28 -51 -73v-402h67c120 0 152 22 194 123h8l-30 -135h-342v5c37 4 51 28 51 73v336
c0 45 -14 69 -51 73z" />
    <glyph glyph-name="uniE00D" unicode="&#xe00d;" horiz-adv-x="535" 
d="M738 -105c0 18 17 28 37 28c22 0 42 -8 54 -27c27 -5 39 -27 39 -52c0 -52 -53 -130 -167 -130c-277 0 -412 286 -624 286h-37v5c37 4 51 28 51 73v282c-17 -5 -32 -15 -45 -31l-5 3c13 25 30 39 50 47v243c0 45 -13 69 -50 73v5h421l25 -113h-8c-29 78 -66 101 -146 101
h-190v-302c67 -4 142 -43 203 -43c29 0 54 11 74 35l5 -3c-22 -41 -54 -54 -92 -54c-62 0 -130 33 -190 41v-358c232 -40 358 -280 558 -280c87 0 127 65 127 122c0 38 -19 70 -56 70c-8 0 -15 -2 -21 -6c10 0 17 -4 17 -15c0 -9 -6 -15 -15 -15s-15 6 -15 15z" />
    <glyph glyph-name="uniE00E" unicode="&#xe00e;" horiz-adv-x="830" 
d="M275 454c0 157 103 260 260 260s260 -103 260 -260s-103 -260 -260 -260s-260 103 -260 260zM329 454c0 -151 82 -250 206 -250s206 99 206 250s-82 250 -206 250s-206 -99 -206 -250zM40 695v5h154v-5c-37 -4 -51 -28 -51 -73v-610h400c120 0 152 22 194 123h8l-30 -135
h-675v5c37 4 51 28 51 73v544c0 45 -14 69 -51 73z" />
    <glyph glyph-name="uniE00F" unicode="&#xe00f;" horiz-adv-x="786" 
d="M40 695v5h154v-5c-37 -4 -51 -28 -51 -73v-610h336c120 0 152 22 194 123h8l-30 -135h-611v5c37 4 51 28 51 73v544c0 45 -14 69 -51 73zM681 367v255c0 45 -14 69 -51 73v5h116v-5c-37 -4 -51 -28 -51 -73v-251c0 -115 -70 -177 -171 -177c-111 0 -177 66 -177 177v251
c0 45 -13 69 -50 73v5h152v-5c-37 -4 -50 -28 -50 -73v-260c0 -92 53 -150 137 -150c80 0 145 59 145 155z" />
    <glyph glyph-name="uniE010" unicode="&#xe010;" horiz-adv-x="1053" 
d="M753 -14c-333 0 -391 390 -503 390h-107v-298c0 -45 14 -69 51 -73v-5h-154v5c37 4 51 28 51 73v544c0 45 -14 69 -51 73v5h230c120 0 203 -63 203 -164c0 -93 -76 -152 -183 -159v-2c135 -52 230 -358 492 -358c74 0 148 24 211 69l3 -4c-70 -62 -156 -96 -243 -96z
M650 286v336c0 45 -13 69 -50 73v5h360l25 -113h-8c-29 78 -66 101 -146 101h-129v-221h101c46 0 70 14 74 51h5v-114h-5c-4 37 -28 51 -74 51h-101v-235h104c120 0 152 22 194 123h8l-30 -135h-379v5c37 4 51 28 51 73zM143 688v-300h120c110 0 158 61 158 149
c0 90 -48 151 -158 151h-120z" />
    <glyph glyph-name="uniE011" unicode="&#xe011;" horiz-adv-x="838" 
d="M681 285v338c0 45 -14 64 -51 73v4h152v-4c-37 -9 -51 -28 -51 -73v-338c0 -45 14 -64 51 -73v-4h-152v4c37 9 51 28 51 73zM720 12c56 0 103 17 149 53l4 -4c-45 -49 -109 -75 -183 -75c-319 0 -323 390 -440 390h-107v-298c0 -45 14 -69 51 -73v-5h-154v5
c37 4 51 28 51 73v544c0 45 -14 69 -51 73v5h230c120 0 203 -63 203 -164c0 -93 -76 -152 -183 -159v-2c135 -52 177 -363 430 -363zM143 688v-300h120c110 0 158 61 158 149c0 90 -48 151 -158 151h-120z" />
    <glyph glyph-name="uniE012" unicode="&#xe012;" horiz-adv-x="636" 
d="M493 77v298c-24 -35 -56 -54 -91 -54c-65 0 -120 43 -170 43c-36 0 -66 -16 -89 -45v-241c0 -45 14 -69 51 -73v-5h-154v5c37 4 51 28 51 73v544c0 45 -13 69 -50 73v5h152v-5c-37 -4 -50 -28 -50 -73v-290c24 35 56 54 91 54c65 0 120 -43 170 -43c36 0 66 16 89 45v234
c0 45 -14 69 -51 73v5h154v-5c-37 -4 -51 -28 -51 -73v-570c0 -80 10 -175 41 -264c133 46 268 78 405 78c230 0 330 -104 330 -206c0 -100 -94 -198 -299 -198c-256 0 -395 129 -466 288c-62 -25 -125 -52 -188 -79c66 -81 98 -172 98 -252c0 -121 -70 -217 -202 -217
c-83 0 -162 50 -162 141c0 49 23 91 66 91c4 0 8 -1 10 -2c13 8 32 13 50 13c40 0 64 -24 64 -49c0 -9 -7 -16 -16 -16s-17 7 -17 16s8 16 17 16c2 0 3 0 5 -1c-9 14 -26 23 -48 23c-60 0 -93 -51 -93 -103c0 -78 61 -117 128 -117c122 0 188 90 188 203
c0 79 -31 170 -98 250c-212 -91 -427 -182 -646 -182c-170 0 -260 91 -260 183c0 143 176 219 381 219c245 0 414 -84 515 -193c65 28 132 55 199 79c-39 99 -54 208 -54 304zM338 -310c-100 106 -265 187 -507 187c-199 0 -367 -75 -367 -210c0 -85 85 -170 248 -170
c192 0 404 98 626 193zM595 -235c61 -155 188 -288 440 -288c189 0 276 91 276 183c0 96 -95 194 -320 194c-130 0 -262 -38 -396 -89z" />
    <glyph glyph-name="uniE013" unicode="&#xe013;" horiz-adv-x="636" 
d="M143 319v-241c0 -45 14 -69 51 -73v-5h-154v5c37 4 51 28 51 73v544c0 45 -13 69 -50 73v5h152v-5c-37 -4 -50 -28 -50 -73v-290c24 35 56 54 91 54c65 0 120 -43 170 -43c36 0 66 16 89 45v234c0 102 17 189 47 262c-51 23 -100 49 -148 74
c-123 -112 -312 -183 -525 -183c-172 0 -292 77 -292 189c0 113 115 193 279 193c209 0 382 -84 550 -172c81 81 129 182 129 292c0 113 -65 202 -189 202c-67 0 -128 -39 -128 -117c0 -52 33 -103 93 -103c22 0 39 9 48 23c6 2 11 7 11 15h-4c-1 -5 -4 -10 -7 -15
c-2 -1 -3 -1 -5 -1c-9 0 -17 7 -17 16s8 16 17 16s16 -7 16 -16c0 -25 -24 -49 -64 -49c-18 0 -37 5 -50 13c-2 -1 -6 -2 -10 -2c-43 0 -66 42 -66 91c0 91 79 141 162 141c133 0 203 -95 203 -215c0 -112 -48 -214 -129 -297c46 -24 91 -48 136 -71c82 172 242 258 432 258
c203 0 309 -100 309 -199c0 -96 -102 -192 -312 -192c-147 0 -278 39 -399 91c-22 -64 -35 -139 -35 -225v-563c0 -45 14 -69 51 -73v-5h-154v5c37 4 51 28 51 73v297c-24 -35 -56 -54 -91 -54c-65 0 -120 43 -170 43c-36 0 -66 -16 -89 -45zM589 889
c123 -59 249 -104 390 -104c202 0 300 90 300 181c0 93 -102 186 -300 186c-169 0 -319 -87 -390 -263zM381 963c-176 92 -341 184 -527 184c-156 0 -267 -76 -267 -182s115 -180 279 -180c209 0 393 69 515 178z" />
    <glyph glyph-name="uniE014" unicode="&#xe014;" horiz-adv-x="1436" 
d="M545 202v-124c0 -45 14 -69 51 -73v-5h-154v5c37 4 51 28 51 73v175c-69 66 -133 119 -212 119c-75 0 -138 -51 -138 -113v-181c0 -45 14 -69 51 -73v-5h-154v5c37 4 51 28 51 73v544c0 45 -13 69 -50 73v5h152v-5c-37 -4 -50 -28 -50 -73v-319c23 47 78 81 140 81
c76 0 143 -41 210 -96v334c0 45 -14 69 -51 73v5h154v-5c-37 -4 -51 -28 -51 -73v-380c122 -111 251 -246 443 -246c215 0 355 139 355 354c0 207 -126 352 -307 352s-307 -132 -307 -321c0 -169 104 -284 257 -284v-8c-183 0 -315 122 -315 292c0 198 147 333 365 333
s365 -147 365 -364c0 -224 -159 -364 -413 -364c-209 0 -336 112 -443 216z" />
    <glyph glyph-name="uniE015" unicode="&#xe015;" horiz-adv-x="1114" 
d="M559 454c0 157 103 260 260 260s260 -103 260 -260s-103 -260 -260 -260s-260 103 -260 260zM613 454c0 -151 82 -250 206 -250s206 99 206 250s-82 250 -206 250s-206 -99 -206 -250zM753 -14c-333 0 -391 390 -503 390h-107v-298c0 -45 14 -69 51 -73v-5h-154v5
c37 4 51 28 51 73v544c0 45 -14 69 -51 73v5h230c120 0 203 -63 203 -164c0 -93 -76 -152 -183 -159v-2c135 -52 230 -358 492 -358c74 0 148 24 211 69l3 -4c-70 -62 -156 -96 -243 -96zM143 688v-300h120c110 0 158 61 158 149c0 90 -48 151 -158 151h-120z" />
    <glyph glyph-name="uniE016" unicode="&#xe016;" horiz-adv-x="1080" 
d="M753 -14c-333 0 -391 390 -503 390h-107v-298c0 -45 14 -69 51 -73v-5h-154v5c37 4 51 28 51 73v544c0 45 -14 69 -51 73v5h230c120 0 203 -63 203 -164c0 -93 -76 -152 -183 -159v-2c135 -52 230 -358 492 -358c74 0 148 24 211 69l3 -4c-70 -62 -156 -96 -243 -96z
M975 367v255c0 45 -14 69 -51 73v5h116v-5c-37 -4 -51 -28 -51 -73v-251c0 -115 -70 -177 -171 -177c-111 0 -177 66 -177 177v251c0 45 -13 69 -50 73v5h152v-5c-37 -4 -50 -28 -50 -73v-260c0 -92 53 -150 137 -150c80 0 145 59 145 155zM143 688v-300h120
c110 0 158 61 158 149c0 90 -48 151 -158 151h-120z" />
    <glyph glyph-name="uniE018" unicode="&#xe018;" horiz-adv-x="835" 
d="M759 373v-356c0 -120 46 -182 136 -182c66 0 114 48 114 115c0 59 -38 101 -90 101c-21 0 -40 -7 -50 -20c10 0 21 -4 21 -16c0 -9 -8 -16 -17 -16s-16 7 -16 16c0 28 28 49 64 49c18 0 37 -5 50 -13c2 1 6 2 10 2c39 0 66 -37 66 -91c0 -77 -65 -137 -149 -137
c-122 0 -189 81 -189 227v316c0 97 -44 129 -102 129c-95 0 -165 -99 -165 -184v-235c0 -45 14 -69 51 -73v-5h-152v5c37 4 51 28 51 73v290c0 97 -44 129 -102 129c-88 0 -155 -86 -164 -166v-253c0 -45 14 -69 51 -73v-5h-152v5c37 4 51 28 51 73v340c0 35 -11 47 -46 47
v5l96 35v-128c24 67 83 133 170 133c114 0 146 -76 146 -136c23 68 83 136 171 136c115 0 146 -77 146 -137z" />
    <glyph glyph-name="uniE019" unicode="&#xe019;" horiz-adv-x="605" 
d="M457 630l-231 -215c144 -20 278 -347 483 -600c150 51 299 87 437 87c223 0 320 -98 320 -197s-98 -198 -265 -198c-231 0 -398 118 -527 269c-91 -35 -184 -74 -278 -112c62 -79 92 -168 92 -246c0 -120 -70 -216 -202 -216c-83 0 -162 50 -162 141c0 49 23 91 66 91
c4 0 8 -1 10 -2c13 8 32 13 50 13c40 0 64 -24 64 -49c0 -9 -7 -16 -16 -16s-17 7 -17 16s8 16 17 16c2 0 3 0 5 -1c-9 14 -26 23 -48 23c-60 0 -93 -51 -93 -103c0 -78 61 -117 128 -117c122 0 188 90 188 203c0 77 -29 165 -92 243c-225 -91 -451 -175 -652 -175
c-170 0 -260 91 -260 183c0 143 176 219 382 219c249 0 420 -87 520 -200c93 38 187 76 281 110c-213 261 -318 604 -442 607l-72 -67v-259c0 -45 14 -69 51 -73v-5h-154v5c37 4 51 28 51 73v544c0 45 -13 69 -50 73v5h152v-5c-37 -4 -50 -28 -50 -73v-268l296 279
c16 16 23 30 23 41s-7 18 -20 21v5h125v-5c-44 -5 -75 -32 -110 -65zM725 -205c129 -154 286 -275 491 -275c148 0 240 93 240 185c0 93 -91 185 -310 185c-128 0 -271 -40 -421 -95zM366 -317c-99 109 -266 194 -512 194c-199 0 -368 -75 -368 -210c0 -85 85 -170 248 -170
c177 0 398 91 632 186z" />
    <glyph glyph-name="uniE01A" unicode="&#xe01a;" horiz-adv-x="605" 
d="M143 622v-268l295 278c16 16 23 30 23 41s-7 18 -20 21v5h125v-5c-44 -5 -75 -32 -110 -65l-238 -222c209 -40 245 -617 632 -617c35 0 69 6 97 18l3 -7c-36 -15 -71 -22 -109 -22c-459 0 -489 589 -636 618l-62 -60v-259c0 -45 14 -69 51 -73v-5h-154v5
c37 4 51 28 51 73v544c0 45 -13 69 -50 73v5h152v-5c-37 -4 -50 -28 -50 -73z" />
    <glyph glyph-name="uniE01B" unicode="&#xe01b;" horiz-adv-x="1347" 
d="M457 630l-230 -214c240 -15 308 -420 672 -420c215 0 355 139 355 354c0 207 -126 352 -307 352s-307 -132 -307 -321c0 -169 104 -284 257 -284v-8c-183 0 -315 122 -315 292c0 198 147 333 365 333s365 -147 365 -364c0 -224 -159 -364 -413 -364
c-448 0 -521 415 -684 418l-72 -67v-259c0 -45 14 -69 51 -73v-5h-154v5c37 4 51 28 51 73v544c0 45 -13 69 -50 73v5h152v-5c-37 -4 -50 -28 -50 -73v-268l296 279c33 32 28 57 3 62v5h125v-5c-44 -5 -75 -32 -110 -65z" />
    <glyph glyph-name="uniE01C" unicode="&#xe01c;" 
d="M456 373v-356c0 -120 46 -182 136 -182c66 0 114 48 114 115c0 59 -38 101 -90 101c-21 0 -40 -7 -50 -20c10 0 21 -4 21 -16c0 -9 -8 -16 -17 -16s-16 7 -16 16c0 28 28 49 64 49c18 0 37 -5 50 -13c2 1 6 2 10 2c39 0 66 -37 66 -91c0 -77 -65 -137 -149 -137
c-122 0 -189 81 -189 227v316c0 97 -46 129 -107 129c-100 0 -173 -99 -173 -184v-235c0 -45 14 -69 51 -73v-5h-152v5c37 4 51 28 51 73v340c0 35 -11 47 -46 47v5l96 35v-132c24 68 86 137 177 137c120 0 153 -77 153 -137z" />
    <glyph glyph-name="uniE01D" unicode="&#xe01d;" horiz-adv-x="976" 
d="M118 422l141 -367l68 177c73 189 185 278 353 278c161 0 271 -106 271 -260c0 -157 -103 -260 -260 -260c-161 0 -241 115 -241 229c0 110 75 218 224 218v-7c-111 0 -170 -105 -170 -211c0 -109 62 -219 193 -219c118 0 200 99 200 250c0 146 -90 250 -215 250
c-161 0 -269 -85 -339 -268l-93 -242h-20l-166 432c-16 42 -36 68 -74 73v5h154v-5c-37 -4 -42 -31 -26 -73z" />
    <glyph glyph-name="uniE01E" unicode="&#xe01e;" horiz-adv-x="273" 
d="M88 0h-48v5c37 4 51 28 51 73v544c0 45 -14 69 -51 73v5h154v-5c-37 -4 -51 -28 -51 -73v-613c165 -19 283 -126 397 -238c164 54 327 95 479 95c227 0 325 -101 325 -201c0 -102 -98 -203 -293 -203c-240 0 -391 141 -529 278c-75 -27 -151 -56 -227 -85
c57 -76 85 -161 85 -236c0 -120 -71 -217 -203 -217c-83 0 -162 50 -162 141c0 49 23 91 66 91c4 0 8 -1 10 -2c13 8 32 13 50 13c40 0 64 -24 64 -49c0 -9 -7 -16 -16 -16s-17 7 -17 16s8 16 17 16c2 0 3 0 5 -1c-9 14 -26 23 -48 23c-60 0 -93 -51 -93 -103
c0 -78 61 -117 128 -117c122 0 189 90 189 204c0 73 -28 157 -85 233c-226 -86 -454 -166 -660 -166c-170 0 -260 91 -260 183c0 143 176 219 381 219c258 0 433 -93 532 -210c74 28 150 56 225 82c-125 124 -244 241 -415 241zM267 -327c-98 114 -268 204 -523 204
c-199 0 -367 -75 -367 -210c0 -85 85 -170 248 -170c181 0 406 87 642 176zM558 -247c138 -137 276 -277 493 -277c190 0 283 95 283 190c0 94 -93 188 -315 188c-141 0 -298 -44 -461 -101z" />
    <glyph glyph-name="uniE01F" unicode="&#xe01f;" horiz-adv-x="1348" 
d="M118 422l128 -363l152 441h20l156 -441l59 173c66 193 173 278 350 278c161 0 271 -106 271 -260c0 -157 -100 -260 -257 -260c-161 0 -244 115 -244 229c0 110 75 218 224 218v-7c-111 0 -170 -105 -170 -211c0 -109 62 -219 193 -219c118 0 200 99 200 250
c0 146 -90 250 -215 250c-169 0 -271 -82 -336 -268l-84 -242h-20l-156 441l-152 -441h-20l-153 432c-15 42 -36 68 -74 73v5h154v-5c-37 -4 -41 -31 -26 -73z" />
    <glyph glyph-name="uniE020" unicode="&#xe020;" horiz-adv-x="857" 
d="M390 352l-175 -456c-38 -98 -86 -122 -136 -122c-45 0 -89 24 -89 74c0 19 15 34 34 34s34 -15 34 -34s-15 -33 -33 -34c9 -17 28 -30 58 -30s79 14 115 109l35 92l-168 437c-16 42 -36 68 -74 73v5h154v-5c-37 -4 -42 -31 -26 -73l141 -367l114 297
c61 158 145 230 269 230c119 0 204 -75 204 -180c0 -83 -58 -163 -168 -163c-108 0 -152 74 -152 137c0 49 23 91 66 91c4 0 8 -1 10 -2c13 8 31 13 49 13c32 0 62 -15 62 -49c0 -9 -7 -16 -16 -16s-17 7 -17 16s8 16 17 16c2 0 4 0 6 -1c-7 13 -24 23 -46 23
c-60 0 -93 -51 -93 -103c0 -56 37 -114 114 -114c83 0 128 73 128 149c0 98 -68 167 -165 167c-117 0 -196 -67 -252 -214z" />
    <glyph glyph-name="uniE021" unicode="&#xe021;" horiz-adv-x="1433" 
d="M1287 778c-7 -19 -10 -38 -10 -58c0 -16 2 -34 4 -54l57 -589c4 -45 23 -64 60 -73v-4h-152v4c37 9 46 28 42 73l-55 569l-249 -646h-10l-248 641l-40 -416c-25 -261 -146 -400 -349 -400c-193 0 -302 130 -302 270c0 128 95 256 279 256c151 0 228 -104 228 -205
c0 -92 -64 -181 -198 -181c-113 0 -161 77 -161 137c0 38 17 68 49 71c18 28 50 40 78 40c40 0 59 -22 59 -42c0 -9 -8 -16 -17 -16s-16 7 -16 16c0 11 8 16 18 16c-9 10 -23 16 -44 16c-52 0 -86 -49 -86 -105c0 -60 38 -123 124 -123c102 0 154 82 154 169
c0 95 -63 195 -192 195c-154 0 -235 -121 -235 -244c0 -135 92 -260 262 -260c192 0 311 138 335 390l43 445c-44 112 -115 154 -201 154c-134 0 -194 -98 -194 -193c0 -88 52 -174 145 -174c63 0 123 44 123 126c0 52 -33 103 -93 103c-22 0 -39 -10 -46 -23c2 1 4 1 6 1
c9 0 17 -7 17 -16s-8 -16 -17 -16s-16 7 -16 16c0 34 30 49 62 49c18 0 36 -5 49 -13c2 1 6 2 10 2c43 0 66 -42 66 -91c0 -98 -81 -150 -164 -150c-118 0 -182 91 -182 186c0 101 73 205 234 205c125 0 212 -57 261 -183l223 -576l248 641c75 195 186 269 316 269
c140 0 226 -81 226 -195c0 -112 -94 -171 -184 -171c-82 0 -160 48 -160 143c0 53 28 100 73 100c4 0 8 -1 10 -2c13 8 31 13 49 13c32 0 62 -15 62 -49c0 -9 -7 -16 -16 -16s-17 7 -17 16s8 16 17 16c2 0 4 0 6 -1c-7 13 -24 23 -46 23c-64 0 -100 -56 -100 -113
c0 -78 59 -120 122 -120c69 0 143 52 143 163c0 113 -77 183 -187 183c-130 0 -220 -88 -273 -199z" />
    <glyph glyph-name="uniE022" unicode="&#xe022;" horiz-adv-x="1163" 
d="M969 700h97v-4c-37 -9 -55 -28 -51 -73l53 -546c4 -45 23 -64 60 -73v-4h-152v4c37 9 46 28 42 73l-55 567l-249 -644h-10l-248 641l-54 -564c-4 -45 5 -64 42 -73v-4h-117v4c37 9 56 28 60 73l58 593c-44 112 -115 154 -201 154c-134 0 -194 -98 -194 -193
c0 -88 52 -174 145 -174c63 0 123 44 123 126c0 52 -33 103 -93 103c-22 0 -39 -10 -46 -23c2 1 4 1 6 1c9 0 17 -7 17 -16s-8 -16 -17 -16s-16 7 -16 16c0 34 30 49 62 49c18 0 36 -5 49 -13c2 1 6 2 10 2c43 0 66 -42 66 -91c0 -98 -81 -150 -164 -150
c-118 0 -182 91 -182 186c0 101 73 205 234 205c125 0 212 -57 261 -183l223 -576z" />
    <glyph glyph-name="uniE023" unicode="&#xe023;" horiz-adv-x="871" 
d="M97 696v4h99l240 -623l241 623h97v-4c-37 -9 -55 -28 -51 -73l53 -546c4 -45 23 -64 60 -73v-4h-152v4c37 9 46 28 42 73l-55 567l-227 -587l26 -67c35 -90 74 -165 116 -228c151 59 307 104 468 104c227 0 335 -101 335 -201c0 -102 -109 -203 -316 -203
c-158 0 -354 57 -511 261l-109 -48c60 -70 97 -157 97 -264c0 -117 -70 -209 -200 -209c-83 0 -162 50 -162 141c0 49 23 91 66 91c4 0 8 -1 10 -2c13 8 32 13 50 13c40 0 64 -24 64 -49c0 -9 -7 -16 -16 -16s-17 7 -17 16s8 16 17 16c2 0 3 0 5 -1c-9 14 -26 23 -48 23
c-60 0 -93 -51 -93 -103c0 -78 61 -117 128 -117c121 0 186 86 186 195c0 106 -37 193 -97 262c-208 -93 -421 -186 -645 -186c-170 0 -260 91 -260 183c0 142 175 219 380 219c182 0 388 -61 514 -189c37 16 75 33 113 48c-45 63 -87 140 -123 232l-258 665l-54 -566
c-4 -45 5 -64 42 -73v-4h-117v4c37 9 56 28 60 73l53 546c4 45 -14 64 -51 73zM422 -306c-124 124 -325 183 -506 183c-198 0 -366 -75 -366 -210c0 -85 85 -170 248 -170c195 0 404 101 624 197zM601 -260c143 -200 320 -263 485 -263c190 0 293 94 293 189
c0 94 -103 188 -325 188c-151 0 -301 -50 -453 -114z" />
    <glyph glyph-name="uniE024" unicode="&#xe024;" horiz-adv-x="1163" 
d="M969 700h97v-4c-37 -9 -55 -28 -51 -73l53 -546c4 -45 23 -64 60 -73v-4h-152v4c37 9 46 28 42 73l-55 567l-227 -589l6 -16c46 -120 112 -277 248 -277c14 0 44 3 66 13l4 -9c-20 -11 -59 -16 -82 -16c-165 0 -240 159 -293 297l-229 594l-54 -564c-4 -45 5 -64 42 -73
v-4h-117v4c37 9 56 28 60 73l58 593c-45 112 -115 154 -201 154c-134 0 -194 -98 -194 -193c0 -88 52 -174 145 -174c63 0 123 44 123 126c0 52 -33 103 -93 103c-22 0 -39 -10 -46 -23c2 1 4 1 6 1c9 0 17 -7 17 -16s-8 -16 -17 -16s-16 7 -16 16c0 34 30 49 62 49
c18 0 36 -5 49 -13c2 1 6 2 10 2c43 0 66 -42 66 -91c0 -98 -81 -150 -164 -150c-118 0 -182 91 -182 186c0 101 73 205 234 205c125 0 212 -57 261 -183l223 -579z" />
    <glyph glyph-name="uniE025" unicode="&#xe025;" horiz-adv-x="871" 
d="M677 700h97v-4c-37 -9 -55 -28 -51 -73l53 -546c4 -45 23 -64 60 -73v-4h-152v4c37 9 46 28 42 73l-55 567l-249 -644h-10l-240 624c-2 6 -4 13 -7 19l-55 -566c-4 -45 5 -64 42 -73v-4h-117v4c37 9 56 28 60 73l57 596c-41 96 -86 175 -139 241
c-153 -60 -313 -106 -472 -106c-161 0 -275 72 -275 174c0 101 120 171 293 171c200 0 354 -62 476 -198c242 101 490 222 690 222c160 0 267 -85 267 -211c0 -92 -47 -152 -107 -138c-16 -10 -44 -17 -70 -17c-64 0 -107 41 -107 101c0 9 7 16 16 16s16 -7 16 -16
s-7 -16 -16 -16c-3 0 -6 1 -8 2c8 -45 43 -73 95 -73c83 0 143 64 143 152c0 111 -95 190 -229 190c-179 0 -415 -132 -670 -236c65 -79 121 -181 170 -307l211 -547zM-7 938c-116 134 -259 199 -434 199c-169 0 -281 -62 -281 -156c0 -93 113 -163 263 -163
c136 0 291 54 452 120z" />
    <glyph glyph-name="uniE026" unicode="&#xe026;" horiz-adv-x="978" 
d="M119 422l141 -368l69 178c73 190 186 278 353 278c161 0 271 -106 271 -260c0 -157 -103 -260 -260 -260c-161 0 -241 115 -241 229c0 110 75 218 224 218v-7c-111 0 -170 -105 -170 -211c0 -109 62 -219 193 -219c118 0 200 99 200 250c0 146 -90 250 -215 250
c-161 0 -268 -85 -339 -268l-130 -336c-38 -98 -86 -122 -136 -122c-45 0 -89 24 -89 74c0 19 15 34 34 34s34 -15 34 -34s-15 -33 -33 -34c9 -17 28 -30 58 -30s78 14 115 109l35 91l-168 438c-16 42 -36 68 -74 73v5h154v-5c-24 -3 -35 -15 -35 -35c0 -11 3 -23 9 -38z
" />
    <glyph glyph-name="uniE028" unicode="&#xe028;" horiz-adv-x="1025" 
d="M934 0h-14l-430 623v-546c0 -45 14 -64 51 -73v-4h-116v4c37 9 51 28 51 73v566l-11 16c-69 100 -138 165 -239 165c-86 0 -176 -58 -176 -193c0 -88 52 -174 145 -174c63 0 123 44 123 126c0 52 -33 103 -93 103c-22 0 -39 -10 -46 -23c2 1 4 1 6 1c9 0 17 -7 17 -16
s-8 -16 -17 -16s-16 7 -16 16c0 34 30 49 62 49c18 0 36 -5 49 -13c2 1 6 2 10 2c43 0 66 -42 66 -91c0 -98 -81 -150 -164 -150c-118 0 -182 89 -182 184c0 101 74 207 220 207c142 0 225 -73 301 -183l389 -566v536c0 45 -14 64 -51 73v4h116v-4c-37 -9 -51 -28 -51 -73
v-623z" />
    <glyph glyph-name="uniE029" unicode="&#xe029;" horiz-adv-x="636" 
d="M40 696v4h88l403 -611v534c0 45 -14 64 -51 73v4h116v-4c-37 -9 -51 -28 -51 -73v-555l53 -80c37 -56 75 -114 116 -169c151 48 298 83 432 83c223 0 320 -98 320 -197s-98 -198 -265 -198c-229 0 -395 133 -516 278c-86 -31 -174 -65 -263 -100
c70 -69 114 -155 114 -259c0 -124 -80 -224 -219 -224c-83 0 -162 50 -162 141c0 49 23 91 66 91c4 0 8 -1 10 -2c13 8 32 13 50 13c40 0 64 -24 64 -49c0 -9 -7 -16 -16 -16s-17 7 -17 16s8 16 17 16c2 0 3 0 5 -1c-9 14 -26 23 -48 23c-60 0 -93 -51 -93 -103
c0 -78 61 -117 128 -117c130 0 205 94 205 212c0 102 -44 188 -114 255c-252 -99 -508 -196 -724 -196c-170 0 -260 88 -260 183c0 146 186 219 406 219c199 0 425 -60 566 -182c89 35 179 70 269 100c-47 58 -86 117 -121 169l-443 670v-567c0 -45 14 -64 51 -73v-4h-116v4
c37 9 51 28 51 73v546c0 45 -14 64 -51 73zM729 -200c119 -153 266 -281 487 -281c148 0 240 94 240 186c0 93 -91 185 -310 185c-124 0 -266 -38 -417 -90zM389 -299c-139 118 -361 176 -556 176c-213 0 -393 -70 -393 -210c0 -88 85 -170 248 -170c188 0 439 102 701 204z
" />
    <glyph glyph-name="uniE02A" unicode="&#xe02a;" horiz-adv-x="636" 
d="M545 0h-14l-413 624c-4 7 -9 13 -13 19v-566c0 -45 14 -64 51 -73v-4h-116v4c37 9 51 28 51 73v587c-65 94 -130 174 -195 240c-146 -55 -303 -96 -483 -96c-163 0 -246 84 -246 169c0 88 87 176 264 176c172 0 331 -69 485 -211c251 104 500 235 769 235
c160 0 267 -85 267 -211c0 -92 -47 -152 -107 -138c-16 -10 -44 -17 -70 -17c-64 0 -107 41 -107 101c0 9 7 16 16 16s16 -7 16 -16s-7 -16 -16 -16c-3 0 -6 1 -8 2c8 -45 43 -73 95 -73c83 0 143 64 143 152c0 111 -95 190 -229 190c-253 0 -481 -141 -746 -246
c80 -78 160 -177 239 -297l353 -533v532c0 45 -14 64 -51 73v4h116v-4c-37 -9 -51 -28 -51 -73v-623zM-125 926c-146 142 -293 211 -444 211c-170 0 -252 -81 -252 -161c0 -79 80 -158 234 -158c158 0 311 48 462 108z" />
    <glyph glyph-name="uniE031" unicode="&#xe031;" horiz-adv-x="546" 
d="M40 695v5h230c120 0 203 -63 203 -164c0 -90 -70 -151 -180 -158l-2 -2c129 -53 178 -351 337 -581c166 61 333 107 490 107c216 0 309 -97 309 -192c0 -109 -105 -203 -278 -203c-265 0 -432 108 -545 249c-71 -29 -143 -60 -216 -90c59 -76 86 -162 86 -238
c0 -125 -74 -226 -209 -226c-83 0 -162 50 -162 141c0 49 23 91 66 91c4 0 8 -1 10 -2c13 8 32 13 50 13c40 0 64 -24 64 -49c0 -9 -7 -16 -16 -16s-17 7 -17 16s8 16 17 16c2 0 3 0 5 -1c-9 14 -26 23 -48 23c-60 0 -93 -51 -93 -103c0 -78 61 -117 128 -117
c126 0 195 94 195 212c0 75 -28 159 -87 235c-220 -92 -441 -176 -643 -176c-170 0 -260 91 -260 183c0 143 176 219 382 219c246 0 413 -85 511 -196c72 30 145 60 219 88c-179 239 -216 555 -316 597h-127v-298c0 -45 14 -69 51 -73v-5h-154v5c37 4 51 28 51 73v544
c0 45 -14 69 -51 73zM143 688v-300h120c110 0 158 61 158 149c0 90 -48 151 -158 151h-120zM644 -227c105 -143 258 -254 505 -254c170 0 268 91 268 191c0 90 -89 180 -299 180c-145 0 -307 -51 -474 -117zM356 -314c-97 108 -261 191 -502 191c-199 0 -368 -75 -368 -210
c0 -85 85 -170 248 -170c174 0 391 92 622 189z" />
    <glyph glyph-name="uniE032" unicode="&#xe032;" horiz-adv-x="733" 
d="M234 352c-145 0 -224 111 -224 228c0 133 101 274 324 274c165 0 339 -100 339 -304c0 -134 -91 -255 -271 -272c172 -44 245 -255 343 -443c127 40 253 67 373 67c216 0 309 -97 309 -192c0 -109 -105 -203 -278 -203c-228 0 -354 134 -445 289
c-103 -39 -209 -85 -316 -130c59 -76 86 -162 86 -238c0 -125 -74 -226 -209 -226c-83 0 -162 50 -162 141c0 49 23 91 66 91c4 0 8 -1 10 -2c13 8 32 13 50 13c40 0 64 -24 64 -49c0 -9 -7 -16 -16 -16s-17 7 -17 16s8 16 17 16c2 0 3 0 5 -1c-9 14 -26 23 -48 23
c-60 0 -93 -51 -93 -103c0 -78 61 -117 128 -117c126 0 195 94 195 212c0 75 -28 159 -87 235c-220 -92 -441 -176 -643 -176c-170 0 -260 91 -260 183c0 143 176 219 382 219c246 0 413 -85 511 -196c106 45 215 89 324 126c-116 206 -178 443 -342 459h-50v-198
c0 -45 14 -69 51 -73v-5h-154v5c37 4 51 28 51 73v274h-13zM229 542c0 -9 -8 -16 -17 -16s-16 7 -16 16c0 25 24 49 64 49c18 0 37 -5 50 -13c2 1 6 2 10 2c43 0 66 -42 66 -91c0 -48 -26 -103 -87 -126v-75h48c179 0 268 124 268 263c0 196 -147 291 -286 291
c-192 0 -274 -132 -274 -258c0 -113 67 -221 179 -221c77 0 114 58 114 114c0 52 -33 103 -93 103c-22 0 -39 -9 -48 -23c2 1 3 1 5 1c9 0 17 -7 17 -16zM1149 -481c170 0 268 91 268 191c0 90 -89 180 -299 180c-113 0 -235 -31 -362 -76c85 -158 190 -295 393 -295z
M356 -314c-97 108 -261 191 -502 191c-199 0 -368 -75 -368 -210c0 -85 85 -170 248 -170c174 0 391 92 622 189z" />
    <glyph glyph-name="uniE033" unicode="&#xe033;" horiz-adv-x="1336" 
d="M40 695v5h230c120 0 203 -63 203 -164c0 -95 -76 -154 -188 -159v-2c167 -47 237 -379 603 -379c215 0 355 139 355 354c0 207 -126 352 -307 352s-307 -132 -307 -321c0 -169 104 -284 257 -284v-8c-183 0 -315 122 -315 292c0 198 147 333 365 333s365 -147 365 -364
c0 -224 -159 -364 -413 -364c-471 0 -503 338 -630 390h-115v-298c0 -45 14 -69 51 -73v-5h-154v5c37 4 51 28 51 73v544c0 45 -14 69 -51 73zM143 688v-300h120c110 0 158 61 158 149c0 90 -48 151 -158 151h-120z" />
    <glyph glyph-name="uniE036" unicode="&#xe036;" horiz-adv-x="1103" 
d="M1027 373v-321c0 -35 13 -41 28 -41c11 0 21 4 27 9l3 -3c-11 -14 -29 -27 -51 -27c-25 0 -57 8 -57 68v310c0 97 -46 129 -107 129c-100 0 -173 -99 -173 -184v-235c0 -45 14 -69 51 -73v-5h-152v5c37 4 51 28 51 73v599c-21 -13 -47 -21 -76 -21c-39 0 -75 8 -109 19
v-597c0 -45 14 -69 51 -73v-5h-154v5c37 4 51 28 51 73v615c-58 22 -113 47 -176 47c-108 0 -184 -78 -184 -188c0 -94 59 -163 140 -163c73 0 124 50 124 123c0 54 -31 105 -86 105c-11 0 -23 -2 -31 -9c9 0 16 -6 16 -16c0 -9 -7 -16 -16 -16s-16 7 -16 16
c0 22 21 35 48 35s59 -12 77 -40c32 -3 49 -33 49 -71c0 -79 -68 -137 -159 -137c-109 0 -186 73 -186 176c0 113 94 195 224 195c140 0 207 -54 336 -54c67 0 112 31 112 77c0 29 -20 53 -44 53c2 -1 4 -5 4 -10c0 -9 -7 -16 -16 -16s-16 7 -16 16c0 12 11 20 26 20
c36 0 61 -29 61 -70v-393c24 68 86 137 177 137c120 0 153 -77 153 -137z" />
    <glyph glyph-name="uniE03D" unicode="&#xe03d;" horiz-adv-x="1028" 
d="M914 977c0 111 -95 190 -229 190c-254 0 -453 -143 -695 -248c59 -79 108 -178 146 -297l180 -563l-24 -73h-4l-207 636c-36 110 -81 203 -134 279c-130 -53 -274 -93 -445 -93c-163 0 -246 84 -246 169c0 88 89 176 266 176c185 0 335 -71 449 -211
c226 104 445 235 714 235c160 0 267 -85 267 -211c0 -92 -47 -152 -107 -138c-16 -10 -44 -17 -70 -17c-64 0 -107 41 -107 101c0 9 7 16 16 16s16 -7 16 -16s-7 -16 -16 -16c-3 0 -6 1 -8 2c8 -45 43 -73 95 -73c83 0 143 64 143 152zM-70 924c-108 141 -246 214 -410 214
c-170 0 -252 -82 -252 -162c0 -79 80 -158 234 -158s293 47 428 106zM947 622l-217 -636h-12l-204 630l-211 -630h-3l21 58l-5 15l211 641h15l203 -635l187 557c4 11 6 22 6 31c0 24 -14 39 -41 42v5h121v-5c-37 -6 -55 -25 -71 -73z" />
    <glyph glyph-name="uniE040" unicode="&#xe040;" horiz-adv-x="615" 
d="M253 -604c0 9 8 16 17 16c2 0 3 0 5 -1c-9 14 -26 23 -48 23c-60 0 -93 -51 -93 -103c0 -78 61 -117 128 -117c127 0 198 97 198 217c0 77 -30 164 -94 241c-216 -96 -435 -187 -647 -187c-170 0 -260 91 -260 183c0 142 175 219 380 219c248 0 416 -81 516 -187
c87 38 175 77 264 110c-40 57 -76 115 -108 167l-223 356l-159 -255c-24 -38 -27 -64 8 -73v-5h-123v5c51 10 72 31 98 73l168 269l-172 275c-26 42 -47 63 -98 73v5h165v-5c-18 -5 -26 -14 -26 -27c0 -12 7 -28 18 -46l146 -234l147 234c24 38 27 64 -8 73v5h123v-5
c-51 -10 -72 -31 -98 -73l-155 -248l240 -384c34 -55 68 -110 103 -164c130 45 260 76 388 76c223 0 320 -98 320 -197s-98 -198 -265 -198c-223 0 -367 135 -474 282c-85 -34 -171 -74 -258 -113c64 -78 94 -166 94 -245c0 -126 -76 -229 -212 -229c-83 0 -162 50 -162 141
c0 49 23 91 66 91c4 0 8 -1 10 -2c13 8 32 13 50 13c40 0 64 -24 64 -49c0 -9 -7 -16 -16 -16s-17 7 -17 16zM678 -194c105 -157 229 -287 445 -287c148 0 240 94 240 186c0 93 -91 185 -310 185c-120 0 -246 -35 -375 -84zM345 -304c-99 103 -264 181 -508 181
c-198 0 -366 -75 -366 -210c0 -85 85 -170 248 -170c185 0 400 99 626 199z" />
    <glyph glyph-name="uniE041" unicode="&#xe041;" horiz-adv-x="615" 
d="M914 977c0 111 -95 190 -229 190c-263 0 -467 -154 -721 -260c63 -74 130 -168 203 -285l146 -234l147 234c11 18 18 34 18 46c0 13 -8 22 -26 27v5h123v-5c-51 -10 -72 -31 -98 -73l-155 -248l185 -296c26 -42 47 -63 98 -73v-5h-165v5c18 5 26 14 26 27
c0 12 -7 28 -18 46l-160 255l-159 -255c-11 -18 -18 -34 -18 -46c0 -13 8 -22 26 -27v-5h-123v5c51 10 72 31 98 73l168 269l-172 275c-69 110 -130 197 -187 268c-123 -48 -259 -82 -419 -82c-145 0 -246 69 -246 169c0 102 104 176 246 176c163 0 294 -58 442 -223
c236 105 461 247 741 247c160 0 267 -85 267 -211c0 -92 -47 -152 -107 -138c-16 -10 -44 -17 -70 -17c-64 0 -107 41 -107 101c0 9 7 16 16 16s16 -7 16 -16s-7 -16 -16 -16c-3 0 -6 1 -8 2c8 -45 43 -73 95 -73c83 0 143 64 143 152zM-97 912c-142 169 -258 226 -401 226
c-136 0 -234 -67 -234 -161c0 -92 98 -159 234 -159c144 0 274 40 401 94z" />
    <glyph glyph-name="uniE043" unicode="&#xe043;" horiz-adv-x="610" 
d="M914 977c0 111 -95 190 -229 190c-260 0 -463 -150 -712 -256c64 -76 128 -171 195 -289l158 -277l159 277c22 38 27 64 -8 73v5h123v-5c-51 -10 -74 -31 -98 -73l-169 -293v-251c0 -45 14 -69 51 -73v-5h-154v5c37 4 51 28 51 73v244l-173 300
c-63 109 -122 199 -180 271c-125 -49 -263 -85 -426 -85c-145 0 -246 69 -246 169c0 101 105 176 248 176c173 0 311 -64 449 -219c232 105 456 243 732 243c160 0 267 -85 267 -211c0 -92 -47 -152 -107 -138c-16 -10 -44 -17 -70 -17c-64 0 -107 41 -107 101
c0 9 7 16 16 16s16 -7 16 -16s-7 -16 -16 -16c-3 0 -6 1 -8 2c8 -45 43 -73 95 -73c83 0 143 64 143 152zM-90 915c-132 157 -258 223 -408 223c-136 0 -234 -67 -234 -161c0 -92 98 -159 234 -159c147 0 279 42 408 97z" />
    <glyph glyph-name="uniE046" unicode="&#xe046;" horiz-adv-x="557" 
d="M85 700h442l-431 -688c188 -3 327 -115 457 -236c159 52 318 90 466 90c227 0 325 -101 325 -201c0 -102 -95 -203 -291 -203c-218 0 -370 144 -517 283c-79 -28 -160 -59 -241 -90c57 -76 85 -161 85 -236c0 -120 -71 -217 -203 -217c-83 0 -162 50 -162 141
c0 49 23 91 66 91c4 0 8 -1 10 -2c13 8 32 13 50 13c40 0 64 -24 64 -49c0 -9 -7 -16 -16 -16s-17 7 -17 16s8 16 17 16c2 0 3 0 5 -1c-9 14 -26 23 -48 23c-60 0 -93 -51 -93 -103c0 -78 61 -117 128 -117c122 0 189 90 189 204c0 73 -28 157 -85 233
c-226 -86 -454 -166 -660 -166c-170 0 -260 91 -260 183c0 143 176 219 381 219c258 0 433 -93 532 -210c79 30 158 59 238 86c-130 123 -259 237 -428 237h-58l430 688h-246c-80 0 -117 -23 -146 -101h-8zM267 -327c-98 114 -268 204 -523 204c-199 0 -367 -75 -367 -210
c0 -85 85 -170 248 -170c181 0 406 87 642 176zM573 -242c147 -138 287 -282 480 -282c190 0 281 95 281 190c0 94 -93 188 -315 188c-136 0 -288 -41 -446 -96z" />
    <glyph glyph-name="uniE049" unicode="&#xe049;" horiz-adv-x="497" 
d="M138 392c0 -19 -15 -34 -34 -34s-34 15 -34 34c0 65 75 118 167 118c135 0 184 -80 184 -153v-447c0 -140 61 -184 136 -184c77 0 114 58 114 114c0 52 -33 103 -93 103c-22 0 -39 -9 -48 -23c2 1 3 1 5 1c9 0 17 -7 17 -16s-8 -16 -17 -16s-16 7 -16 16
c0 25 24 49 64 49c18 0 37 -5 50 -13c2 1 6 2 10 2c43 0 66 -42 66 -91c0 -63 -47 -137 -147 -137c-105 0 -191 46 -191 236v258c-36 -112 -104 -219 -216 -219c-70 0 -125 37 -125 107c0 179 341 159 341 277c0 99 -84 126 -134 126c-62 0 -118 -31 -137 -74
c21 0 38 -11 38 -34zM371 242v96c-73 -96 -287 -82 -287 -237c0 -60 32 -98 82 -98c96 0 170 122 205 239z" />
    <glyph glyph-name="uniE04A" unicode="&#xe04a;" horiz-adv-x="699" 
d="M558 665c0 20 15 35 35 35s35 -15 35 -35s-15 -35 -35 -35s-35 15 -35 35zM138 392c0 -19 -15 -34 -34 -34s-34 15 -34 34c0 65 75 118 167 118c126 0 177 -70 183 -139c97 34 179 72 199 134h4v-427c0 -45 14 -69 51 -73v-5h-152v5c37 4 51 28 51 73v354
c-41 -30 -95 -54 -152 -75v-305c0 -35 13 -41 28 -41c11 0 21 4 27 9l3 -3c-11 -14 -29 -27 -51 -27c-25 0 -57 8 -57 68v151c-36 -112 -104 -219 -216 -219c-70 0 -125 37 -125 107c0 148 179 204 341 258v19c0 99 -84 126 -134 126c-62 0 -118 -31 -137 -74
c21 0 38 -11 38 -34zM371 242v97c-142 -51 -287 -101 -287 -238c0 -60 32 -98 82 -98c96 0 170 122 205 239z" />
    <glyph glyph-name="uniE04B" unicode="&#xe04b;" horiz-adv-x="694" 
d="M558 665c0 20 15 35 35 35s35 -15 35 -35s-15 -35 -35 -35s-35 15 -35 35zM457 -176c0 -18 -14 -33 -32 -34c10 -17 28 -30 57 -30c36 0 91 17 91 117v555c-41 -30 -95 -54 -152 -75v-305c0 -35 13 -41 28 -41c11 0 21 4 27 9l3 -3c-11 -14 -29 -27 -51 -27
c-25 0 -57 8 -57 68v151c-36 -112 -104 -219 -216 -219c-70 0 -125 37 -125 107c0 148 179 204 341 258v19c0 99 -84 126 -134 126c-62 0 -118 -31 -137 -74c21 0 38 -11 38 -34c0 -19 -15 -34 -34 -34s-34 15 -34 34c0 65 75 118 167 118c126 0 177 -70 183 -139
c97 34 179 72 199 134h4v-566c0 -159 -76 -189 -141 -189c-45 0 -93 23 -93 74c0 19 15 34 34 34s34 -15 34 -34zM371 242v97c-142 -51 -287 -101 -287 -238c0 -60 32 -98 82 -98c96 0 170 122 205 239z" />
    <glyph glyph-name="uniE04C" unicode="&#xe04c;" horiz-adv-x="1029" 
d="M953 373v-321c0 -35 13 -41 28 -41c11 0 21 4 27 9l3 -3c-11 -14 -29 -27 -51 -27c-25 0 -57 8 -57 68v310c0 97 -46 129 -107 129c-100 0 -173 -99 -173 -184v-235c0 -45 14 -69 51 -73v-5h-152v5c37 4 51 28 51 73v354c-41 -30 -95 -54 -152 -75v-305
c0 -35 13 -41 28 -41c11 0 21 4 27 9l3 -3c-11 -14 -29 -27 -51 -27c-25 0 -57 8 -57 68v151c-36 -112 -104 -219 -216 -219c-70 0 -125 37 -125 107c0 148 179 204 341 258v19c0 99 -84 126 -134 126c-62 0 -118 -31 -137 -74c21 0 38 -11 38 -34c0 -19 -15 -34 -34 -34
s-34 15 -34 34c0 65 75 118 167 118c126 0 177 -70 183 -139c97 34 179 72 199 134h4v-132c24 68 86 137 177 137c120 0 153 -77 153 -137zM371 242v97c-142 -51 -287 -101 -287 -238c0 -60 32 -98 82 -98c96 0 170 122 205 239z" />
    <glyph glyph-name="uniE04D" unicode="&#xe04d;" horiz-adv-x="865" 
d="M573 78v354c-41 -30 -95 -54 -152 -75v-305c0 -35 13 -41 28 -41c11 0 21 4 27 9l3 -3c-11 -14 -29 -27 -51 -27c-25 0 -57 8 -57 68v151c-36 -112 -104 -219 -216 -219c-70 0 -125 37 -125 107c0 148 179 204 341 258v19c0 99 -84 126 -134 126c-62 0 -118 -31 -137 -74
c21 0 38 -11 38 -34c0 -19 -15 -34 -34 -34s-34 15 -34 34c0 65 75 118 167 118c126 0 177 -70 183 -139c97 34 179 72 199 134h4v-192c18 90 60 197 157 197c46 0 75 -24 75 -64c0 -19 -15 -34 -34 -34s-34 15 -34 34c0 18 14 33 32 34c-10 10 -26 15 -43 15
c-105 0 -153 -171 -153 -270v-147c0 -45 14 -69 51 -73v-5h-152v5c37 4 51 28 51 73zM371 242v97c-142 -51 -287 -101 -287 -238c0 -60 32 -98 82 -98c96 0 170 122 205 239z" />
    <glyph glyph-name="uniE04E" unicode="&#xe04e;" horiz-adv-x="1034" 
d="M958 505v-453c0 -35 13 -41 28 -41c11 0 21 4 27 9l3 -3c-11 -14 -29 -27 -51 -27c-25 0 -57 8 -57 68v70c-24 -68 -88 -138 -180 -138c-125 0 -155 74 -155 144v298c-41 -30 -95 -54 -152 -75v-305c0 -35 13 -41 28 -41c11 0 21 4 27 9l3 -3c-11 -14 -29 -27 -51 -27
c-25 0 -57 8 -57 68v151c-36 -112 -104 -219 -216 -219c-70 0 -125 37 -125 107c0 148 179 204 341 258v19c0 99 -84 126 -134 126c-62 0 -118 -31 -137 -74c21 0 38 -11 38 -34c0 -19 -15 -34 -34 -34s-34 15 -34 34c0 65 75 118 167 118c126 0 177 -70 183 -139
c97 34 179 72 199 134h4v-373c0 -97 47 -129 109 -129c102 0 176 99 176 184v231c0 35 -11 47 -46 47v5zM371 242v97c-142 -51 -287 -101 -287 -238c0 -60 32 -98 82 -98c96 0 170 122 205 239z" />
    <glyph glyph-name="uniE054" unicode="&#xe054;" horiz-adv-x="760" 
d="M625 564v-64h140v-12h-140v-412c0 -58 37 -65 55 -65s58 9 75 59l5 -1c-13 -53 -51 -79 -96 -79c-50 0 -89 30 -89 98v400h-60v12c71 0 98 37 98 77c0 51 -42 88 -103 88c-73 0 -121 -50 -121 -121c0 -35 13 -71 34 -100c20 -22 36 -48 48 -79l-252 -91
c-75 -27 -118 -68 -118 -127c0 -10 1 -22 4 -33c34 -73 95 -105 158 -105c77 0 155 34 203 111l9 -5c-42 -78 -122 -125 -217 -125c-141 0 -233 103 -233 260s92 260 233 260c54 0 101 -15 139 -43c-18 26 -27 56 -27 85c0 75 56 125 141 125c70 0 114 -43 114 -113z
M228 290l181 66c8 3 12 10 9 18c-29 79 -86 126 -160 126c-107 0 -179 -99 -179 -250c0 -38 5 -71 13 -100c0 72 50 109 136 140z" />
    <glyph glyph-name="uniE057" unicode="&#xe057;" horiz-adv-x="311" 
d="M160 611v-111h140v-12h-140v-563c0 -190 -86 -236 -191 -236c-100 0 -147 74 -147 137c0 49 23 91 66 91c4 0 8 -1 10 -2c13 8 32 13 50 13c40 0 64 -24 64 -49c0 -9 -7 -16 -16 -16s-17 7 -17 16s8 16 17 16c2 0 3 0 5 -1c-9 14 -26 23 -48 23c-60 0 -93 -51 -93 -103
c0 -56 37 -114 114 -114c75 0 136 44 136 184v604h-100v12h100v94c0 130 58 203 161 203c88 0 123 -62 124 -97c0 -20 -13 -36 -34 -36c-19 0 -34 15 -34 34s15 34 34 34c-16 35 -50 55 -93 55c-74 0 -108 -56 -108 -176z" />
    <glyph glyph-name="uniE05F" unicode="&#xe05f;" horiz-adv-x="763" 
d="M44 315c0 117 90 195 208 195c80 0 147 -36 182 -95c102 60 184 121 184 191h10v-106h140v-12h-140v-412c0 -58 37 -65 55 -65s58 9 75 59l5 -1c-13 -53 -51 -79 -96 -79c-50 0 -89 30 -89 98v418c-34 -35 -83 -69 -138 -102c13 -26 20 -56 20 -89
c0 -118 -90 -196 -208 -196c-66 0 -122 24 -160 66c-22 -23 -35 -47 -35 -71c0 -139 452 38 452 -210c0 -116 -164 -183 -307 -183c-112 0 -212 41 -212 130c0 51 32 102 103 123l2 -5c-46 -27 -61 -59 -61 -94c0 -87 97 -126 203 -126c125 0 260 55 260 148
c0 185 -453 9 -453 210c0 30 15 59 40 87c-25 32 -40 73 -40 121zM97 315c0 -35 6 -67 17 -93c70 60 182 115 282 171c-22 67 -75 107 -144 107c-93 0 -155 -71 -155 -185zM119 211c26 -52 73 -82 133 -82c93 0 155 72 155 186c0 24 -3 45 -8 65
c-101 -58 -213 -113 -280 -169z" />
    <glyph glyph-name="uniE062" unicode="&#xe062;" 
d="M30 762l96 35v-424c24 68 86 137 177 137c120 0 153 -77 153 -137v-349c0 -118 25 -212 66 -287c172 71 350 129 533 129c180 0 276 -95 276 -193c0 -104 -108 -211 -341 -211c-156 0 -370 58 -491 235l-21 -9l-42 -19l-21 -9c64 -68 104 -152 104 -253
c0 -113 -67 -205 -194 -205c-83 0 -162 50 -162 141c0 49 23 91 66 91c4 0 8 -1 10 -2c13 8 32 13 50 13c40 0 64 -24 64 -49c0 -9 -7 -16 -16 -16s-17 7 -17 16s8 16 17 16c2 0 3 0 5 -1c-9 14 -26 23 -48 23c-60 0 -93 -51 -93 -103c0 -78 61 -117 128 -117
c117 0 180 85 180 193c0 99 -40 181 -104 248c-199 -87 -402 -170 -612 -170c-170 0 -260 91 -260 183c0 134 152 200 337 200c180 0 392 -63 523 -186l91 39c-48 80 -78 182 -78 311v336c0 97 -46 129 -107 129c-100 0 -173 -99 -173 -184v-235c0 -45 14 -69 51 -73v-5
h-152v5c37 4 51 28 51 73v632c0 35 -11 47 -46 47v5zM382 -323c-130 118 -337 179 -513 179c-179 0 -325 -62 -325 -189c0 -85 86 -170 249 -170c184 0 381 89 589 180zM536 -287c112 -180 318 -236 467 -236c215 0 318 101 318 198c0 91 -90 179 -266 179
c-172 0 -344 -65 -519 -141z" />
    <glyph glyph-name="uniE063" unicode="&#xe063;" 
d="M30 762l96 35v-424c24 68 86 137 177 137c120 0 153 -77 153 -137v-369c0 -30 2 -58 5 -84c75 17 147 28 215 28c122 0 209 -60 209 -144s-86 -143 -209 -143c-134 0 -223 82 -256 229c-319 -104 -693 -338 -1022 -338c-142 0 -238 76 -238 189c0 75 44 129 97 120
c19 9 42 14 65 14c47 0 80 -22 80 -53c0 -9 -7 -16 -16 -16s-16 7 -16 16c0 12 9 16 19 16c-12 17 -36 27 -68 27c-71 0 -124 -58 -124 -136c0 -98 83 -167 201 -167c223 0 645 249 1018 347c-6 36 -10 76 -10 119v340c0 97 -46 129 -107 129c-100 0 -173 -99 -173 -184
v-235c0 -45 14 -69 51 -73v-5h-152v5c37 4 51 28 51 73v632c0 35 -11 47 -46 47v5zM463 -97c22 -147 96 -226 213 -226c116 0 195 52 195 127c0 77 -83 134 -195 134c-67 0 -138 -13 -213 -35z" />
    <glyph glyph-name="uniE064" unicode="&#xe064;" 
d="M30 762l96 35v-424c24 68 86 137 177 137c120 0 153 -77 153 -137v-463c0 -140 61 -184 136 -184c77 0 114 58 114 114c0 52 -33 103 -93 103c-22 0 -39 -9 -48 -23c2 1 3 1 5 1c9 0 17 -7 17 -16s-8 -16 -17 -16s-16 7 -16 16c0 25 24 49 64 49c18 0 37 -5 50 -13
c2 1 6 2 10 2c43 0 66 -42 66 -91c0 -63 -47 -137 -147 -137c-105 0 -191 46 -191 236v417c0 97 -46 129 -107 129c-100 0 -173 -99 -173 -184v-235c0 -45 14 -69 51 -73v-5h-152v5c37 4 51 28 51 73v632c0 35 -11 47 -46 47v5z" />
    <glyph glyph-name="uniE069" unicode="&#xe069;" horiz-adv-x="197" 
d="M61 665c0 20 15 35 35 35s35 -15 35 -35s-15 -35 -35 -35s-35 15 -35 35zM-55 -121c0 9 8 16 17 16c2 0 3 0 5 -1c-9 14 -26 23 -48 23c-60 0 -93 -51 -93 -103c0 -56 37 -114 114 -114c75 0 136 44 136 184v534c0 35 -11 47 -46 47v5l96 35v-580
c0 -190 -86 -236 -191 -236c-100 0 -147 74 -147 137c0 49 23 91 66 91c4 0 8 -1 10 -2c13 8 32 13 50 13c40 0 64 -24 64 -49c0 -9 -7 -16 -16 -16s-17 7 -17 16z" />
    <glyph glyph-name="uniE06C" unicode="&#xe06c;" horiz-adv-x="487" 
d="M30 762l96 35v-493l69 81c69 80 116 125 181 125c40 0 81 -21 81 -66c0 -19 -15 -34 -34 -34s-34 15 -34 34c0 15 10 28 24 32c-10 10 -25 14 -39 14c-54 0 -97 -28 -163 -104l-37 -42c143 -10 193 -251 290 -441c103 28 201 45 290 45c124 0 209 -58 209 -144
c0 -84 -86 -143 -209 -143c-159 0 -258 91 -328 206c-316 -111 -685 -315 -992 -315c-142 0 -238 76 -238 189c0 75 44 129 97 120c19 9 42 14 65 14c47 0 80 -22 80 -53c0 -9 -7 -16 -16 -16s-16 7 -16 16c0 12 9 16 19 16c-12 17 -36 27 -68 27c-71 0 -124 -58 -124 -136
c0 -98 83 -167 201 -167c208 0 614 219 980 327c-109 195 -144 444 -248 445l-40 -46v-210c0 -45 14 -69 51 -73v-5h-152v5c37 4 51 28 51 73v632c0 35 -11 47 -46 47v5zM754 -323c116 0 195 52 195 127c0 79 -80 134 -195 134c-85 0 -179 -22 -280 -55
c62 -115 144 -206 280 -206z" />
    <glyph glyph-name="uniE06F" unicode="&#xe06f;" horiz-adv-x="202" 
d="M-548 1069c216 0 456 -125 700 -227c100 174 284 241 464 241c210 0 348 -79 348 -192c0 -95 -99 -191 -307 -191c-166 0 -328 44 -481 102c-32 -71 -50 -157 -50 -263v-461c0 -45 14 -69 51 -73v-5h-152v5c37 4 51 28 51 73v440c0 122 23 220 62 299
c-266 105 -504 242 -686 242c-158 0 -227 -99 -227 -190c0 -79 51 -153 140 -153c37 0 67 12 79 33c-10 0 -20 1 -20 15c0 9 7 16 16 16s16 -7 16 -16c0 -38 -48 -59 -94 -59c-28 0 -55 6 -70 15c-59 -7 -104 58 -104 138c0 98 68 211 264 211zM188 827
c156 -64 314 -115 469 -115c201 0 297 89 297 178c0 104 -131 177 -326 177c-172 0 -349 -65 -440 -240z" />
    <glyph glyph-name="uniE070" unicode="&#xe070;" horiz-adv-x="202" 
d="M212 -604c0 -9 -8 -16 -17 -16s-16 7 -16 16c0 25 24 49 64 49c18 0 37 -5 50 -13c2 1 6 2 10 2c43 0 66 -42 66 -91c0 -91 -79 -141 -162 -141c-127 0 -194 92 -194 205c0 101 40 185 104 253l-21 9l-42 19l-21 9c-121 -177 -335 -235 -491 -235
c-233 0 -341 107 -341 211c0 98 96 193 276 193c183 0 361 -58 533 -129c41 75 66 169 66 287v686c0 35 -11 47 -46 47v5l96 35v-765c0 -129 -30 -231 -78 -311l91 -39c131 123 343 186 523 186c185 0 337 -66 337 -200c0 -92 -90 -183 -260 -183c-210 0 -413 83 -612 170
c-64 -67 -104 -149 -104 -248c0 -108 63 -193 180 -193c67 0 128 39 128 117c0 52 -33 103 -93 103c-22 0 -39 -9 -48 -23c2 1 3 1 5 1c9 0 17 -7 17 -16zM150 -323c208 -91 405 -180 589 -180c163 0 249 85 249 170c0 127 -146 189 -325 189c-176 0 -383 -61 -513 -179z
M-4 -287c-175 76 -347 141 -519 141c-176 0 -266 -88 -266 -179c0 -97 103 -198 318 -198c149 0 355 56 467 236z" />
    <glyph glyph-name="uniE071" unicode="&#xe071;" horiz-adv-x="202" 
d="M126 797v-769c0 -43 -4 -83 -10 -119c373 -98 795 -347 1018 -347c118 0 201 69 201 167c0 78 -53 136 -124 136c-32 0 -56 -10 -68 -27c10 0 19 -4 19 -16c0 -9 -7 -16 -16 -16s-16 7 -16 16c0 31 33 53 80 53c23 0 46 -5 65 -14c53 9 97 -45 97 -120
c0 -113 -96 -189 -238 -189c-329 0 -703 234 -1022 338c-33 -147 -122 -229 -256 -229c-123 0 -209 59 -209 143s87 144 209 144c68 0 140 -11 215 -28c3 26 5 54 5 84v706c0 35 -11 47 -46 47v5zM69 -97c-75 22 -146 35 -213 35c-112 0 -195 -57 -195 -134
c0 -75 79 -127 195 -127c117 0 191 79 213 226z" />
    <glyph glyph-name="uniE072" unicode="&#xe072;" horiz-adv-x="404" 
d="M60 1396c0 9 8 16 17 16s16 -7 16 -16c0 -25 -24 -49 -64 -49c-18 0 -37 5 -50 13c-2 -1 -6 -2 -10 -2c-43 0 -66 42 -66 91c0 91 79 141 162 141c132 0 198 -103 198 -237c0 -73 -20 -156 -59 -236c19 -13 37 -25 55 -38c126 126 301 180 469 180
c283 0 417 -127 417 -256c0 -132 -140 -265 -404 -265c-154 0 -280 39 -391 95c-14 -53 -22 -114 -22 -181v-574c0 -45 14 -69 51 -73v-5h-152v5c37 4 51 28 51 73v539c0 89 13 168 36 235c-42 23 -82 48 -121 74c-42 -90 -67 -202 -67 -338v-510c0 -45 14 -69 51 -73v-5
h-152v5c37 4 51 28 51 73v498c0 152 32 274 85 372c-16 11 -32 22 -47 33c-116 -137 -300 -243 -553 -243c-211 0 -380 83 -380 268c0 125 114 249 341 249c20 0 41 -1 60 -2c41 33 99 54 175 54c152 0 297 -88 438 -184c39 79 58 160 58 231c0 127 -62 224 -184 224
c-67 0 -128 -39 -128 -117c0 -52 33 -103 93 -103c22 0 39 9 48 23c-2 -1 -3 -1 -5 -1c-9 0 -17 7 -17 16zM-400 1251c215 -21 372 -129 525 -239c22 28 41 56 57 86c-146 102 -286 199 -424 199c-67 0 -120 -18 -158 -46zM357 856c111 -62 233 -106 384 -106
c259 0 394 126 394 252c0 123 -131 245 -404 245c-164 0 -331 -54 -448 -184c36 -25 71 -49 107 -71c75 94 183 143 305 143c120 0 180 -70 180 -136c0 -67 -60 -136 -180 -136c-101 0 -198 38 -293 91c-18 -29 -33 -62 -45 -98zM-356 1095c0 20 23 47 64 47
c16 0 33 -5 45 -12c2 1 6 2 9 2c40 0 64 -38 64 -82c0 -83 -74 -130 -149 -130c-114 0 -174 83 -174 171c0 53 22 109 66 150c-15 1 -31 2 -47 2c-221 0 -331 -118 -331 -237c0 -177 164 -256 369 -256c249 0 430 104 545 238c-161 116 -313 232 -519 252
c-45 -39 -66 -93 -66 -144c0 -82 54 -158 154 -158c78 0 113 52 113 102c0 62 -44 90 -83 90c-18 0 -36 -7 -46 -19c10 0 19 -4 19 -16c0 -10 -7 -16 -16 -16s-17 7 -17 16zM416 976c94 -56 186 -96 279 -96c113 0 170 58 170 119c0 60 -57 122 -170 122
c-111 0 -211 -49 -279 -145zM134 1005l42 -30c19 31 40 58 63 83c-1 1 -2 1 -3 2l-6 4c-1 1 -2 1 -3 2l-24 18c-1 1 -2 1 -3 2l-6 4c-1 1 -2 1 -3 2c-16 -30 -35 -59 -57 -87zM206 953c38 -27 77 -53 117 -77c14 35 31 66 51 94c-37 22 -74 46 -110 71
c-21 -26 -41 -56 -58 -88z" />
    <glyph glyph-name="uniE075" unicode="&#xe075;" horiz-adv-x="835" 
d="M76 78v340c0 35 -11 47 -46 47v5l96 35v-128c24 67 83 133 170 133c114 0 146 -76 146 -136c23 68 83 136 171 136c115 0 146 -77 146 -137v-463c0 -140 61 -184 136 -184c77 0 114 58 114 114c0 52 -33 103 -93 103c-22 0 -39 -9 -48 -23c2 1 3 1 5 1c9 0 17 -7 17 -16
s-8 -16 -17 -16s-16 7 -16 16c0 25 24 49 64 49c18 0 37 -5 50 -13c2 1 6 2 10 2c43 0 66 -42 66 -91c0 -63 -47 -137 -147 -137c-105 0 -191 46 -191 236v417c0 97 -44 129 -102 129c-95 0 -165 -99 -165 -184v-235c0 -45 14 -69 51 -73v-5h-152v5c37 4 51 28 51 73v290
c0 97 -44 129 -102 129c-88 0 -155 -86 -164 -166v-253c0 -45 14 -69 51 -73v-5h-152v5c37 4 51 28 51 73z" />
    <glyph glyph-name="uniE078" unicode="&#xe078;" 
d="M76 78v340c0 35 -11 47 -46 47v5l96 35v-132c24 68 86 137 177 137c120 0 153 -77 153 -137v-463c0 -140 61 -184 136 -184c77 0 114 58 114 114c0 52 -33 103 -93 103c-22 0 -39 -9 -48 -23c2 1 3 1 5 1c9 0 17 -7 17 -16s-8 -16 -17 -16s-16 7 -16 16c0 25 24 49 64 49
c18 0 37 -5 50 -13c2 1 6 2 10 2c43 0 66 -42 66 -91c0 -63 -47 -137 -147 -137c-105 0 -191 46 -191 236v417c0 97 -46 129 -107 129c-100 0 -173 -99 -173 -184v-235c0 -45 14 -69 51 -73v-5h-152v5c37 4 51 28 51 73z" />
    <glyph glyph-name="uniE080" unicode="&#xe080;" horiz-adv-x="368" 
d="M358 446c0 -19 -15 -34 -34 -34s-34 15 -34 34c0 18 14 33 32 34c-10 10 -26 15 -43 15c-105 0 -153 -171 -153 -270v-274c0 -190 -86 -236 -191 -236c-100 0 -147 74 -147 137c0 49 23 91 66 91c4 0 8 -1 10 -2c13 8 32 13 50 13c40 0 64 -24 64 -49
c0 -9 -7 -16 -16 -16s-17 7 -17 16s8 16 17 16c2 0 3 0 5 -1c-9 14 -26 23 -48 23c-60 0 -93 -51 -93 -103c0 -56 37 -114 114 -114c75 0 136 44 136 184v508c0 35 -11 47 -46 47v5l96 35v-192c18 90 60 197 157 197c46 0 75 -24 75 -64z" />
    <glyph glyph-name="uniE081" unicode="&#xe081;" horiz-adv-x="849" 
d="M76 78v340c0 35 -11 47 -46 47v5l96 35v-179c26 117 79 184 154 184c15 0 29 -3 40 -9c12 6 25 9 41 9c59 0 103 -30 128 -95l139 -361l121 316c16 42 31 121 -6 125v5h116v-5c-38 -5 -58 -31 -74 -73l-202 -526c-38 -98 -86 -122 -136 -122c-45 0 -89 24 -89 74
c0 19 15 34 34 34s34 -15 34 -34s-15 -33 -33 -34c9 -17 28 -30 58 -30s79 14 115 109l35 92l-165 430c-22 57 -48 80 -81 80c-8 0 -15 -1 -21 -4c12 -11 18 -25 19 -40c0 -20 -13 -36 -34 -36s-34 16 -34 36c1 15 7 29 19 39c-8 3 -17 5 -28 5c-84 0 -150 -119 -150 -270
v-147c0 -45 14 -69 51 -73v-5h-152v5c37 4 51 28 51 73z" />
    <glyph glyph-name="uniE085" unicode="&#xe085;" horiz-adv-x="255" 
d="M-625 617c-11 0 -20 4 -20 16c0 9 7 16 16 16s16 -7 16 -16c0 -30 -31 -53 -80 -53c-21 0 -44 4 -65 14c-57 -10 -97 50 -97 120c0 87 61 189 231 189c324 0 426 -403 634 -403c63 0 100 39 100 106h10v-106h140v-12h-140v-412c0 -58 37 -65 55 -65s58 9 75 59l5 -1
c-13 -53 -51 -79 -96 -79c-50 0 -89 30 -89 98v400h-36c-279 0 -376 405 -658 405c-135 0 -194 -87 -194 -167c0 -71 46 -136 124 -136c30 0 57 9 69 27z" />
    <glyph glyph-name="uniE088" unicode="&#xe088;" 
d="M71 134v284c0 35 -11 47 -46 47v5l96 35v-373c0 -97 47 -129 109 -129c102 0 176 99 176 184v231c0 35 -11 47 -46 47v5l96 35v-595c0 -140 61 -184 136 -184c77 0 114 58 114 114c0 52 -33 103 -93 103c-22 0 -39 -9 -48 -23c2 1 3 1 5 1c9 0 17 -7 17 -16
s-8 -16 -17 -16s-16 7 -16 16c0 25 24 49 64 49c18 0 37 -5 50 -13c2 1 6 2 10 2c43 0 66 -42 66 -91c0 -63 -47 -137 -147 -137c-105 0 -191 46 -191 236v177c-24 -68 -88 -138 -180 -138c-125 0 -155 74 -155 144z" />
    <glyph glyph-name="uniE08E" unicode="&#xe08e;" horiz-adv-x="481" 
d="M119 422l141 -367l121 315c9 23 17 56 17 83c0 23 -6 40 -23 42v5h116v-5c-38 -5 -58 -31 -74 -73l-202 -526s0 -1 -1 -2l-2 -6c374 -95 800 -326 1022 -326c118 0 201 69 201 167c0 78 -53 136 -124 136c-32 0 -56 -10 -68 -27c10 0 19 -4 19 -16c0 -9 -7 -16 -16 -16
s-16 7 -16 16c0 31 33 53 80 53c23 0 46 -5 65 -14c53 9 97 -45 97 -120c0 -113 -96 -189 -238 -189c-328 0 -709 219 -1031 316c-59 -132 -159 -207 -277 -207c-113 0 -191 51 -191 125c0 79 89 138 209 138c79 0 165 -13 253 -33l1 1v1l35 92l-168 437
c-16 42 -36 68 -74 73v5h154v-5c-24 -3 -35 -15 -35 -35c0 -11 3 -23 9 -38zM189 -128c-87 26 -169 42 -245 42c-112 0 -196 -55 -196 -127c0 -67 73 -112 180 -112c111 0 207 74 261 197z" />
    <glyph glyph-name="uniE08F" unicode="&#xe08f;" horiz-adv-x="481" 
d="M119 422l141 -367l121 315c9 23 17 56 17 83c0 23 -6 40 -23 42v5h116v-5c-38 -5 -58 -31 -74 -73l-202 -526c-48 -125 -110 -181 -203 -181c-90 0 -152 56 -152 137c0 50 26 86 63 86c4 0 8 -1 10 -2c13 8 32 13 50 13c40 0 64 -24 64 -49c0 -9 -7 -16 -16 -16
s-17 7 -17 16s8 16 17 16c2 0 3 0 5 -1c-9 14 -26 23 -48 23c-51 0 -89 -42 -89 -99c0 -65 47 -112 113 -112c87 0 143 54 195 190l26 68l-168 437c-16 42 -36 68 -74 73v5h154v-5c-24 -3 -35 -15 -35 -35c0 -11 3 -23 9 -38z" />
    <glyph glyph-name="uniE092" unicode="&#xe092;" horiz-adv-x="497" 
d="M138 392c0 -19 -15 -34 -34 -34s-34 15 -34 34c0 65 75 118 167 118c135 0 184 -80 184 -153v-340c0 -120 46 -182 136 -182c66 0 114 48 114 115c0 59 -38 101 -90 101c-21 0 -40 -7 -50 -20c10 0 21 -4 21 -16c0 -9 -8 -16 -17 -16s-16 7 -16 16c0 28 28 49 64 49
c18 0 37 -5 50 -13c2 1 6 2 10 2c39 0 66 -37 66 -91c0 -77 -65 -137 -149 -137c-122 0 -189 81 -189 227v157c-36 -112 -104 -219 -216 -219c-70 0 -125 37 -125 107c0 179 341 159 341 277c0 99 -84 126 -134 126c-62 0 -118 -31 -137 -74c21 0 38 -11 38 -34zM371 242v96
c-73 -96 -287 -82 -287 -237c0 -60 32 -98 82 -98c96 0 170 122 205 239z" />
    <glyph glyph-name="uniE220" unicode="&#xe220;" horiz-adv-x="738" 
d="M439 382c0 -19 -15 -34 -34 -34s-34 15 -34 34c0 23 18 34 39 34c-22 50 -81 84 -152 84c-107 0 -179 -101 -179 -250c0 -169 91 -241 184 -241c70 0 136 34 181 111l9 -5c-39 -78 -110 -125 -195 -125c-141 0 -233 103 -233 260c0 155 95 260 237 260
c49 0 92 -14 124 -36c-16 25 -24 55 -24 83c0 70 52 120 127 120c70 0 114 -43 114 -113v-64h140v-12h-140v-412c0 -58 37 -65 55 -65s58 9 75 59l5 -1c-13 -53 -51 -79 -96 -79c-50 0 -89 30 -89 98v400h-60v12c71 0 98 37 98 77c0 52 -43 88 -103 88
c-64 0 -108 -46 -108 -113c0 -34 10 -74 27 -96c20 -21 32 -46 32 -74z" />
    <glyph glyph-name="uniE480" unicode="&#xe480;" horiz-adv-x="1193" 
d="M615 824c-110 0 -205 -75 -205 -204c0 -115 71 -167 139 -167c63 0 123 44 123 126c0 52 -33 103 -93 103c-22 0 -39 -10 -46 -23c2 1 4 1 6 1c9 0 17 -7 17 -16s-8 -16 -17 -16s-16 7 -16 16c0 34 30 49 62 49c18 0 36 -5 49 -13c2 1 6 2 10 2c43 0 66 -42 66 -91
c0 -98 -81 -150 -164 -150c-87 0 -176 58 -176 179c0 137 114 216 249 216c144 0 230 -70 295 -241l198 -517c15 -39 35 -65 71 -73v-5h-152v5c26 4 36 18 36 37c0 10 -3 23 -8 36l-74 192c-20 -29 -51 -46 -84 -46c-53 0 -89 34 -129 34c-34 0 -62 -11 -82 -35l-51 -134
c-70 -182 -176 -264 -342 -264c-180 0 -287 130 -287 270c0 128 95 256 279 256c151 0 228 -104 228 -205c0 -92 -64 -181 -198 -181c-113 0 -161 77 -161 137c0 38 17 68 49 71c18 28 50 40 78 40c40 0 59 -22 59 -42c0 -10 -7 -16 -17 -16c-9 0 -16 6 -16 16
c0 11 8 16 18 16c-9 10 -23 16 -44 16c-52 0 -86 -49 -86 -105c0 -60 38 -123 124 -123c102 0 154 82 154 169c0 95 -63 195 -192 195c-154 0 -235 -121 -235 -244c0 -135 97 -260 247 -260c156 0 260 82 328 258l214 556c-54 122 -122 175 -224 175zM905 246
c32 0 58 10 78 31l-136 353l-149 -387c20 24 48 37 78 37c55 0 89 -34 129 -34z" />
    <glyph glyph-name="uniE481" unicode="&#xe481;" horiz-adv-x="757" 
d="M10 546c0 210 170 308 330 308c170 0 308 -89 308 -249c0 -90 -52 -172 -143 -193c129 -12 217 -87 217 -205c0 -130 -96 -207 -256 -207h-275v5c37 4 51 28 51 73v232c-146 0 -232 89 -232 236zM231 498c0 -9 -8 -16 -17 -16s-16 7 -16 16c0 25 24 49 64 49
c18 0 37 -5 50 -13c2 1 6 2 10 2c43 0 66 -42 66 -91c0 -64 -40 -107 -94 -125v-308h156c145 0 214 80 214 195s-69 195 -214 195h-14c-4 0 -7 2 -7 6s3 6 7 6h2c115 0 158 95 158 190c0 157 -126 238 -256 238c-145 0 -285 -101 -285 -290c0 -165 89 -230 174 -230
s121 57 121 113c0 51 -33 101 -93 101c-22 0 -39 -9 -48 -23c2 1 3 1 5 1c9 0 17 -7 17 -16z" />
    <glyph glyph-name="uniE482" unicode="&#xe482;" horiz-adv-x="811" 
d="M497 836c-261 0 -404 -245 -404 -495c0 -259 154 -522 491 -522c102 0 206 29 302 83l4 -7c-99 -60 -211 -92 -324 -92c-358 0 -531 274 -531 542c0 254 157 503 461 503c148 0 253 -79 253 -189c0 -105 -83 -153 -162 -153c-72 0 -142 43 -142 122c0 35 20 55 45 55
c13 21 35 30 55 30s37 -10 37 -28c0 -9 -6 -15 -15 -15s-15 6 -15 15c0 11 7 15 17 15c-6 4 -13 6 -21 6c-39 0 -58 -36 -58 -77c0 -73 46 -110 95 -110c56 0 115 48 115 145c0 102 -83 172 -203 172z" />
    <glyph glyph-name="uniE483" unicode="&#xe483;" horiz-adv-x="842" 
d="M425 0h-234v5c37 4 51 28 51 73v232c-146 0 -232 89 -232 236c0 210 170 308 330 308c251 0 447 -152 447 -447c0 -220 -129 -407 -362 -407zM231 498c0 -9 -8 -16 -17 -16s-16 7 -16 16c0 25 24 49 64 49c18 0 37 -5 50 -13c2 1 6 2 10 2c43 0 66 -42 66 -91
c0 -64 -40 -107 -94 -125v-308h116c203 0 319 176 319 396c0 278 -164 434 -389 434c-145 0 -285 -101 -285 -290c0 -165 89 -230 174 -230s121 57 121 113c0 51 -33 101 -93 101c-22 0 -39 -9 -48 -23c2 1 3 1 5 1c9 0 17 -7 17 -16z" />
    <glyph glyph-name="uniE484" unicode="&#xe484;" horiz-adv-x="841" 
d="M197 608c9 0 16 -6 16 -16c0 -9 -7 -16 -16 -16s-16 7 -16 16c0 22 21 35 48 35s59 -12 77 -40c32 -3 49 -33 49 -71c0 -79 -68 -137 -159 -137c-109 0 -186 73 -186 176c0 113 94 195 224 195c140 0 263 -87 399 -87c108 0 143 48 143 92c0 38 -20 67 -49 71
c2 -1 4 -5 4 -10c0 -9 -7 -16 -16 -16s-16 7 -16 16c0 12 9 20 24 20c39 0 68 -36 68 -84c0 -60 -45 -129 -157 -129c-69 0 -128 23 -185 49v-286c67 -4 142 -43 203 -43c29 0 54 11 74 35l5 -3c-22 -41 -54 -54 -92 -54c-62 0 -130 33 -190 41v-350h165
c120 0 152 22 194 123h8l-30 -135h-440v5c37 4 51 28 51 73v282c-17 -5 -32 -15 -45 -31l-5 3c13 25 30 39 50 47v317c-52 24 -105 44 -163 44c-108 0 -184 -78 -184 -188c0 -94 59 -163 140 -163c73 0 124 50 124 123c0 54 -31 105 -86 105c-11 0 -23 -2 -31 -9z" />
    <glyph glyph-name="uniE485" unicode="&#xe485;" horiz-adv-x="786" 
d="M521 381c50 0 96 -37 144 -37c22 0 43 9 61 32l5 -3c-18 -33 -41 -52 -77 -52c-50 0 -96 37 -144 37c-22 0 -43 -9 -61 -32v-248c0 -45 14 -69 51 -73v-5h-154v5c37 4 51 28 51 73v614c-52 25 -105 48 -163 48c-108 0 -184 -78 -184 -188c0 -94 59 -163 140 -163
c73 0 124 50 124 123c0 54 -31 105 -86 105c-11 0 -23 -2 -31 -9c9 0 16 -6 16 -16c0 -9 -7 -16 -16 -16s-16 7 -16 16c0 22 21 35 48 35s59 -12 77 -40c32 -3 49 -33 49 -71c0 -79 -68 -137 -159 -137c-109 0 -186 73 -186 176c0 113 94 195 224 195c140 0 255 -87 369 -87
c108 0 143 48 143 92c0 38 -20 67 -49 71c2 -1 4 -5 4 -10c0 -9 -7 -16 -16 -16s-16 7 -16 16c0 12 9 20 24 20c39 0 68 -36 68 -84c0 -60 -45 -129 -157 -129c-55 0 -106 20 -155 43v-328c17 28 39 43 72 43z" />
    <glyph glyph-name="uniE486" unicode="&#xe486;" horiz-adv-x="716" 
d="M635 202v-130c-29 -24 -114 -86 -235 -86c-210 0 -365 139 -365 364c0 253 194 364 361 364c320 0 313 -332 94 -332c-72 0 -142 43 -142 122c0 35 20 55 45 55c13 21 35 30 55 30s37 -10 37 -28c0 -9 -6 -15 -15 -15s-15 6 -15 15c0 11 7 15 17 15c-6 4 -13 6 -21 6
c-39 0 -58 -36 -58 -77c0 -73 46 -110 95 -110c146 0 174 307 -92 307c-138 0 -303 -110 -303 -352c0 -220 137 -352 307 -352c83 0 183 44 183 119v85c0 45 -14 69 -51 73v5h154v-5c-37 -4 -51 -28 -51 -73z" />
    <glyph glyph-name="uniE487" unicode="&#xe487;" horiz-adv-x="1231" 
d="M342 -175c-193 0 -302 130 -302 270c0 128 95 256 279 256c151 0 228 -104 228 -205c0 -92 -64 -181 -198 -181c-113 0 -161 77 -161 137c0 38 17 68 49 71c18 28 50 40 78 40c40 0 59 -22 59 -42c0 -9 -7 -16 -16 -16s-16 7 -16 16s7 16 17 16c-9 10 -23 16 -44 16
c-52 0 -86 -49 -86 -105c0 -60 38 -123 124 -123c102 0 154 82 154 169c0 95 -63 195 -192 195c-154 0 -235 -121 -235 -244c0 -135 92 -260 262 -260c149 0 244 94 324 209v539c0 155 -64 241 -179 241c-134 0 -194 -98 -194 -193c0 -88 52 -174 145 -174
c63 0 123 44 123 126c0 52 -33 103 -93 103c-22 0 -39 -10 -46 -23c2 1 4 1 6 1c9 0 16 -6 16 -16c0 -9 -7 -16 -16 -16s-16 7 -16 16c0 34 30 49 62 49c18 0 36 -5 49 -13c2 1 6 2 10 2c43 0 66 -42 66 -91c0 -98 -81 -150 -164 -150c-118 0 -182 91 -182 186
c0 101 73 205 234 205c147 0 231 -86 231 -236v-477c97 156 183 318 340 325v174c0 45 -14 69 -51 73v5h154v-5c-37 -4 -51 -28 -51 -73v-179c55 -14 81 -56 81 -99s-30 -87 -81 -98v-168c0 -45 14 -69 51 -73v-5h-154v5c37 4 51 28 51 73v168c-45 9 -65 43 -65 74
c0 40 32 63 62 63c20 0 36 -11 36 -27c0 -9 -6 -15 -15 -15s-15 6 -15 15c0 8 5 14 12 15c-4 2 -10 3 -16 3c-20 0 -48 -14 -48 -54c0 -32 23 -67 74 -67s78 43 78 88c0 47 -31 97 -97 97c-273 0 -302 -613 -722 -613z" />
    <glyph glyph-name="uniE488" unicode="&#xe488;" horiz-adv-x="566" 
d="M475 600v-522c0 -45 14 -69 51 -73v-5h-154v5c37 4 51 28 51 73v505c0 155 -64 241 -179 241c-134 0 -194 -98 -194 -193c0 -88 52 -174 145 -174c63 0 123 44 123 126c0 52 -33 103 -93 103c-22 0 -39 -10 -46 -23c2 1 4 1 6 1c9 0 16 -6 16 -16c0 -9 -7 -16 -16 -16
s-16 7 -16 16c0 34 30 49 62 49c18 0 36 -5 49 -13c2 1 6 2 10 2c43 0 66 -42 66 -91c0 -98 -81 -150 -164 -150c-118 0 -182 91 -182 186c0 101 73 205 234 205c147 0 231 -86 231 -236z" />
    <glyph glyph-name="uniE489" unicode="&#xe489;" horiz-adv-x="755" 
d="M329 187c-9 10 -23 16 -44 16c-52 0 -86 -49 -86 -105c0 -60 38 -123 124 -123c102 0 154 82 154 169c0 95 -63 195 -192 195c-154 0 -235 -121 -235 -244c0 -135 92 -260 262 -260c181 0 301 128 301 320v669h-208c-134 0 -194 -98 -194 -193c0 -88 52 -174 145 -174
c63 0 123 44 123 126c0 52 -33 103 -93 103c-22 0 -39 -10 -46 -23c2 1 4 1 6 1c9 0 17 -7 17 -16s-8 -16 -17 -16s-16 7 -16 16c0 34 30 49 62 49c18 0 36 -5 49 -13c2 1 6 2 10 2c43 0 66 -42 66 -91c0 -98 -81 -150 -164 -150c-118 0 -182 91 -182 186
c0 101 73 205 234 205h310v-5c-37 -4 -50 -28 -50 -73v-582c0 -221 -131 -351 -353 -351c-193 0 -302 130 -302 270c0 128 95 256 279 256c151 0 228 -104 228 -205c0 -92 -64 -181 -198 -181c-113 0 -161 77 -161 137c0 38 17 68 49 71c18 28 50 40 78 40
c40 0 59 -22 59 -42c0 -9 -7 -16 -16 -16s-16 7 -16 16s7 16 17 16z" />
    <glyph glyph-name="uniE48A" unicode="&#xe48a;" horiz-adv-x="937" 
d="M789 630l-230 -214c203 -15 228 -387 388 -411v-5c-248 0 -237 403 -400 404l-72 -67v-259c0 -45 14 -69 51 -73v-5h-154v5c37 4 51 28 51 73v505c0 155 -64 241 -179 241c-134 0 -194 -98 -194 -193c0 -88 52 -174 145 -174c63 0 123 44 123 126c0 52 -33 103 -93 103
c-22 0 -39 -10 -46 -23c2 1 4 1 6 1c9 0 16 -6 16 -16c0 -9 -7 -16 -16 -16s-16 7 -16 16c0 34 30 49 62 49c18 0 36 -5 49 -13c2 1 6 2 10 2c43 0 66 -42 66 -91c0 -98 -81 -150 -164 -150c-118 0 -182 91 -182 186c0 101 73 205 234 205c147 0 231 -86 231 -236v-246
l296 279c33 32 28 57 3 62v5h125v-5c-44 -5 -75 -32 -110 -65z" />
    <glyph glyph-name="uniE48B" unicode="&#xe48b;" horiz-adv-x="866" 
d="M202 648c0 -9 -8 -16 -17 -16s-16 7 -16 16c0 34 30 49 62 49c18 0 36 -5 49 -13c2 1 6 2 10 2c43 0 66 -42 66 -91c0 -98 -81 -150 -164 -150c-118 0 -182 91 -182 186c0 101 73 205 234 205h310v-5c-37 -4 -50 -28 -50 -73v-746h140c120 0 152 22 194 123h8l-30 -135
h-415v5c37 4 51 28 51 73v746h-208c-134 0 -194 -98 -194 -193c0 -88 52 -174 145 -174c63 0 123 44 123 126c0 52 -33 103 -93 103c-22 0 -39 -10 -46 -23c2 1 4 1 6 1c9 0 17 -7 17 -16z" />
    <glyph glyph-name="uniE48C" unicode="&#xe48c;" horiz-adv-x="1433" 
d="M1239 700h97v-4c-37 -9 -55 -28 -51 -73l53 -546c4 -45 23 -64 60 -73v-4h-152v4c37 9 46 28 42 73l-55 567l-249 -644h-10l-248 641l-40 -416c-25 -260 -147 -400 -349 -400c-193 0 -302 130 -302 270c0 128 95 256 279 256c151 0 228 -104 228 -205
c0 -92 -64 -181 -198 -181c-113 0 -161 77 -161 137c0 38 17 68 49 71c18 28 50 40 78 40c40 0 59 -22 59 -42c0 -9 -7 -16 -16 -16s-16 7 -16 16s7 16 17 16c-9 10 -23 16 -44 16c-52 0 -86 -49 -86 -105c0 -60 38 -123 124 -123c102 0 154 82 154 169
c0 95 -63 195 -192 195c-154 0 -235 -121 -235 -244c0 -135 92 -260 262 -260c190 0 311 141 335 390l43 445c-44 112 -115 154 -201 154c-134 0 -194 -98 -194 -193c0 -88 52 -174 145 -174c63 0 123 44 123 126c0 52 -33 103 -93 103c-22 0 -39 -10 -46 -23c2 1 4 1 6 1
c9 0 17 -7 17 -16s-8 -16 -17 -16s-16 7 -16 16c0 34 30 49 62 49c18 0 36 -5 49 -13c2 1 6 2 10 2c43 0 66 -42 66 -91c0 -98 -81 -150 -164 -150c-118 0 -182 91 -182 186c0 101 73 205 234 205c125 0 212 -57 261 -183l223 -576z" />
    <glyph glyph-name="uniE48D" unicode="&#xe48d;" horiz-adv-x="1166" 
d="M1075 0h-14l-425 616v-438c0 -226 -113 -353 -313 -353c-211 0 -313 130 -313 270c0 128 95 256 279 256c151 0 228 -104 228 -205c0 -92 -64 -181 -198 -181c-113 0 -161 77 -161 137c0 38 17 68 49 71c18 28 50 40 78 40c40 0 59 -22 59 -42c0 -10 -7 -16 -17 -16
c-9 0 -16 6 -16 16c0 11 8 16 18 16c-9 10 -23 16 -44 16c-52 0 -86 -49 -86 -105c0 -60 38 -123 124 -123c102 0 154 82 154 169c0 95 -63 195 -192 195c-154 0 -235 -121 -235 -244c0 -135 85 -260 273 -260c189 0 299 126 299 343v458l-16 23c-69 100 -138 165 -239 165
c-86 0 -176 -58 -176 -193c0 -88 52 -174 145 -174c63 0 123 44 123 126c0 52 -33 103 -93 103c-22 0 -39 -10 -46 -23c2 1 4 1 6 1c9 0 17 -7 17 -16s-8 -16 -17 -16s-16 7 -16 16c0 34 30 49 62 49c18 0 36 -5 49 -13c2 1 6 2 10 2c43 0 66 -42 66 -91
c0 -98 -81 -150 -164 -150c-118 0 -182 89 -182 184c0 101 74 207 220 207c142 0 225 -73 301 -183l389 -566v536c0 45 -14 64 -51 73v4h116v-4c-37 -9 -51 -28 -51 -73v-623z" />
    <glyph glyph-name="uniE48E" unicode="&#xe48e;" horiz-adv-x="800" 
d="M350 54c-182 0 -315 132 -315 310c0 209 147 350 365 350s365 -147 365 -364c0 -224 -159 -364 -413 -364v10c215 0 355 139 355 354c0 207 -126 352 -307 352s-307 -139 -307 -338c0 -176 105 -298 257 -298c109 0 160 85 160 164c0 68 -38 132 -109 132
c-49 0 -96 -36 -96 -104c0 -43 22 -82 61 -82c8 0 15 2 21 6c-10 0 -17 4 -17 15c0 9 6 15 15 15s15 -6 15 -15c0 -18 -17 -28 -37 -28s-42 9 -55 30c-34 0 -48 23 -48 55c0 77 71 120 143 120c96 0 147 -69 147 -143c0 -100 -87 -177 -200 -177z" />
    <glyph glyph-name="uniE48F" unicode="&#xe48f;" horiz-adv-x="702" 
d="M223 352c-145 0 -213 103 -213 220c0 187 158 282 319 282c165 0 333 -100 333 -304c0 -144 -106 -286 -315 -286h-59v-186c0 -45 14 -69 51 -73v-5h-154v5c37 4 51 28 51 73v274h-13zM218 542c0 -9 -8 -16 -17 -16s-16 7 -16 16c0 25 24 49 64 49c18 0 37 -5 50 -13
c2 1 6 2 10 2c43 0 66 -42 66 -91c0 -48 -26 -103 -87 -126v-87h48c179 0 268 136 268 275c0 196 -141 291 -280 291c-136 0 -269 -90 -269 -265c0 -114 56 -214 168 -214c77 0 114 58 114 114c0 52 -33 103 -93 103c-22 0 -39 -9 -48 -23c2 1 3 1 5 1c9 0 17 -7 17 -16z
" />
    <glyph glyph-name="uniE490" unicode="&#xe490;" horiz-adv-x="800" 
d="M35 350c0 225 155 364 365 364s365 -139 365 -364c0 -223 -152 -362 -360 -364c217 -48 457 -324 669 -324c99 0 145 79 145 153c0 66 -36 127 -104 127c-55 0 -92 -47 -92 -107c0 -57 34 -81 61 -81c8 0 15 2 21 6c-10 0 -17 4 -17 15c0 9 6 15 15 15s15 -6 15 -15
c0 -18 -17 -28 -37 -28c-22 0 -48 12 -60 38c-29 3 -43 28 -43 53c0 60 42 116 137 116c102 0 155 -69 155 -141c0 -80 -64 -163 -196 -163c-325 0 -555 335 -730 335c-73 0 -107 -52 -107 -100c0 -59 36 -85 73 -85c35 0 70 25 70 69c0 27 -17 53 -46 53c-4 0 -9 -1 -11 -3
c9 0 15 -6 15 -15s-6 -15 -15 -15s-15 6 -15 15c0 17 15 25 32 25c38 0 60 -30 60 -61c0 -51 -45 -78 -92 -78c-50 0 -102 31 -102 97c0 48 38 98 119 105c-171 29 -290 161 -290 358zM93 350c0 -220 137 -352 307 -352s307 132 307 352s-137 352 -307 352
s-307 -132 -307 -352z" />
    <glyph glyph-name="uniE491" unicode="&#xe491;" horiz-adv-x="598" 
d="M944 -191l3 -7c-36 -15 -71 -22 -109 -22c-483 0 -440 596 -616 596h-79v-298c0 -45 14 -69 51 -73v-5h-154v5c37 4 51 28 51 73v544c0 45 -14 69 -51 73v5h216c132 0 217 -63 217 -164c0 -88 -88 -157 -206 -159c221 -104 196 -586 574 -586c38 0 75 6 103 18zM143 688
v-300h97c120 0 181 51 181 149c0 91 -72 151 -181 151h-97z" />
    <glyph glyph-name="uniE492" unicode="&#xe492;" horiz-adv-x="604" 
d="M416 103c0 -38 -21 -68 -53 -71c-18 -28 -50 -40 -78 -40c-40 0 -59 22 -59 42c0 10 7 16 17 16c9 0 16 -6 16 -16c0 -11 -8 -16 -18 -16c9 -10 23 -16 44 -16c52 0 86 49 86 105c0 85 -66 131 -137 131c-79 0 -164 -59 -164 -189c0 -104 70 -214 218 -214
c140 0 254 92 254 240c0 266 -440 246 -440 502c0 80 76 137 181 137c61 0 115 -17 155 -55l36 36h4v-165h-8c-33 126 -110 172 -187 172c-84 0 -151 -51 -151 -117c0 -209 442 -171 442 -500c0 -155 -124 -260 -286 -260c-180 0 -268 114 -268 223c0 136 110 200 214 200
c93 0 182 -55 182 -145z" />
    <glyph glyph-name="uniE493" unicode="&#xe493;" horiz-adv-x="717" 
d="M197 608c9 0 16 -6 16 -16c0 -9 -7 -16 -16 -16s-16 7 -16 16c0 22 21 35 48 35s59 -12 77 -40c32 -3 49 -33 49 -71c0 -79 -68 -137 -159 -137c-109 0 -186 73 -186 176c0 113 94 195 224 195c140 0 207 -54 336 -54c67 0 112 31 112 77c0 29 -20 53 -44 53
c2 -1 4 -5 4 -10c0 -9 -7 -16 -16 -16s-16 7 -16 16c0 12 11 20 26 20c36 0 61 -29 61 -70c0 -63 -53 -110 -126 -110c-39 0 -75 8 -109 19v-597c0 -45 14 -69 51 -73v-5h-154v5c37 4 51 28 51 73v615c-58 22 -113 47 -176 47c-108 0 -184 -78 -184 -188
c0 -94 59 -163 140 -163c73 0 124 50 124 123c0 54 -31 105 -86 105c-11 0 -23 -2 -31 -9z" />
    <glyph glyph-name="uniE494" unicode="&#xe494;" horiz-adv-x="944" 
d="M451 589v-377c0 -135 81 -208 189 -208c112 0 199 73 199 208v410c0 45 -14 69 -51 73v5h116v-5c-37 -4 -51 -28 -51 -73v-408c0 -153 -92 -228 -223 -228s-231 66 -231 231v380c0 162 -69 228 -174 228c-84 0 -175 -59 -175 -176c0 -75 46 -148 125 -148
c77 0 114 58 114 114c0 52 -33 103 -93 103c-22 0 -39 -10 -46 -23c2 1 4 1 6 1c9 0 17 -7 17 -16s-8 -16 -17 -16s-16 7 -16 16c0 34 30 49 62 49c18 0 36 -5 49 -13c2 1 6 2 10 2c43 0 66 -42 66 -91c0 -63 -44 -137 -152 -137c-105 0 -165 80 -165 159
c0 127 107 187 213 187c141 0 228 -77 228 -247z" />
    <glyph glyph-name="uniE495" unicode="&#xe495;" horiz-adv-x="1001" 
d="M920 622l-225 -636h-15l-222 629c-40 114 -105 209 -235 209c-90 0 -173 -65 -173 -175c0 -75 46 -148 125 -148c77 0 114 58 114 114c0 52 -33 103 -93 103c-22 0 -39 -10 -46 -23c2 1 4 1 6 1c9 0 17 -7 17 -16s-8 -16 -17 -16s-16 7 -16 16c0 34 30 49 62 49
c18 0 36 -5 49 -13c2 1 6 2 10 2c43 0 66 -42 66 -91c0 -63 -44 -137 -152 -137c-105 0 -165 80 -165 159c0 127 109 187 215 187c170 0 251 -111 292 -229l192 -550l196 565c4 11 6 22 6 31c0 24 -14 39 -41 42v5h121v-5c-37 -6 -54 -25 -71 -73z" />
    <glyph glyph-name="uniE496" unicode="&#xe496;" horiz-adv-x="1393" 
d="M1312 622l-217 -636h-12l-204 630l-211 -630h-15l-204 629c-37 115 -96 209 -226 209c-90 0 -173 -65 -173 -175c0 -75 46 -148 125 -148c77 0 114 58 114 114c0 52 -33 103 -93 103c-22 0 -39 -10 -46 -23c2 1 4 1 6 1c9 0 17 -7 17 -16s-8 -16 -17 -16s-16 7 -16 16
c0 34 30 49 62 49c18 0 36 -5 49 -13c2 1 6 2 10 2c43 0 66 -42 66 -91c0 -63 -44 -137 -152 -137c-105 0 -165 80 -165 159c0 127 109 187 215 187c170 0 243 -110 281 -229l175 -548l211 641h15l203 -635l187 557c14 42 2 69 -35 73v5h121v-5c-37 -6 -55 -25 -71 -73z" />
    <glyph glyph-name="uniE497" unicode="&#xe497;" horiz-adv-x="976" 
d="M641 347l-192 306c-61 97 -134 171 -242 171c-70 0 -157 -46 -157 -175c0 -75 46 -148 125 -148c77 0 114 58 114 114c0 52 -33 103 -93 103c-22 0 -39 -10 -46 -23c2 1 4 1 6 1c9 0 17 -7 17 -16s-8 -16 -17 -16s-16 7 -16 16c0 34 30 49 62 49c18 0 36 -5 49 -13
c2 1 6 2 10 2c43 0 66 -42 66 -91c0 -63 -44 -137 -152 -137c-105 0 -165 80 -165 159c0 128 107 187 202 187c125 0 214 -49 305 -195l158 -253l146 234c11 18 18 34 18 46c0 13 -8 22 -26 27v5h123v-5c-51 -10 -72 -31 -98 -73l-155 -247l185 -297c26 -42 47 -63 98 -73
v-5h-165v5c18 5 26 14 26 27c0 12 -7 28 -18 46l-160 255l-159 -255c-11 -18 -18 -34 -18 -46c0 -13 8 -22 26 -27v-5h-123v5c51 10 72 31 98 73z" />
    <glyph glyph-name="uniE498" unicode="&#xe498;" horiz-adv-x="956" 
d="M503 641l169 -296l159 277c22 38 27 64 -8 73v5h123v-5c-51 -10 -74 -31 -98 -73l-169 -293v-251c0 -45 14 -69 51 -73v-5h-154v5c37 4 51 28 51 73v244l-190 330c-57 99 -120 172 -228 172c-70 0 -159 -50 -159 -175c0 -75 46 -148 125 -148c77 0 114 58 114 114
c0 52 -33 103 -93 103c-22 0 -39 -10 -46 -23c2 1 4 1 6 1c9 0 17 -7 17 -16s-8 -16 -17 -16s-16 7 -16 16c0 34 30 49 62 49c18 0 36 -5 49 -13c2 1 6 2 10 2c43 0 66 -42 66 -91c0 -63 -44 -137 -152 -137c-105 0 -165 80 -165 159c0 125 109 187 199 187
c115 0 209 -46 294 -195z" />
    <glyph glyph-name="uniE499" unicode="&#xe499;" horiz-adv-x="557" 
d="M85 700h442l-431 -688c230 -8 494 -376 723 -376c98 0 145 73 145 153c0 66 -33 127 -104 127c-55 0 -98 -47 -98 -107c0 -57 34 -81 61 -81c8 0 15 2 21 6c-10 0 -17 4 -17 15c0 9 6 15 15 15s15 -6 15 -15c0 -18 -17 -28 -37 -28c-22 0 -48 12 -60 38
c-26 4 -38 26 -38 51c0 60 56 118 141 118c96 0 151 -67 151 -139c0 -78 -62 -165 -195 -165c-310 0 -565 376 -730 376h-59l430 688h-246c-80 0 -117 -23 -146 -101h-8z" />
    <glyph glyph-name="uniE4A0" unicode="&#xe4a0;" horiz-adv-x="657" 
d="M152 223l-56 -145c-5 -13 -8 -26 -8 -36c0 -19 10 -33 36 -37v-5h-114v5c36 8 56 34 71 73l221 575c-36 92 -80 173 -130 240c-138 -65 -287 -118 -459 -118c-182 0 -312 80 -312 191c0 112 130 191 312 191c185 0 348 -78 475 -224c30 15 59 31 89 47
c-81 83 -128 185 -128 296c0 120 70 215 203 215c83 0 162 -50 162 -141c0 -49 -23 -91 -66 -91c-4 0 -8 1 -10 2c-13 -8 -32 -13 -50 -13c-40 0 -64 24 -64 49c0 9 7 16 16 16s17 -7 17 -16s-8 -16 -17 -16c-2 0 -3 0 -5 1c9 -14 26 -23 48 -23c60 0 93 51 93 103
c0 78 -61 117 -128 117c-124 0 -189 -89 -189 -202c0 -110 47 -211 128 -292c168 88 342 172 551 172c164 0 279 -80 279 -193c0 -112 -120 -189 -292 -189c-213 0 -402 71 -525 183c-31 -16 -61 -32 -93 -48c62 -77 116 -172 158 -282l211 -550c15 -39 35 -65 71 -73v-5
h-152v5c26 4 36 18 36 37c0 10 -3 23 -8 36l-74 192c-21 -30 -52 -46 -84 -46c-58 0 -87 34 -132 34c-24 0 -55 -5 -81 -35zM311 963c122 -109 306 -178 515 -178c164 0 279 74 279 180s-111 182 -267 182c-186 0 -351 -92 -527 -184zM154 916c-119 148 -270 227 -441 227
c-176 0 -302 -74 -302 -178s126 -178 302 -178c160 0 302 59 441 129zM369 246c23 0 53 5 78 31l-138 357l-150 -391c21 24 50 37 78 37c58 0 87 -34 132 -34z" />
    <glyph glyph-name="uniE4A1" unicode="&#xe4a1;" horiz-adv-x="849" 
d="M319 102c-203 0 -309 175 -309 357c0 204 132 395 402 395c227 0 328 -132 328 -253c0 -87 -51 -168 -142 -189c136 -12 216 -86 216 -205c0 -130 -96 -207 -256 -207h-275v5c37 4 51 28 51 73v24h-15zM348 238c0 -18 -17 -28 -37 -28c-22 0 -50 11 -62 37
c-25 2 -39 25 -39 55c0 47 39 109 124 121v199c0 45 -14 69 -51 73v5h154v-5c-37 -4 -51 -28 -51 -73v-198c88 -10 135 -78 135 -149c0 -69 -43 -141 -135 -165v-98h156c145 0 214 80 214 195s-69 195 -214 195h-14c-4 0 -7 2 -7 6s3 6 7 6h2c98 0 158 92 158 191
c0 114 -83 237 -276 237c-250 0 -357 -189 -357 -387c0 -175 90 -341 254 -341c120 0 172 81 172 158c0 95 -60 141 -117 141c-79 0 -113 -59 -113 -112c0 -44 23 -84 63 -84c8 0 15 2 21 6c-10 0 -17 4 -17 15c0 9 6 15 15 15s15 -6 15 -15z" />
    <glyph glyph-name="uniE4A2" unicode="&#xe4a2;" horiz-adv-x="694" 
d="M463 561c0 -9 -6 -15 -15 -15s-15 6 -15 15c0 11 7 15 17 15c-6 4 -13 6 -21 6c-39 0 -58 -36 -58 -77c0 -73 46 -110 95 -110c56 0 115 48 115 145c0 105 -85 162 -185 162c-138 0 -303 -110 -303 -352c0 -226 137 -352 307 -352c110 0 216 59 260 167h4l-32 -104
c-58 -44 -142 -75 -242 -75c-210 0 -355 139 -355 364c0 253 194 364 361 364c130 0 234 -67 234 -179c0 -105 -83 -153 -162 -153c-72 0 -142 43 -142 122c0 35 20 55 45 55c13 21 35 30 55 30s37 -10 37 -28z" />
    </font>
</defs>
</svg>
